<svg id="_x31_px" enable-background="new 0 0 24 24" height="512" viewBox="0 0 24 24" width="512" xmlns="http://www.w3.org/2000/svg"><path d="m4.501 16.97c-.019 0-.037-.001-.057-.003-2.533-.281-4.444-2.417-4.444-4.967 0-2.642 2.059-4.811 4.656-4.988.692-3.456 3.777-6.012 7.344-6.012 2.801 0 5.381 1.578 6.653 4.044 3.022.317 5.347 2.878 5.347 5.956 0 2.68-1.796 5.05-4.366 5.762-.268.075-.542-.082-.615-.349-.074-.266.082-.542.348-.615 2.139-.592 3.633-2.566 3.633-4.798 0-2.647-2.063-4.835-4.697-4.981-.185-.01-.348-.121-.426-.288-1.058-2.266-3.364-3.731-5.877-3.731-3.215 0-5.977 2.395-6.425 5.57-.035.246-.246.43-.495.43-2.286 0-4.08 1.794-4.08 4 0 2.04 1.528 3.748 3.556 3.973.274.031.472.278.441.552-.028.256-.245.445-.496.445z"/><path d="m9.5 18c-.128 0-.256-.049-.354-.146l-2-2c-.195-.195-.195-.512 0-.707l2-2c.195-.195.512-.195.707 0s.195.512 0 .707l-1.646 1.646 1.646 1.646c.195.195.195.512 0 .707-.097.098-.225.147-.353.147z"/><path d="m16.5 16h-8.751c-.276 0-.5-.224-.5-.5s.224-.5.5-.5h8.751c.276 0 .5.224.5.5s-.224.5-.5.5z"/><path d="m14.5 23c-.128 0-.256-.049-.354-.146-.195-.195-.195-.512 0-.707l1.646-1.646-1.646-1.646c-.195-.195-.195-.512 0-.707s.512-.195.707 0l2 2c.195.195.195.512 0 .707l-2 2c-.097.096-.225.145-.353.145z"/><path d="m16.251 21h-8.751c-.276 0-.5-.224-.5-.5s.224-.5.5-.5h8.751c.276 0 .5.224.5.5s-.224.5-.5.5z"/></svg>