<svg width="108" height="104" viewBox="0 0 108 104" fill="none" xmlns="http://www.w3.org/2000/svg">
<path d="M104.948 49.573V101.301H30.9475V25.3008H87.1875M104.948 49.573L87.1875 25.3008M104.948 49.573H87.1875V25.3008" stroke="white" stroke-width="5" stroke-linejoin="round"/>
<path fill-rule="evenodd" clip-rule="evenodd" d="M16.7773 9.80078C15.3966 9.80078 14.2773 10.9201 14.2773 12.3008V84.3008H19.2773V84.2962L23.4135 84.2998L23.4173 79.2998L19.2773 79.2962V14.8008H71.8307L73.6607 16.761L77.3155 13.3488L74.7442 10.5947C74.2714 10.0883 73.6097 9.80078 72.9168 9.80078H16.7773Z" fill="white"/>
<path fill-rule="evenodd" clip-rule="evenodd" d="M2.5 0C1.11929 0 0 1.11929 0 2.5V74.5H5V74.4952L9.96975 74.499L9.97394 69.499L5 69.4952V5H64.6916L66.8619 7.06517L70.3086 3.44303L67.4144 0.688929C66.9496 0.246658 66.3326 0 65.691 0H2.5Z" fill="white"/>
</svg>
