<svg width="37" height="41" viewBox="0 0 37 41" fill="none" xmlns="http://www.w3.org/2000/svg">
<path fill-rule="evenodd" clip-rule="evenodd" d="M2 6C1.44772 6 1 6.44772 1 7V13H36V7C36 6.44772 35.5523 6 35 6H2Z" fill="#3A728E"/>
<rect x="6.5" y="0.5" width="5" height="10" rx="2.5" fill="white" stroke="#3A728E"/>
<rect x="24.5" y="0.5" width="5" height="10" rx="2.5" fill="white" stroke="#3A728E"/>
<path d="M1.5612 39.5L2.4412 17.5H34.5588L35.4388 39.5H1.5612Z" fill="white" stroke="#3A728E" stroke-width="3"/>
<path d="M14.192 34.21C13.94 34.21 13.674 34.1913 13.394 34.154C13.114 34.126 12.8433 34.084 12.582 34.028C12.3207 33.972 12.0827 33.9113 11.868 33.846C11.6533 33.7807 11.4853 33.72 11.364 33.664L11.77 31.928C12.0127 32.0307 12.3207 32.1427 12.694 32.264C13.0767 32.376 13.548 32.432 14.108 32.432C14.752 32.432 15.2233 32.3107 15.522 32.068C15.8207 31.8253 15.97 31.4987 15.97 31.088C15.97 30.836 15.914 30.626 15.802 30.458C15.6993 30.2807 15.5547 30.1407 15.368 30.038C15.1813 29.926 14.9573 29.8513 14.696 29.814C14.444 29.7673 14.1733 29.744 13.884 29.744H13.072V28.064H13.996C14.2013 28.064 14.3973 28.0453 14.584 28.008C14.78 27.9707 14.9527 27.91 15.102 27.826C15.2513 27.7327 15.368 27.6113 15.452 27.462C15.5453 27.3033 15.592 27.1073 15.592 26.874C15.592 26.6967 15.5547 26.5427 15.48 26.412C15.4053 26.2813 15.3073 26.174 15.186 26.09C15.074 26.006 14.9387 25.9453 14.78 25.908C14.6307 25.8613 14.4767 25.838 14.318 25.838C13.9167 25.838 13.5433 25.8987 13.198 26.02C12.862 26.1413 12.554 26.2907 12.274 26.468L11.532 24.942C11.6813 24.8487 11.854 24.7507 12.05 24.648C12.2553 24.5453 12.4793 24.452 12.722 24.368C12.9647 24.284 13.2213 24.214 13.492 24.158C13.772 24.102 14.066 24.074 14.374 24.074C14.9433 24.074 15.4333 24.144 15.844 24.284C16.264 24.4147 16.6093 24.606 16.88 24.858C17.1507 25.1007 17.3513 25.39 17.482 25.726C17.6127 26.0527 17.678 26.412 17.678 26.804C17.678 27.1867 17.5707 27.56 17.356 27.924C17.1413 28.2787 16.852 28.5493 16.488 28.736C16.992 28.9413 17.3793 29.2493 17.65 29.66C17.93 30.0613 18.07 30.5467 18.07 31.116C18.07 31.564 17.9953 31.9793 17.846 32.362C17.6967 32.7353 17.4633 33.062 17.146 33.342C16.8287 33.6127 16.4227 33.8273 15.928 33.986C15.4427 34.1353 14.864 34.21 14.192 34.21ZM19.937 26.314C20.2077 26.202 20.4877 26.076 20.777 25.936C21.0757 25.7867 21.365 25.628 21.645 25.46C21.925 25.2827 22.191 25.1007 22.443 24.914C22.7044 24.718 22.9377 24.5127 23.143 24.298H24.599V34H22.513V27.014C22.233 27.2007 21.9204 27.3733 21.575 27.532C21.2297 27.6813 20.8937 27.812 20.567 27.924L19.937 26.314Z" fill="#3A728E"/>
</svg>
