
<svg width="215" height="127" viewBox="0 0 215 127" fill="none" xmlns="http://www.w3.org/2000/svg">
<path fill-rule="evenodd" clip-rule="evenodd" d="M209.633 0.402399C208.198 -0.42597 206.363 0.0656068 205.535 1.50042L202.978 5.92852L200.933 4.74774C199.976 4.19549 198.753 4.52325 198.201 5.47979L188.732 21.8803L204.191 30.8055C204.224 30.8336 204.259 30.8603 204.296 30.8856C204.33 30.9096 204.366 30.9324 204.403 30.9539L207.437 32.7054L194.679 54.8023C194.265 55.5197 194.511 56.4371 195.228 56.8512C195.946 57.2656 196.863 57.0197 197.277 56.3023L210.785 32.9063C211.199 32.1889 210.953 31.2715 210.236 30.8572L205.903 28.3559C205.871 28.3371 205.838 28.3198 205.805 28.3036L213.787 14.4783C214.339 13.5218 214.011 12.2986 213.055 11.7464L211.415 10.7996L213.972 6.37164C214.8 4.9367 214.308 3.10198 212.874 2.27349L209.633 0.402399ZM187.798 23.7114L203.251 32.6331L162.988 102.369L147.535 93.4476L187.798 23.7114ZM146.673 95.4842C146.225 95.9073 145.899 96.4764 145.783 97.1514L142.918 113.726C142.743 114.738 143.066 115.627 143.652 116.26L142.544 118.179C142.292 118.615 142.442 119.173 142.878 119.425C143.315 119.677 143.873 119.527 144.125 119.091L145.233 117.172C146.073 117.364 147.006 117.199 147.794 116.542L160.716 105.773C161.242 105.335 161.572 104.768 161.714 104.168L146.673 95.4842ZM106.539 126.076C97.744 124.779 87.7278 119.514 71.5112 108.433C58.7885 99.7405 44.4427 98.1587 31.6166 99.7496C18.7801 101.342 7.54321 106.105 1.15271 109.989L0.114014 108.28C6.72095 104.264 18.2252 99.3953 31.3704 97.7649C44.5261 96.1331 59.4026 97.7378 72.6395 106.782C88.8726 117.874 98.5439 122.875 106.831 124.098C115.066 125.313 122.06 122.819 133.103 118.402L133.846 120.259C122.865 124.651 115.384 127.382 106.539 126.076Z" fill="white"/>
</svg>
