<svg width="120" height="84" viewBox="0 0 120 84" fill="none" xmlns="http://www.w3.org/2000/svg">
<path fill-rule="evenodd" clip-rule="evenodd" d="M0 0H120V84H0V0ZM5.32018 4.48853H114.68V80.1527H5.32018V4.48853ZM88.1928 53.2H32.5301V55.2999H88.1928V53.2ZM32.5301 49H88.1928V51.1H32.5301V49ZM88.1928 44.8H32.5301V46.9H88.1928V44.8ZM32.5301 40.6001H88.1928V42.7001H32.5301V40.6001ZM91.0843 23.8C95.8752 23.8 99.759 20.0392 99.759 15.4C99.759 10.7608 95.8752 7 91.0843 7C86.2934 7 82.4096 10.7608 82.4096 15.4C82.4096 20.0392 86.2934 23.8 91.0843 23.8ZM97.2205 33.3078L92.1993 24.8863C94.6021 24.6616 96.8026 23.4313 98.2051 21.5288L103.226 29.9502L103.158 29.9886L98.2533 28.325L97.289 33.2695L97.2205 33.3078ZM84.2084 21.529L79.1872 29.9504L79.2557 29.9887L84.1601 28.3252L85.1245 33.2697L85.193 33.3081L90.2141 24.8866C87.8113 24.6618 85.6108 23.4316 84.2084 21.529Z" fill="white"/>
</svg>
