<svg width="66" height="65" viewBox="0 0 66 65" fill="none" xmlns="http://www.w3.org/2000/svg">
<path fill-rule="evenodd" clip-rule="evenodd" d="M4.09808 16.1455L24.9649 4.09808L28.1273 9.57563H22.6074H19.6074V12.5756V43.0084L4.09808 16.1455ZM19.6074 49.0084L18.5633 47.2L1.5 17.6455L0 15.0474L2.59808 13.5474L23.4649 1.5L26.0629 0L27.5629 2.59808L31.5914 9.57563H46.7023H49.7023V12.5756V19.7679L63.4018 27.6774L65.9999 29.1774L64.4999 31.7754L47.1702 61.7915L45.6702 64.3895L43.0721 62.8895L22.2053 50.8421L20.2309 49.7022H19.6074V49.3422L19.6072 49.3421L19.6074 49.3418V49.0084ZM22.6074 44.1456L38.437 16.728L39.937 14.1299L42.5351 15.6299L46.7023 18.0359V12.5756H22.6074V44.1456ZM20.0079 49.7022L20.0633 49.798L20.2293 49.7022H20.0079ZM61.9018 30.2754L41.0351 18.228L23.7053 48.244L44.5721 60.2915L61.9018 30.2754Z" fill="#3A728E"/>
</svg>
