<svg width="49" height="49" viewBox="0 0 49 49" fill="none" xmlns="http://www.w3.org/2000/svg">
<path d="M49 24.5C49 18.0022 46.4188 11.7705 41.8241 7.17588C37.2295 2.58124 30.9978 4.90571e-07 24.5 0C18.0022 -4.9057e-07 11.7705 2.58124 7.17589 7.17588C2.58124 11.7705 9.81141e-07 18.0022 0 24.5L24.5 24.5H49Z" fill="#3A728E"/>
<path fill-rule="evenodd" clip-rule="evenodd" d="M21.3751 21.0909L26.9426 16.4103L25.6728 23.5722C25.6607 24.026 25.5385 24.4834 25.2955 24.9042C24.5166 26.2532 22.7916 26.7154 21.4426 25.9366C20.0936 25.1577 19.6314 23.4327 20.4102 22.0837C20.6532 21.6629 20.9882 21.3284 21.3751 21.0909Z" fill="white"/>
<path d="M6 24.7958C6.5 15.5 11.5 7.00003 24.5 7C37.7242 6.99997 41 18.3333 41 24.5" stroke="white" stroke-width="3"/>
<rect x="23" width="3" height="6" fill="white"/>
<rect x="42.2383" y="7.00452" width="3" height="7.40788" transform="rotate(45 42.2383 7.00452)" fill="white"/>
<rect width="3" height="7.40788" transform="matrix(0.707107 -0.707107 -0.707107 -0.707107 9.23828 14.364)" fill="white"/>
</svg>
