<svg width="54" height="54" viewBox="0 0 54 54" fill="none" xmlns="http://www.w3.org/2000/svg">
<path fill-rule="evenodd" clip-rule="evenodd" d="M28.5762 48.9444C28.0556 48.9813 27.53 49 27 49C26.718 49 26.4372 48.9947 26.1578 48.9842L23.7729 41.5652H23.7604L23.7682 41.5505L23.7606 41.5267H23.7811L26.0971 37.2185H28.6236L30.9397 41.5267H30.9606L30.9527 41.551L30.9604 41.5652H30.9482L28.5762 48.9444ZM39.2648 45.2667C38.6227 43.5293 37.6551 41.9328 36.4035 40.5849C34.6667 38.7145 32.4853 37.433 30.1268 36.8598C33.0544 35.5605 35.1152 32.4571 35.1152 28.8354C35.1152 24.0441 31.5085 20.16 27.0595 20.16C22.6104 20.16 19.0037 24.0441 19.0037 28.8354C19.0037 32.5276 21.1455 35.6811 24.164 36.9336C21.9161 37.5387 19.8413 38.7909 18.1754 40.5849C16.8504 42.0118 15.8437 43.7175 15.2044 45.5738C9.06983 41.6698 5 34.8102 5 27C5 14.8497 14.8497 5 27 5C39.1503 5 49 14.8497 49 27C49 34.6093 45.1368 41.3163 39.2648 45.2667ZM54 27C54 41.9117 41.9117 54 27 54C12.0883 54 0 41.9117 0 27C0 12.0883 12.0883 0 27 0C41.9117 0 54 12.0883 54 27Z" fill="#3A728E"/>
</svg>
