<svg width="40" height="120" viewBox="0 0 40 120" fill="none" xmlns="http://www.w3.org/2000/svg">
<path fill-rule="evenodd" clip-rule="evenodd" d="M40 21.8845L39.9979 21.8822V21.3581H39.5189L20 0L0.481081 21.3581H0L-1.14441e-05 21.8845L0 98.969H39.9979V21.8845H40ZM24.5448 8.84327H14.979L4.50418 20.3051H35.0197L24.5448 8.84327ZM11 26.2887H7V90.9278H11V26.2887ZM18 26.2887H22V90.9278H18V26.2887ZM33 26.2887H29V90.9278H33V26.2887ZM2.55371 100.515C0.953616 102.562 0 105.139 0 107.938C0 114.599 5.40027 120 12.0618 120H27.9382C34.5997 120 40 114.599 40 107.938C40 105.139 39.0464 102.562 37.4463 100.515H2.55371Z" fill="#181818"/>
</svg>
