<svg width="40" height="240" viewBox="0 0 40 240" fill="none" xmlns="http://www.w3.org/2000/svg">
<path fill-rule="evenodd" clip-rule="evenodd" d="M40 43.769L39.9979 43.7644V42.7164H39.519L20 0L0.480988 42.7164H0L-1.14441e-05 43.769L0 197.938H39.9979V43.769H40ZM24.5446 17.6865H14.9792L4.50418 40.6105H35.0197L24.5446 17.6865ZM11 52.5772H7V181.856H11V52.5772ZM18 52.5772H22V181.856H18V52.5772ZM33 52.5772H29V181.856H33V52.5772ZM0.540506 201.031C0.18886 202.21 0 203.459 0 204.752V227C0 234.179 5.8203 240 13 240H27C34.1797 240 40 234.179 40 227V204.752C40 203.459 39.8111 202.21 39.4595 201.031H0.540506Z" fill="#181818"/>
</svg>
