<svg width="69" height="45" viewBox="0 0 69 45" fill="none" xmlns="http://www.w3.org/2000/svg">
<rect x="2" y="2" width="65" height="41" stroke="#3A728E" stroke-width="4"/>
<path fill-rule="evenodd" clip-rule="evenodd" d="M27.6424 14.6836C27.6424 17.7746 25.7483 20.4232 23.0575 21.5321C25.2252 22.0214 27.2302 23.1151 28.8266 24.7114C31.0482 26.9331 32.2964 29.9463 32.2964 33.0883H21.2017L23.8119 25.5482H23.8233L23.8161 25.5358L23.8232 25.5153H23.8043L21.6755 21.8382H19.3535L17.2247 25.5153H17.2056L17.2127 25.5359L17.2057 25.5482H17.217L19.8272 33.0883L8.60303 33.0883C8.60303 29.9463 9.85116 26.9331 12.0728 24.7114C13.6039 23.1803 15.511 22.1116 17.577 21.5951C14.8026 20.5262 12.8341 17.8348 12.8341 14.6836C12.8341 10.5944 16.149 7.27942 20.2382 7.27942C24.3274 7.27942 27.6424 10.5944 27.6424 14.6836Z" fill="#3A728E"/>
<path fill-rule="evenodd" clip-rule="evenodd" d="M48.5779 26.6625L57.7369 10.7988L53.9345 8.60353L44.7756 24.4673L44.7752 24.467L44.7352 24.5362L44.6423 25.545L44.3748 28.4494L44.2541 29.7595L45.3283 28.9999L47.7098 27.316L48.6089 26.6804L48.5779 26.6625ZM46.7563 26.7655L45.4489 27.6899L45.5958 26.0955L46.7563 26.7655Z" fill="#3A728E"/>
</svg>
