<svg width="484" height="374" viewBox="0 0 484 374" fill="none" xmlns="http://www.w3.org/2000/svg">
<path fill-rule="evenodd" clip-rule="evenodd" d="M0.0205078 228.312C0.0205078 216.714 9.42253 207.312 21.0205 207.312H72.8382C84.4362 207.312 93.8382 216.714 93.8382 228.312V352.544C93.8382 364.142 84.4362 373.544 72.8382 373.544H21.0205C9.42254 373.544 0.0205078 364.142 0.0205078 352.544V228.312ZM4.28805 232.395C4.28805 220.797 13.6901 211.395 25.2881 211.395H41.2253C41.284 211.63 41.3531 211.862 41.4324 212.089C41.7314 212.947 42.1697 213.726 42.7221 214.383C43.2746 215.039 43.9306 215.56 44.6524 215.915C45.3743 216.271 46.148 216.454 46.9293 216.454C47.7107 216.454 48.4844 216.271 49.2062 215.915C49.9281 215.56 50.584 215.039 51.1365 214.383C51.689 213.726 52.1273 212.947 52.4263 212.089C52.5056 211.862 52.5746 211.63 52.6334 211.395H68.5707C80.1687 211.395 89.5707 220.797 89.5707 232.395V348.462C89.5707 360.06 80.1687 369.462 68.5707 369.462H25.288C13.6901 369.462 4.28805 360.06 4.28805 348.462V232.395Z" fill="white"/>
<path fill-rule="evenodd" clip-rule="evenodd" d="M214.178 0H483.306V179.614H393.597V232.557H465.04V237.762H282.42C283.94 236.308 285.154 234.538 285.958 232.557H303.888V179.614H287.053V172.464H474.665V7.15037H222.819V106.762H214.178V0ZM390.716 179.614V232.557H306.768V179.614H390.716Z" fill="white"/>
<path fill-rule="evenodd" clip-rule="evenodd" d="M49.7598 115.254C41.4755 115.254 34.7598 121.97 34.7598 130.254V197.466H48.9989V120.254H254.503V244.817H103.154V249.818H253.31C261.594 249.818 268.31 243.102 268.31 234.818V130.254C268.31 121.97 261.594 115.254 253.31 115.254H49.7598ZM256.251 182.536C256.251 185.464 258.625 187.838 261.553 187.838C264.482 187.838 266.855 185.464 266.855 182.536C266.855 179.608 264.482 177.234 261.553 177.234C258.625 177.234 256.251 179.608 256.251 182.536ZM266.069 182.536C266.069 185.03 264.047 187.051 261.553 187.051C259.059 187.051 257.038 185.03 257.038 182.536C257.038 180.042 259.059 178.02 261.553 178.02C264.047 178.02 266.069 180.042 266.069 182.536Z" fill="white"/>
</svg>
