<svg id="Capa_1" enable-background="new 0 0 512 512" height="512" viewBox="0 0 512 512" width="512" xmlns="http://www.w3.org/2000/svg"><g><path d="m459.5 414.5 15 90c16.569 0 30-13.431 30-30v-30z" fill="#ff336d"/><path d="m444.5 444.5v30c0 16.569 13.431 30 30 30v-90z" fill="#ff545a"/><path d="m492.727 37.5-3.513-17.904c-1.354-6.893-7.424-12.096-14.714-12.096s-13.36 5.203-14.713 12.096l-3.514 17.904 18.227 20z" fill="#4e4cd3"/><path d="m492.727 37.5h-18.227l-15 90 45-30z" fill="#ffd06a"/><path d="m456.273 37.5-11.773 60 30 30v-90z" fill="#ffe7b5"/><path d="m504.5 414.5-45-30 15 60h30z" fill="#c4f3ff"/><path d="m444.5 414.5v30h30v-60z" fill="#fff"/><path d="m384.5 504.5h-90l-60-248.5 60-248.5h90c16.569 0 30 13.431 30 30v437c0 16.569-13.431 30-30 30z" fill="#4e4cd3"/><path d="m384.5 474.5h-30l-60-218.5 60-218.5h30z" fill="#c4f3ff"/><path d="m384.5 157.5h-60v60h60c16.569 0 30-13.431 30-30s-13.431-30-30-30z" fill="#05ff77"/><path d="m354.5 474.5h-30l-60-218.5 60-218.5h30z" fill="#fff"/><path d="m52.5 504.5 75-248.5-75-248.5c-16.569 0-30 13.431-30 30v437c0 16.569 13.431 30 30 30z" fill="#666ddc"/><path d="m354.5 67.5h-60v60h60c16.569 0 30-13.431 30-30s-13.431-30-30-30z" fill="#ff545a"/><path d="m294.5 7.5h-30v497h30c16.569 0 30-13.431 30-30v-437c0-16.569-13.431-30-30-30z" fill="#666ddc"/><path d="m294.5 474.5v-437c0-16.569-13.431-30-30-30h-212v497h212c16.569 0 30-13.431 30-30z" fill="#7d8fe5"/><path d="m454.5 256 20-128.5c0-16.569 13.431-30 30-30v317h-30z" fill="#ff9733"/><path d="m444.5 97.5c16.569 0 30 13.431 30 30v287h-30z" fill="#ffb44e"/><path d="m384.5 0h-332c-20.678 0-37.5 16.822-37.5 37.5v22.5h-7.5c-4.143 0-7.5 3.358-7.5 7.5s3.357 7.5 7.5 7.5h7.5v47.833h-7.5c-4.143 0-7.5 3.358-7.5 7.5s3.357 7.5 7.5 7.5h7.5v47.833h-7.5c-4.143 0-7.5 3.358-7.5 7.5s3.357 7.5 7.5 7.5h7.5v47.834h-7.5c-4.143 0-7.5 3.358-7.5 7.5s3.357 7.5 7.5 7.5h45c4.143 0 7.5-3.358 7.5-7.5s-3.357-7.5-7.5-7.5h-22.5v-47.833h22.5c4.143 0 7.5-3.358 7.5-7.5s-3.357-7.5-7.5-7.5h-22.5v-47.833h22.5c4.143 0 7.5-3.358 7.5-7.5s-3.357-7.5-7.5-7.5h-22.5v-47.834h22.5c4.143 0 7.5-3.358 7.5-7.5s-3.357-7.5-7.5-7.5h-22.5v-22.5c0-12.407 10.094-22.5 22.5-22.5h242c12.406 0 22.5 10.093 22.5 22.5v437c0 12.407-10.094 22.5-22.5 22.5h-242c-12.406 0-22.5-10.093-22.5-22.5v-22.5h22.5c4.143 0 7.5-3.358 7.5-7.5s-3.357-7.5-7.5-7.5h-22.5v-47.833h22.5c4.143 0 7.5-3.358 7.5-7.5s-3.357-7.5-7.5-7.5h-22.5v-47.833h22.5c4.143 0 7.5-3.358 7.5-7.5s-3.357-7.5-7.5-7.5h-22.5v-25.334c0-4.142-3.357-7.5-7.5-7.5s-7.5 3.358-7.5 7.5v25.333h-7.5c-4.143 0-7.5 3.358-7.5 7.5s3.357 7.5 7.5 7.5h7.5v47.833h-7.5c-4.143 0-7.5 3.358-7.5 7.5s3.357 7.5 7.5 7.5h7.5v47.834h-7.5c-4.143 0-7.5 3.358-7.5 7.5s3.357 7.5 7.5 7.5h7.5v22.5c0 20.678 16.822 37.5 37.5 37.5h332c20.678 0 37.5-16.822 37.5-37.5v-437c0-20.678-16.822-37.5-37.5-37.5zm0 15c12.406 0 22.5 10.093 22.5 22.5v120.02c-4.363-3.282-9.461-5.637-15-6.766v-113.254c0-4.142-3.357-7.5-7.5-7.5h-53.255c-1.129-5.539-3.483-10.637-6.766-15zm-52.5 30h15v15h-15zm30 105v-15.753c5.541-1.129 10.636-3.49 15-6.775v22.528zm15-82.48c-4.363-3.282-9.461-5.637-15-6.766v-15.754h15zm-45 7.48h22.5c12.406 0 22.5 10.093 22.5 22.5s-10.094 22.5-22.5 22.5c-4.143 0-7.5 3.358-7.5 7.5v339.5h-15zm30 90h22.5c12.406 0 22.5 10.093 22.5 22.5s-10.094 22.5-22.5 22.5c-4.143 0-7.5 3.358-7.5 7.5v249.5h-15zm22.5 332h-60.021c3.283-4.363 5.637-9.461 6.766-15h53.255c4.143 0 7.5-3.358 7.5-7.5v-250.253c5.541-1.129 10.636-3.49 15-6.775v257.028c0 12.407-10.094 22.5-22.5 22.5z"/><path d="m511.859 96.056-15.286-77.905c-2.065-10.517-11.348-18.151-22.073-18.151-10.726 0-20.009 7.634-22.072 18.152l-15.287 77.904c-.094.476-.141.959-.141 1.444v377c0 20.678 16.822 37.5 37.5 37.5s37.5-16.822 37.5-37.5v-377c0-.485-.047-.968-.141-1.444zm-44.859 31.444v279.5h-15v-300.71c8.729 3.096 15 11.433 15 21.21zm30 294.5v15h-45v-15zm-15-15v-279.5c0-9.777 6.271-18.114 15-21.21v300.71zm-7.5-301.974c-5.133-6.835-12.545-11.858-21.097-13.949l9.042-46.077h24.111l9.041 46.077c-8.552 2.09-15.964 7.114-21.097 13.949zm0-90.026c3.574 0 6.667 2.541 7.354 6.04l1.758 8.96h-18.224l1.758-8.96c.688-3.5 3.78-6.04 7.354-6.04zm0 482c-12.406 0-22.5-10.093-22.5-22.5v-22.5h45v22.5c0 12.407-10.094 22.5-22.5 22.5z"/></g></svg>