<svg width="433" height="331" viewBox="0 0 433 331" fill="none" xmlns="http://www.w3.org/2000/svg">
<path d="M32.81 241.591C28.581 248.145 19.6185 250.154 12.8307 246.073C6.04288 241.989 3.96101 233.334 8.19006 226.78C12.4191 220.229 21.3817 218.217 28.1694 222.301C34.9572 226.385 37.0388 235.037 32.81 241.591" fill="#F7CC7F"/>
<path d="M32.8854 241.827C28.8023 248.147 20.1487 250.084 13.5951 246.148C7.04124 242.209 5.03135 233.866 9.11465 227.546C13.1977 221.226 21.8513 219.288 28.4049 223.225C34.9588 227.164 36.9687 235.506 32.8854 241.827Z" fill="#F7CC7F"/>
<path d="M26.8162 224.003C31.9716 227.506 33.5469 234.905 30.335 240.529C27.1231 246.156 20.3395 247.874 15.184 244.368C10.0283 240.865 8.45305 233.466 11.665 227.842C14.8771 222.218 21.6605 220.498 26.8162 224.003" fill="white"/>
<path d="M29.4142 240.241C26.3517 245.155 19.8616 246.663 14.9462 243.6C10.0309 240.539 8.52364 234.048 11.5858 229.134C14.6483 224.217 21.1384 222.709 26.0538 225.772C30.9691 228.836 32.4764 235.324 29.4142 240.241" fill="white"/>
<path d="M15.5102 241.477L15.04 243.239C14.9628 243.529 15.0008 243.911 15.1247 244.093C15.2487 244.272 15.4124 244.185 15.4898 243.896L15.96 242.133C16.0373 241.843 15.9992 241.461 15.8751 241.279C15.7512 241.1 15.5875 241.187 15.5102 241.477" fill="#F7CC7F"/>
<path d="M28.0937 238.435C27.9129 238.683 28.0017 239.01 28.2915 239.166L30.054 240.107C30.3436 240.261 30.7261 240.184 30.9063 239.936C31.0871 239.69 30.9983 239.36 30.7085 239.207L28.9459 238.266C28.6561 238.112 28.2739 238.187 28.0937 238.435" fill="#F7CC7F"/>
<path d="M26.0204 224.478L25.0801 226.24C24.9255 226.53 25.0015 226.912 25.2495 227.094C25.4976 227.273 25.825 227.183 25.9796 226.894L26.9201 225.131C27.0744 224.841 26.9984 224.459 26.7505 224.28C26.5025 224.099 26.1749 224.188 26.0204 224.478" fill="#F7CC7F"/>
<path d="M11.0622 228.311C10.9421 228.435 11.0012 228.599 11.1943 228.677L12.3693 229.146C12.5624 229.224 12.8174 229.185 12.9377 229.061C13.058 228.937 12.9987 228.774 12.8056 228.697L11.6306 228.226C11.4375 228.149 11.1827 228.187 11.0622 228.311Z" fill="#F7CC7F"/>
<path d="M11.2053 222.022L10.0482 220.069C9.95335 219.908 10.0027 219.697 10.1588 219.601L12.3404 218.236C12.4962 218.137 12.7 218.189 12.7949 218.35L13.9516 220.304C14.0468 220.465 13.9972 220.675 13.8411 220.772L11.66 222.136C11.5039 222.235 11.3002 222.183 11.2053 222.022Z" fill="#F7CC7F"/>
<path d="M5.7093 231.363L3.56967 231.187C3.39418 231.173 3.2389 231.291 3.22309 231.453L3.00134 233.693C2.9853 233.852 3.11478 233.994 3.29051 234.009L5.42991 234.185C5.60563 234.2 5.76114 234.081 5.77671 233.92L5.99869 231.682C6.0145 231.52 5.88502 231.378 5.7093 231.363" fill="#F7CC7F"/>
<path d="M6.09526 226.046C5.99461 226.186 5.78146 226.228 5.61991 226.14L4.16264 225.348C4.00109 225.257 3.95154 225.072 4.05193 224.93L5.90481 222.329C6.00546 222.187 6.21861 222.144 6.38016 222.232L7.83743 223.027C7.99898 223.115 8.04853 223.302 7.94788 223.442L6.09526 226.046" fill="#F7CC7F"/>
<path d="M6.82339 226.487C5.65005 227.46 3.94108 227.625 2.57574 226.776C0.869765 225.713 0.348334 223.469 1.41137 221.761C2.47415 220.055 4.71899 219.535 6.42497 220.598C7.7903 221.447 8.39615 223.056 8.03907 224.54L8.80154 225.013C9.38871 223.108 8.65089 220.969 6.88091 219.866C4.77402 218.554 1.99231 219.199 0.679522 221.305C-0.63277 223.412 0.0134121 226.196 2.12005 227.508C3.89003 228.608 6.13562 228.33 7.58736 226.962L6.82339 226.487" fill="#F7CC7F"/>
<path d="M9.1263 226.551C9.40301 226.198 9.69457 225.855 10 225.523L7.30956 224.186L6 225.863L8.65676 227.186C8.80634 226.973 8.96319 226.762 9.1263 226.551Z" fill="#F7CC7F"/>
<path d="M21.5288 233.337C21.9975 233.631 22.1406 234.247 21.8486 234.713C21.5565 235.182 20.94 235.327 20.4712 235.035C20.0025 234.741 19.8594 234.125 20.1514 233.659C20.4435 233.19 21.06 233.045 21.5288 233.337Z" fill="#FAE0B2"/>
<path d="M17 226.186L20.951 233.597C21.0506 233.784 20.9935 234.022 20.8236 234.132C20.654 234.241 20.4354 234.18 20.3361 233.993C20.3204 233.964 20.4701 234.309 17 226.186Z" fill="#FAE0B2"/>
<path d="M29 233.186L20.4538 234.182C20.2385 234.209 20.0373 234.094 20.0046 233.93C19.9718 233.765 20.1196 233.611 20.3349 233.587C20.3689 233.583 19.9842 233.602 29 233.186Z" fill="#FAE0B2"/>
<path d="M20.7643 233.261C20.9986 233.41 21.0703 233.718 20.9246 233.951C20.7783 234.185 20.47 234.256 20.2358 234.111C20.0012 233.963 19.9298 233.658 20.0755 233.421C20.2218 233.187 20.53 233.116 20.7643 233.261Z" fill="#FAE0B2"/>
<path d="M386.126 281.391C379.015 284.139 375.475 292.134 378.222 299.246C380.97 306.358 388.965 309.899 396.076 307.151C403.19 304.404 406.731 296.411 403.983 289.297C401.236 282.184 393.244 278.644 386.126 281.391V281.391ZM388.072 286.426C383.739 288.099 381.581 292.968 383.258 297.301C384.931 301.634 389.8 303.793 394.133 302.119C398.467 300.444 400.624 295.575 398.951 291.241C397.274 286.908 392.406 284.75 388.072 286.426ZM405.877 281.297C406.162 281.527 406.555 281.576 406.888 281.421C408.516 280.666 411.73 280.826 413.352 281.1L416.429 289.069C415.413 290.361 413.14 292.638 411.427 293.176C411.076 293.286 410.819 293.584 410.761 293.948L409.727 300.58C409.672 300.941 409.823 301.305 410.126 301.516C411.591 302.551 413.061 305.412 413.633 306.954L408.271 313.604C406.646 313.368 403.535 312.542 402.213 311.324C401.944 311.077 401.556 311.004 401.214 311.135L394.95 313.555C394.612 313.686 394.372 314.002 394.339 314.365C394.179 316.155 392.433 318.858 391.386 320.127L382.946 318.807C382.335 317.28 381.497 314.174 381.89 312.42C381.969 312.064 381.839 311.691 381.554 311.46L376.328 307.246C376.044 307.015 375.65 306.969 375.317 307.122C373.689 307.876 370.476 307.716 368.854 307.442L365.776 299.474C366.793 298.181 369.063 295.904 370.778 295.366C371.126 295.257 371.387 294.959 371.441 294.597L372.479 287.963C372.537 287.602 372.382 287.238 372.083 287.027C370.612 285.994 369.147 283.13 368.572 281.588L373.932 274.939C375.56 275.174 378.667 276.001 379.993 277.218C380.262 277.466 380.649 277.538 380.991 277.407L387.252 274.99C387.594 274.856 387.833 274.541 387.866 274.177C388.03 272.388 389.773 269.684 390.82 268.416L399.259 269.735C399.871 271.263 400.709 274.369 400.316 276.122C400.237 276.481 400.367 276.852 400.651 277.082L405.877 281.297" fill="#9BC1F9"/>
<path d="M430.603 239.659C423.178 237.39 415.322 241.568 413.055 248.993C410.785 256.415 414.961 264.272 422.386 266.542C429.807 268.811 437.667 264.633 439.934 257.21C442.205 249.788 438.028 241.929 430.603 239.659V239.659ZM428.999 244.912C424.474 243.529 419.687 246.075 418.303 250.598C416.92 255.12 419.466 259.907 423.99 261.289C428.512 262.674 433.302 260.128 434.683 255.605C436.066 251.083 433.52 246.294 428.999 244.912V244.912ZM446.482 251.995C446.567 252.356 446.849 252.642 447.21 252.727C448.989 253.146 451.464 255.295 452.591 256.534L450.052 264.849C448.424 265.244 445.17 265.642 443.462 264.997C443.114 264.863 442.718 264.941 442.445 265.196L437.446 269.856C437.174 270.111 437.07 270.499 437.177 270.856C437.703 272.609 437.079 275.824 436.57 277.42L428.099 279.374C426.94 278.164 424.971 275.547 424.676 273.744C424.614 273.375 424.351 273.072 423.994 272.963L417.459 270.965C417.102 270.856 416.715 270.96 416.459 271.229C415.205 272.56 412.106 273.63 410.469 273.986L404.542 267.628C405.013 266.02 406.293 263.006 407.709 261.847C407.998 261.612 408.128 261.231 408.043 260.867L406.507 254.208C406.423 253.845 406.137 253.561 405.776 253.474C403.996 253.054 401.525 250.906 400.395 249.669L402.938 241.354C404.565 240.956 407.816 240.559 409.528 241.206C409.875 241.337 410.271 241.26 410.541 241.007L415.543 236.344C415.812 236.09 415.919 235.702 415.812 235.345C415.286 233.595 415.906 230.379 416.416 228.784L424.89 226.827C426.046 228.039 428.018 230.656 428.31 232.46C428.372 232.828 428.635 233.132 428.992 233.241L435.53 235.238C435.888 235.348 436.274 235.244 436.531 234.972C437.781 233.641 440.88 232.574 442.516 232.215L448.444 238.575C447.976 240.183 446.693 243.197 445.277 244.354C444.988 244.591 444.861 244.97 444.943 245.334L446.482 251.995" fill="#F7A491"/>
<path d="M336.945 214.012C330.173 226.9 335.132 242.841 348.021 249.614C360.909 256.386 376.849 251.43 383.621 238.539C390.397 225.651 385.437 209.71 372.549 202.937C359.66 196.165 343.721 201.121 336.945 214.012ZM346.065 218.803C341.937 226.655 344.958 236.367 352.81 240.494C360.665 244.621 370.378 241.6 374.505 233.748C378.632 225.893 375.611 216.182 367.756 212.057C359.905 207.93 350.192 210.949 346.065 218.803V218.803ZM365.219 189.052C365.916 189.026 366.54 188.601 366.823 187.963C368.222 184.828 373.041 181.021 375.719 179.375L390.158 186.962C390.319 190.1 389.916 196.23 388.127 199.157C387.763 199.753 387.769 200.507 388.142 201.099L394.986 211.938C395.362 212.528 396.039 212.857 396.736 212.785C400.148 212.426 405.856 214.698 408.617 216.192L409.267 232.489C406.631 234.196 401.12 236.915 397.691 236.83C396.993 236.81 396.343 237.193 396.018 237.812L390.054 249.16C389.729 249.779 389.782 250.53 390.194 251.098C392.21 253.872 393.095 259.951 393.182 263.091L379.396 271.801C376.595 270.373 371.487 266.959 369.847 263.947C369.513 263.334 368.86 262.96 368.162 262.99L355.351 263.499C354.653 263.525 354.03 263.949 353.743 264.587C352.348 267.723 347.526 271.53 344.851 273.176L330.412 265.589C330.251 262.451 330.653 256.321 332.442 253.394C332.806 252.798 332.8 252.043 332.427 251.452L325.581 240.612C325.208 240.021 324.531 239.694 323.833 239.766C320.421 240.125 314.714 237.853 311.952 236.359L311.302 220.062C313.938 218.355 319.446 215.636 322.879 215.721C323.577 215.741 324.227 215.357 324.552 214.739L330.516 203.39C330.841 202.772 330.787 202.02 330.376 201.453C328.36 198.679 327.471 192.6 327.385 189.46L341.174 180.749C343.971 182.178 349.079 185.589 350.72 188.604C351.057 189.217 351.71 189.59 352.408 189.562L365.219 189.052" fill="#F7CC7F"/>
<path d="M33.4029 312.186C33.4029 312.186 32.8737 318.193 31.5127 319.297C30.1517 320.401 28.3368 324.481 29.2442 326.687C29.5278 327.376 30.0948 327.776 30.7407 327.997C32.6529 328.654 34.6869 327.548 35.501 325.505C35.9558 324.362 36.3548 322.841 36.435 320.925C36.6392 316.044 38 313.562 38 313.562L33.4029 312.186" fill="#F7A491"/>
<path d="M55.8587 315.186C55.8587 315.186 56.3239 320.932 55.9464 322.799C55.744 323.8 54.6176 325.858 55.1344 326.799C55.6509 327.74 56.2416 327.977 56.2416 327.977L69.6316 328.186C70.3611 328.197 69.8792 327.74 69.2909 327.319C68.3283 326.629 67.5517 326.173 64.4765 324.722C64.2761 324.628 63.5459 324.175 63.2826 324.018C62.615 323.62 61.9444 322.995 61.3672 322.369C60.4059 321.325 60.3219 316.265 60.3219 316.265L55.8587 315.186" fill="#F7A491"/>
<path d="M66.0962 234.697C66.0962 234.697 67.6909 244.489 66.6437 250.911C65.5968 257.331 60.571 316.846 60.571 316.846L54.9861 317.186C54.9861 317.186 53.8156 292.325 54.0251 288.867C54.2344 285.41 55.8916 279.626 55.8916 279.626L55.336 259.554L62.3834 233.186L66.0962 234.697" fill="#355389"/>
<path d="M48.9632 231.428C48.9632 231.428 44.4731 238.658 43.4039 244.641C42.3351 250.624 44.1887 269.008 42.1322 276.848C41.0189 281.093 36.7994 287.646 36.1578 293.129C35.5164 298.614 33 312.977 33 312.977L38.6998 314.186L51.9469 278.312L62.3382 245.886L65 229.186L48.9632 231.428Z" fill="#466EB6"/>
<path d="M36 324.715C32.9787 325.262 30.9685 323.504 29.9226 322.186C29.1546 323.678 28.684 325.54 29.2487 326.767C29.7463 327.848 31.1007 328.142 32.2456 328.184C33.4558 328.23 34.5875 327.599 35.188 326.549C35.4685 326.059 35.7578 325.448 36 324.715Z" fill="#3C8F7C"/>
<path d="M62.794 324.447C59.4728 325.239 57.018 324.7 55.6446 324.186C55.2903 325.117 54.8209 326.287 55.0699 326.963C55.3749 327.787 55.8089 328.042 56.1924 328.053C59.2259 328.127 67.3043 328.159 69.6172 328.186C69.9402 328.19 70.1185 327.841 69.9107 327.611C69.3371 326.973 63.0414 324.587 62.794 324.447Z" fill="#3C8F7C"/>
<path d="M66.6619 180.512C65.6281 173.8 59.5308 168.971 53.1542 172.228C51.72 172.963 49.7783 174.448 48.7879 175.715C46.0639 179.197 45.4036 183.513 42.5162 186.862C40.0266 189.749 33.3815 189.205 30.2782 191.427C27.175 193.647 25 197.63 25 202.391C25 207.718 26.2072 213.374 30.3506 216.74C34.4937 220.108 40.382 220.947 45.5337 219.52C50.6855 218.091 55.1058 214.595 58.2872 210.315C61.4686 206.032 63.7182 201.339 65.3033 196.254C67.0726 190.574 67.3302 184.85 66.6619 180.512" fill="#184655"/>
<path d="M44 189.493C44 189.493 35.9023 175.555 33.9325 172.591C31.9624 169.63 26.8306 157.857 26.6468 157.392C26.4635 156.929 30.1812 151.357 29.3513 151.166C28.5215 150.975 27.6032 154.103 26.7179 153.731C25.8325 153.355 23.2463 145.824 22.7419 146.2C21.7978 146.897 24.1357 150.871 23.6325 151.12C23.1293 151.372 21.6049 146.749 20.6166 146.885C19.6283 147.021 22.496 151.12 22.2198 151.483C21.9434 151.844 18.9662 147.982 18.4274 148.805C18.1351 149.253 21.165 152.178 20.583 152.452C20.0012 152.726 17.3057 150.839 17.0205 151.382C16.735 151.927 19.5131 152.672 20.3439 154.14C21.1745 155.607 22.5892 156.242 23.1767 158.959C23.7643 161.678 24.6424 171.512 27.6517 176.417C30.661 181.326 37.2793 192.186 37.2793 192.186L44 189.493" fill="#F79C8D"/>
<path d="M66.0587 206.186L60 209.791C60 209.791 71.4987 225.47 72.1603 226.186L77 221.751L66.0587 206.186Z" fill="#F48C7F"/>
<path d="M60.2843 196.186C60.2843 196.186 65.0545 197.139 71 212.594L62.8254 217.186L57 207.691L60.2843 196.186Z" fill="#F47458"/>
<path d="M75.9812 198.212C75.9812 198.212 74.8845 197.901 73.0741 199.442C70.8381 201.346 70.7114 215.964 71.2991 221.075C71.8872 226.186 71.8872 226.186 71.8872 226.186C71.8872 226.186 76.4438 224.602 77.5168 219.113C78.5898 213.626 79 199.356 79 199.356L75.9812 198.212Z" fill="#F48C7F"/>
<path d="M52.7714 195.207C52.7714 195.207 46.8111 194.815 44.4532 197.459C42.0955 200.1 49.684 221.003 50.1125 224.368C50.5413 227.731 46.5948 234.435 46.5948 234.435C46.5948 234.435 62.9983 242.337 67 239.616C67 239.616 66.3584 212.663 65.9299 210.26C65.5011 207.859 61.9282 198.088 61.0706 197.129C60.2132 196.166 52.7714 195.207 52.7714 195.207" fill="#F7CC7F"/>
<path d="M55.0361 187.317C55.0361 187.317 55.0072 187.49 54.9558 187.787C54.7082 189.204 53.7551 193.905 53.1113 195.197C52.3332 196.761 55.7749 201.743 59.0875 201.135C60.0736 200.953 58.2539 196.556 58.3416 196.09C58.509 195.2 58.7359 193.984 58.968 192.736C59.0992 192.032 59.2319 191.319 59.3566 190.648C59.7107 188.745 60 187.186 60 187.186L55.0361 187.317" fill="#F7A491"/>
<path d="M54.174 187.837C54.2334 187.515 54.2669 187.328 54.2669 187.328L60 187.186C60 187.186 59.6659 188.875 59.2569 190.937C59.1138 191.661 58.9614 192.429 58.8107 193.186C57.9258 193.057 57.0008 192.629 56.0735 191.818C55.0625 190.937 54.3998 189.878 54 188.746C54.0708 188.387 54.1296 188.075 54.174 187.837" fill="#F47458"/>
<path d="M58.3002 174.202C58.3002 174.202 56.0214 173.888 54.5928 176.085C53.1645 178.282 51.6249 185.074 55.1733 188.767C58.7217 192.46 62.2278 188.28 62.7477 183.848C63.2676 179.416 63.4698 174.041 58.3002 174.202Z" fill="#F7A491"/>
<path d="M64.5962 183.79C64.0306 184.843 63.0816 185.426 62.476 185.092C61.8707 184.758 61.8384 183.634 62.4037 182.582C62.9693 181.53 63.9183 180.946 64.5239 181.28C65.1292 181.615 65.1618 182.738 64.5962 183.79Z" fill="#F7A491"/>
<path d="M58 174.251C58 174.251 54.4352 180.369 51.8852 180.652C49.3349 180.936 49 184.186 49 184.186C49 184.186 49.9119 176.695 52.4363 175.251C54.9613 173.805 58 174.251 58 174.251Z" fill="#184655"/>
<path d="M52.9609 181.926C53.1133 183.021 52.8067 184.025 52.276 184.169C51.7453 184.312 51.1915 183.541 51.0391 182.446C50.8868 181.352 51.1932 180.347 51.7239 180.203C52.2546 180.06 52.8084 180.831 52.9609 181.926Z" fill="#F7A491"/>
<path d="M40.9832 185.186C40.9832 185.186 49.4157 194.324 50.6692 198.003C51.923 201.686 49.4471 206.952 46.028 207.184C42.6089 207.413 35 190.968 35 190.968L40.9832 185.186" fill="#FAE0B2"/>
<path d="M83.9716 199.186H78.0282C74.699 199.186 72 202.021 72 205.518V295.186H90V205.518C90 202.021 87.301 199.186 83.9716 199.186Z" fill="#466EB6"/>
<path d="M85 295.186V199.186H77V295.186H85Z" fill="#86B1F2"/>
<path d="M80.434 329.186C81.6478 329.186 82.6994 328.275 82.9657 326.991L85 317.186H76L77.8943 326.951C78.1469 328.255 79.2064 329.186 80.434 329.186Z" fill="#B75742"/>
<path d="M76.3496 317.186H85.3466L90 295.186H72L76.3496 317.186Z" fill="#FAE0B2"/>
<path d="M86.4851 199.186H75.5149C73.5735 199.186 72 200.756 72 202.694V215.186H90V202.694C90 200.756 88.4262 199.186 86.4851 199.186Z" fill="#F47458"/>
<path d="M70.168 220.186H90.8317C90.9248 220.186 91 220.095 91 219.982V215.391C91 215.278 90.9248 215.186 90.8317 215.186H70.168C70.0752 215.186 70 215.278 70 215.391V219.982C70 220.095 70.0752 220.186 70.168 220.186" fill="#86B1F2"/>
<path d="M199.575 54.7506L196.51 55.4297L194.451 51.9851L189.802 52.5815L187.678 50.1861L186 50.9618L188.84 54.1659L193.247 53.6024L195.389 57.1861L200 56.1629L199.575 54.7506" fill="#50BFA5"/>
<path d="M387.963 121.598L383.12 122.454L380.478 118.331L381.475 117.692L383.69 121.149L388.677 120.267L390.932 125.483L394.167 124.49L394.421 125.652L390.261 126.928L387.963 121.598Z" fill="#50BFA5"/>
<path d="M18.231 266.155L17.3199 261.683L21.3552 259.186L22 260.102L18.6163 262.197L19.5546 266.802L14.4357 268.953L15.46 271.937L14.316 272.186L13 268.354L18.231 266.155" fill="#50BFA5"/>
<path d="M235.639 54.8233L233.889 50.8514L229.492 49.9837C228.992 49.8853 228.827 49.2786 229.213 48.9558L232.605 46.1308L232.104 41.8452C232.047 41.3575 232.598 41.0187 233.036 41.2728L236.883 43.4981L240.97 41.7169C241.437 41.5155 241.943 41.9115 241.826 42.3923L240.811 46.5909L243.837 49.7777C244.183 50.1394 243.945 50.7255 243.435 50.7667L238.961 51.1375L236.745 54.8875C236.492 55.3133 235.839 55.2766 235.639 54.8233" fill="#F7CC7F"/>
<path d="M362.749 40.6082L366.385 40.503L368.005 36.2802L373.066 36.9586L373.792 34.04L374.54 34.292L373.662 37.8336L368.517 37.1441L366.933 41.2755L362.774 41.3946L362.749 40.6082" fill="#F48C7F"/>
<path d="M69 135.449L68.2015 139.186L64 137.811L64.3604 136.643L67.3196 137.61L67.8376 135.186L69 135.449" fill="#50BFA5"/>
<path d="M428.458 327.19H14.7163C13.869 327.19 13.1292 327.831 13.0748 328.674C13.0144 329.601 13.7483 330.372 14.6616 330.372H428.458C429.338 330.372 430.05 329.659 430.05 328.781C430.05 327.903 429.338 327.19 428.458 327.19Z" fill="#184655"/>
<path d="M314.329 42.0241L310.39 43.0039L308.461 38.2111L304.476 39.8225L302.755 35.0055L299.092 35.1434L297.537 31.5289L295.234 32.187L295 31.0595L298.065 30.1861L299.69 33.9603L303.404 33.82L305.029 38.3708L308.976 36.7765L310.95 41.6781L314.769 40.7273L317 44.5281L316.189 45.1861L314.329 42.0241" fill="#F7CC7F"/>
<path d="M6.14784 178.186L8.05752 178.706L8.02769 181.17L10.1148 182.272L9.89481 185.136L12.47 185.564L12.3551 188.719L14.701 189.438L15 192.104L14.3884 192.186L14.1395 189.967L11.7198 189.224L11.8321 186.141L9.23215 185.71L9.46488 182.678L7.40626 181.591L7.43478 179.232L6 178.843L6.14784 178.186" fill="#F47458"/>
<path d="M346.605 330.51H118.602C107.676 330.51 98.8184 321.652 98.8184 310.725V146.083C98.8184 135.155 107.676 126.299 118.602 126.299H346.605C357.527 126.299 366.386 135.155 366.386 146.083V310.725C366.386 321.652 357.527 330.51 346.605 330.51" fill="#466EB6"/>
<path d="M351.645 324.358H115.107C109.349 324.358 104.681 319.69 104.681 313.931V141.52C104.681 135.761 109.349 131.092 115.107 131.092H351.645C357.405 131.092 362.074 135.761 362.074 141.52V313.931C362.074 319.69 357.405 324.358 351.645 324.358Z" fill="#184655"/>
<path d="M98.8179 318.209V325.139C98.8179 328.105 105.193 330.51 113.058 330.51H386.507C394.37 330.51 400.746 328.105 400.746 325.139V318.209H98.8179Z" fill="#355389"/>
<path d="M344.991 303.611H122.424V137.777H344.991V303.611Z" fill="#96D9C9"/>
<path d="M333.366 295.762H130.032V150.921H333.366V295.762Z" fill="#F47458"/>
<path d="M320.323 295.762H129.491V139.991H320.323V295.762Z" fill="#86B1F2"/>
<path d="M315 160.186H133V147.186H315V160.186Z" fill="#9BC1F9"/>
<path d="M288 281.186H130V38.1861H288V281.186Z" fill="#FAE0B2"/>
<path d="M281 157.186H134V144.186H281V157.186" fill="#F48C7F"/>
<path d="M204 169.186H142V171.186H204V169.186" fill="#96D9C9"/>
<path d="M218 169.186V171.186H276V169.186H218Z" fill="#96D9C9"/>
<path d="M204 175.186H142V178.186H204V175.186" fill="#96D9C9"/>
<path d="M218 175.186V178.186H276V175.186H218Z" fill="#96D9C9"/>
<path d="M204 182.186H142V185.186H204V182.186" fill="#96D9C9"/>
<path d="M218 182.186V185.186H276V182.186H218Z" fill="#96D9C9"/>
<path d="M204 189.186H142V192.186H204V189.186" fill="#96D9C9"/>
<path d="M218 189.186V192.186H276V189.186H218Z" fill="#96D9C9"/>
<path d="M218 196.186V198.186H276V196.186H218Z" fill="#96D9C9"/>
<path d="M204 196.186H142V198.186H204V196.186" fill="#96D9C9"/>
<path d="M204 203.186H142V205.186H204V203.186" fill="#96D9C9"/>
<path d="M218 203.186V205.186H276V203.186H218Z" fill="#96D9C9"/>
<path d="M204 210.186H142V212.186H204V210.186Z" fill="#96D9C9"/>
<path d="M218 210.186V212.186H276V210.186H218Z" fill="#96D9C9"/>
<path d="M204 217.186H142V219.186H204V217.186" fill="#96D9C9"/>
<path d="M218 217.186V219.186H276V217.186H218Z" fill="#96D9C9"/>
<path d="M204 224.186H142V226.186H204V224.186" fill="#96D9C9"/>
<path d="M218 224.186V226.186H276V224.186H218Z" fill="#96D9C9"/>
<path d="M204 230.186H142V233.186H204V230.186" fill="#96D9C9"/>
<path d="M218 230.186V233.186H276V230.186H218Z" fill="#96D9C9"/>
<path d="M218 237.186V240.186H276V237.186H218Z" fill="#96D9C9"/>
<path d="M204 237.186H142V240.186H204V237.186" fill="#96D9C9"/>
<path d="M204 244.186H142V247.186H204V244.186" fill="#96D9C9"/>
<path d="M218 244.186V247.186H276V244.186H218Z" fill="#96D9C9"/>
<path d="M218 251.186V254.186H276V251.186H218Z" fill="#96D9C9"/>
<path d="M204 251.186H142V254.186H204V251.186" fill="#96D9C9"/>
<path d="M225 51.1861V53.1861H274V51.1861H225Z" fill="#96D9C9"/>
<path d="M225 58.1861V60.1861H274V58.1861H225Z" fill="#96D9C9"/>
<path d="M225 65.1861V67.1861H274V65.1861H225Z" fill="#96D9C9"/>
<path d="M225 72.1861V75.1861H274V72.1861H225Z" fill="#96D9C9"/>
<path d="M225 78.1861V81.1861H274V78.1861H225Z" fill="#96D9C9"/>
<path d="M225 91.1861V93.1861H274V91.1861H225Z" fill="#96D9C9"/>
<path d="M225 97.1861V100.186H274V97.1861H225Z" fill="#96D9C9"/>
<path d="M225 104.186V107.186H274V104.186H225Z" fill="#96D9C9"/>
<path d="M225 111.186V114.186H274V111.186H225Z" fill="#96D9C9"/>
<path d="M225 118.186V121.186H274V118.186H225Z" fill="#96D9C9"/>
<path d="M212 135.186H145V51.1861H212V135.186Z" fill="#96D9C9"/>
<path d="M68.704 66.9153C49.1501 74.6892 49.0763 102.308 68.6173 110.344C72.127 111.788 74.9453 114.501 76.6433 117.858L82.486 129.408C84.0963 132.591 87.915 134.02 91.2594 132.69L98.667 129.745C102.012 128.418 103.76 124.776 102.683 121.381C98.7556 108.99 96.3985 104.703 99.282 98.1532C107.717 79.0003 88.2623 59.1414 68.704 66.9153" fill="#F7CC7F"/>
<path d="M84.3237 81.5932C84.0151 83.1968 84.6711 85.0166 85.2939 87.1359C86.7404 85.8123 88.4031 84.1865 88.6401 82.3029C88.8065 80.9842 87.9313 79.3658 86.6264 79.3265C86.4853 79.3216 84.54 80.466 84.3237 81.5932ZM67.3098 93.7249C68.5889 94.6139 70.4258 94.717 72.9214 94.0318C72.0708 92.2563 71.0514 90.7165 69.5082 89.8078C66.0276 87.7597 65.1626 92.2342 67.3098 93.7249ZM82.9513 120.186C79.1894 109.462 74.7585 98.2411 73.3971 95.0829C61.9351 98.3418 63.611 85.0166 70.0785 88.8231C71.9219 89.9085 73.0726 91.6841 74.019 93.7003C77.7965 92.4822 81.3181 90.5225 84.3559 87.9611C83.5686 85.2842 82.8461 83.2852 83.213 81.3746C83.7674 78.4915 86.9111 77.0328 88.823 79.2896C89.5411 80.1369 89.9009 81.3476 89.7623 82.4478C89.4668 84.7955 87.4412 86.7602 85.6501 88.3442C88.2024 96.9714 91.0068 105.611 94 114.066L92.9341 114.449C89.9898 106.132 87.2273 97.6345 84.7069 89.1472C81.6767 91.6252 78.2026 93.5309 74.4864 94.7465C76.2149 98.7887 80.4862 109.737 84.018 119.805L82.9513 120.186" fill="#FAE0B2"/>
<path d="M77 117.22C77.0498 117.316 77.1075 117.409 77.1552 117.508L82.8845 129.322C84.4635 132.578 88.208 134.039 91.4874 132.679L98.7511 129.667C102.031 128.309 103.745 124.584 102.689 121.111C100.976 115.472 99.5693 111.477 98.7825 108.186L77 117.22" fill="#96D9C9"/>
<path d="M52.0529 61.3756L43.561 51.1469C42.7393 50.158 42.8308 48.6501 43.766 47.7793C44.7005 46.9111 46.1252 47.0061 46.9473 47.9977L55.4392 58.2237C56.2606 59.2127 56.1691 60.7206 55.2342 61.5914C54.2938 62.4673 52.8706 62.3594 52.0529 61.3756Z" fill="#FAE0B2"/>
<path d="M45.0342 90.461L31.5652 92.167C30.325 92.3242 29.1857 91.4966 29.0201 90.3223C28.8548 89.1457 29.7256 88.0662 30.9658 87.909L44.4351 86.2053C45.675 86.0482 46.8143 86.8734 46.9798 88.05C47.1452 89.2243 46.2756 90.3038 45.0342 90.461" fill="#FAE0B2"/>
<path d="M41.045 132.855C39.988 132.234 39.6821 130.944 40.3617 129.976C42.9028 126.359 45.836 122.946 49.079 119.831C49.9459 118.999 51.3857 118.968 52.2955 119.764C53.2043 120.557 53.2384 121.876 52.3712 122.708C49.3271 125.63 46.5741 128.834 44.1888 132.229C43.5126 133.191 42.1067 133.481 41.045 132.855" fill="#FAE0B2"/>
<path d="M84.4595 53.184C83.1544 53.1323 82.14 52.0659 82.194 50.8049C82.4499 44.8104 82.059 38.7691 81.033 32.8534C80.8171 31.6072 81.6843 30.425 82.9744 30.2181C84.2624 30.0088 85.4818 30.8486 85.6979 32.0948C86.7783 38.3233 87.1895 44.6823 86.9198 50.9921C86.8656 52.2629 85.7557 53.2382 84.4595 53.184Z" fill="#FAE0B2"/>
<path d="M101.286 66.1039C100.684 65.0827 101.063 63.7895 102.132 63.2138L114.69 56.4602C115.759 55.8844 117.113 56.2454 117.714 57.2667C118.316 58.288 117.937 59.5834 116.868 60.1591L104.31 66.9127C103.243 67.4862 101.889 67.1298 101.286 66.1039Z" fill="#FAE0B2"/>
<path d="M132.234 98.1305C132.036 98.1751 131.83 98.1949 131.617 98.1825C126.569 97.9051 121.537 97.0703 116.661 95.7055C115.458 95.3686 114.75 94.1029 115.082 92.8768C115.413 91.6506 116.658 90.9323 117.861 91.2692C122.425 92.5473 127.136 93.3276 131.862 93.5877C133.108 93.657 134.064 94.7395 133.997 96.0102C133.94 97.0629 133.197 97.9125 132.234 98.1305Z" fill="#FAE0B2"/>
<path d="M272.03 30.1861H133.967C132.881 30.1861 132 29.3289 132 28.2698V17.1025C132 16.0457 132.881 15.1861 133.967 15.1861H272.03C273.118 15.1861 274 16.0457 274 17.1025V28.2698C274 29.3289 273.118 30.1861 272.03 30.1861Z" fill="#9BC1F9"/>
<path d="M140.335 18.0723C139.005 18.0723 137.923 19.1124 137.923 20.388V24.982C137.923 26.2599 139.005 27.3 140.335 27.3H240.666C241.994 27.3 243.077 26.2599 243.077 24.982V20.388C243.077 19.1124 241.994 18.0723 240.666 18.0723H140.335ZM240.666 28.1861H140.335C138.496 28.1861 137 26.7496 137 24.982V20.388C137 18.6226 138.496 17.1861 140.335 17.1861H240.666C242.504 17.1861 244 18.6226 244 20.388V24.982C244 26.7496 242.504 28.1861 240.666 28.1861Z" fill="#466EB6"/>
<path d="M258.5 17.1054C256.59 17.1054 255.034 18.4867 255.034 20.1849C255.034 21.8856 256.59 23.2669 258.5 23.2669C260.41 23.2669 261.963 21.8856 261.963 20.1849C261.963 18.4867 260.41 17.1054 258.5 17.1054ZM258.5 24.1861C256.019 24.1861 254 22.3912 254 20.1849C254 17.9787 256.019 16.1861 258.5 16.1861C260.981 16.1861 263 17.9787 263 20.1849C263 22.3912 260.981 24.1861 258.5 24.1861Z" fill="#466EB6"/>
<path d="M263.639 27.8261L260.09 22.9346C259.939 22.7275 259.982 22.4342 260.184 22.2788C260.373 22.1334 260.637 22.163 260.793 22.3405L260.822 22.3725L264.812 26.9286C265.083 27.2368 265.059 27.7127 264.757 27.9912C264.457 28.2723 263.992 28.2452 263.721 27.937C263.706 27.9197 263.692 27.9025 263.68 27.8828L263.639 27.8261" fill="#466EB6"/>
<path d="M348.026 32.4332C349.501 35.7365 347.976 39.6152 344.62 41.0197C341.461 42.3405 337.771 40.9281 336.303 37.8341C334.739 34.5465 336.199 30.639 339.499 29.1665C342.756 27.715 346.574 29.177 348.026 32.4332Z" fill="#F7CC7F"/>
<path d="M339.395 37.4012C340.171 39.1437 342.213 39.9253 343.955 39.1489C345.695 38.3724 346.477 36.3313 345.698 34.5888L339.395 37.4012" fill="#EFEFEF"/>
<path d="M278.106 237.502C280.401 236.838 280.463 237.248 280.753 237.155C281.098 237.045 283.876 233.267 283.876 233.267C283.876 233.267 292.141 222.193 292.562 221.577L295.169 207.25L303 207.186C303 207.186 299.729 222.661 299.408 223.428C299.089 224.193 285.992 237.719 284.881 238.95C284.881 238.95 284.164 240.95 283.669 242.186C283.176 243.424 282.117 244.327 281.922 244.65C281.891 244.696 281.17 245.724 279.908 246.728C278.823 247.592 279.396 246.247 279.396 246.247C279.396 246.247 281.077 244.264 280.882 244.147C280.729 244.056 279.882 245.197 278.692 246.166C278.385 246.415 278.083 246.659 277.802 246.882C277.064 247.465 276.44 247.155 277.099 246.415C277.33 246.154 277.73 245.729 278.061 245.47C278.421 245.192 278.644 244.811 278.904 244.528C279.42 243.963 279.803 243.56 279.765 243.551C279.718 243.536 279.732 243.348 279.396 243.6C278.994 243.905 278.306 244.752 277.675 245.153C277.316 245.38 276.602 245.902 276.602 245.902C276.602 245.902 275.352 246.479 275.286 246.415C274.924 246.071 275.64 245.431 276.176 245.189C276.416 244.855 277.185 244.33 277.185 244.33C277.185 244.33 278.461 242.899 278.237 242.698C278.142 242.615 277.242 243.39 276.223 244.002C275.278 244.571 274.212 244.987 274.05 244.808C273.772 244.508 274.743 243.761 274.743 243.761C274.743 243.761 275.455 243.275 275.676 243.094C275.938 242.884 276.661 242.188 276.661 242.188C276.661 242.188 279.051 239.641 278.825 239.468C278.597 239.297 277.856 239.062 277.647 239.165C277.437 239.267 277.173 239.661 276.964 239.763C276.754 239.866 276.373 239.814 276.2 239.56C276.024 239.306 276.804 238.415 276.804 238.415C276.804 238.415 277.442 237.695 278.106 237.502" fill="#F48C7F"/>
<path d="M290.284 309.186C290.284 309.186 290.217 313.933 290.219 313.943C290.312 314.545 291 316.035 291 316.584C291 318.643 282.343 314.836 284.283 313.924C284.459 313.842 285.379 313.216 285.436 312.517C285.525 311.435 285.75 309.252 285.75 309.252L290.284 309.186Z" fill="#F7A491"/>
<path d="M283.631 314.264C283.631 314.264 285.783 314.836 286.887 314.979C287.989 315.122 289.445 313.916 290.225 314.243C291.085 314.601 290.998 318.135 290.998 318.135C290.998 318.135 279.983 318.28 276.25 318.083C274.904 318.013 279.226 315.598 283.631 314.264Z" fill="#B75742"/>
<path d="M312.182 309.186C312.182 309.186 312.472 313.933 312.472 313.943C312.581 314.545 313 316.035 313 316.584C313 318.643 303.107 314.836 305.324 313.924C305.525 313.842 306.886 312.751 306.953 312.05C307.055 310.971 307 309.252 307 309.252L312.182 309.186" fill="#F7A491"/>
<path d="M304.867 314.265C304.867 314.265 307.223 314.844 308.431 314.989C309.639 315.134 311.23 313.913 312.084 314.243C313.025 314.606 313 318.131 313 318.131C313 318.131 299.535 318.255 296.252 318.131C294.777 318.075 300.046 315.616 304.867 314.265" fill="#B75742"/>
<path d="M296.538 238.186L292.497 239.909L284 279.985L284.343 310.029L291.156 310.186C291.156 310.186 294.325 283.904 294.325 281.867C294.325 279.83 309 246.227 309 246.227L296.538 238.186" fill="#355389"/>
<path d="M300 239.552C300 239.552 303.003 270.962 303.003 276.256C303.003 281.553 305.435 311.186 305.435 311.186L312.32 311.147C312.32 311.147 312.818 302.115 313.557 288.825C313.673 286.744 313.407 282.546 313.557 280.39C314.627 264.894 316.745 250.307 315.733 244.524C315.571 243.592 315.265 241.159 314.668 240.545C310.16 235.897 300 239.552 300 239.552" fill="#466EB6"/>
<path d="M291 215.186L299.622 214.656C299.622 214.656 300.047 207.58 300.047 204.205C300.047 200.111 301.407 194.073 300.877 194.188C299.385 194.507 296.81 195.765 295.612 197.296C291.475 202.586 291 215.186 291 215.186" fill="#F47458"/>
<path d="M311.342 193.99C311.342 193.99 316.111 194.64 317.368 195.542C318.781 196.558 320.351 198.833 320.351 198.833C320.351 198.833 314.495 225.935 314.486 230.497C314.476 234.025 315.753 242.689 315.753 242.689C315.753 242.689 298.056 243.782 291.355 241.193C291.355 241.193 293.468 230.889 293.468 228.183C293.468 225.477 295.999 200.874 296.577 199.155C297.1 197.596 298.056 194.795 301.289 194.104C304.522 193.413 311.342 193.99 311.342 193.99Z" fill="#F7CC7F"/>
<path d="M309.837 186.627L311 194.058C311 194.058 306.753 202.906 304.216 202.139C302.09 201.494 303.399 193.665 303.399 193.665C303.399 193.665 304.557 189.46 304.211 187.356C303.862 185.253 309.837 186.627 309.837 186.627Z" fill="#F7A491"/>
<path d="M304.154 187.253C303.797 185.335 309.902 186.588 309.902 186.588L310 187.149C309.822 187.527 309.605 187.849 309.338 188.094C307.976 189.365 305.843 190.127 304 190.186C304.186 189.15 304.298 188.042 304.154 187.253" fill="#F47458"/>
<path d="M311.479 176.443C311.67 176.386 313.003 184.674 310.474 186.955C307.944 189.235 303.014 189.981 301.248 188.184C299.291 186.197 299.39 177.291 303.323 174.945C307.256 172.598 311.479 176.443 311.479 176.443" fill="#F7A491"/>
<path d="M305.093 169.243C307.846 169.82 309.628 171.551 310.283 172.291C311.534 172.443 313.233 173.154 314.988 176.142C317.145 179.818 315.551 183.893 313.041 185.889C310.529 187.888 310.563 190.186 310.563 190.186L310.166 189.004C309.874 188.1 309.755 187.139 309.852 186.191C309.911 185.621 310.03 185.006 310.259 184.501C310.862 183.164 308.961 182.278 308.428 181.168C308.017 180.312 307.997 178.357 307.352 176.943L306.578 175.866C306.578 175.866 304.796 174.439 303.053 174.841C301.31 175.243 301.561 168.501 305.093 169.243" fill="#13375B"/>
<path d="M308.001 182.671C307.978 183.5 308.63 184.178 309.457 184.186C310.284 184.194 310.977 183.53 310.999 182.701C311.025 181.873 310.37 181.196 309.543 181.186C308.716 181.179 308.026 181.842 308.001 182.671Z" fill="#F7A491"/>
<path d="M298.991 221.36L298.877 221.823C298.819 222.061 298.495 222.221 298.157 222.18L284.517 220.517C284.178 220.477 283.951 220.25 284.009 220.012L284.123 219.55C284.181 219.312 284.505 219.152 284.843 219.192L298.483 220.854C298.822 220.896 299.049 221.122 298.991 221.36" fill="#13375B"/>
<path d="M318.574 197.478C316.968 197.431 315.55 207.798 316.567 208.819C317.584 209.842 317.778 222.607 317.778 222.607L302.639 222.238L302.636 222.243C302.341 222.049 299.17 219.964 298.717 219.508C298.242 219.03 295.928 219.27 295.317 219.927C294.707 220.584 296.676 220.046 297.22 220.405C297.764 220.764 296.814 221.661 296.814 221.661C296.814 221.661 292.976 222.204 292.228 221.428C291.482 220.652 289.483 219.336 289.212 220.114C289.069 220.514 290.101 221.729 290.679 222.238C289.956 221.707 289.089 221.145 288.791 221.242C288.247 221.421 288.474 222.098 288.769 222.299C289.062 222.498 292.11 224.775 292.585 224.935C293.05 225.09 300.135 225.26 301.359 225.526C301.359 225.526 321.323 229.978 322.458 229.7C323.453 229.455 324.45 223.199 324.45 218.407C324.45 213.613 323.588 197.621 318.574 197.478" fill="#F7A491"/>
<path d="M316.49 195.113C316.49 195.113 319.286 195.744 322.17 198.918C324.793 201.804 326.445 217.968 326.445 217.968L317.386 219.404L316.663 211.583L314.244 208.006L316.49 195.113" fill="#F7CC7F"/>
<path d="M186.074 100.336L180.691 84.5062C179.467 80.9152 178.654 77.6503 177.838 74.4698H177.674C176.858 77.7324 175.96 81.0795 174.901 84.4241L169.518 100.336H186.074ZM168.051 105.886L162.341 123.186H155L173.677 68.1861H182.241L201 123.186H193.416L187.544 105.886H168.051" fill="#B75742"/>
<path d="M407.596 187.686L405.102 185.504L401.892 186.321C401.526 186.413 401.215 186.047 401.361 185.7L402.665 182.654L400.9 179.851C400.696 179.531 400.951 179.121 401.325 179.155L404.625 179.456L406.741 176.908C406.984 176.617 407.452 176.73 407.539 177.097L408.27 180.329L411.351 181.556C411.702 181.697 411.738 182.177 411.414 182.371L408.57 184.068L408.351 187.373C408.327 187.752 407.88 187.936 407.596 187.686" fill="#F79C8D"/>
<path d="M49.8895 26.074L47.3522 23.9007L44.0838 24.7136C43.7117 24.8052 43.3926 24.441 43.5436 24.0961L44.8725 21.0665L43.0726 18.2781C42.8675 17.9621 43.1239 17.5521 43.5066 17.5859L46.8648 17.885L49.0206 15.3499C49.2661 15.0604 49.7439 15.1738 49.829 15.5404L50.576 18.7533L53.7082 19.9738C54.065 20.1137 54.1037 20.5937 53.7738 20.7843L50.877 22.4728L50.6572 25.7628C50.632 26.1367 50.1784 26.32 49.8895 26.074" fill="#96D9C9"/>
<path d="M116.263 28.0832L113.956 26.1096L110.985 26.8464C110.647 26.9319 110.357 26.5986 110.494 26.285L111.702 23.5307L110.066 20.9979C109.88 20.7084 110.113 20.3356 110.46 20.3685L113.513 20.6383L115.473 18.3357C115.697 18.0726 116.131 18.1735 116.208 18.5068L116.887 21.4299L119.735 22.5395C120.059 22.6667 120.094 23.1009 119.794 23.2763L117.161 24.8092L116.961 27.8003C116.938 28.1402 116.526 28.3091 116.263 28.0832" fill="#F47458"/>
<path d="M328.399 98.6856C337.473 102.418 340.392 94.2602 340.168 94.4762C340.339 94.2892 341.703 93.6939 342.578 93.2672C346.213 91.4839 346.105 85.1935 346.023 81.0211C351.242 77.8443 352.548 71.7595 348.968 68.0401C350.069 63.9071 350.304 61.3072 346.611 59.2105C343.816 54.3373 335.985 55.9889 332.181 59.8137C330.253 61.7524 329.139 64.592 329.17 67.4211C324.695 69.2729 322.356 74.2066 323.373 79.1798C317.335 84.1478 319.137 94.874 328.399 98.6856" fill="#13375B"/>
<path d="M361.849 112.749C361.117 112.03 359.834 111.393 359.91 111.288C360.215 110.858 363.386 114.137 363.178 113.213C363.064 112.7 360.793 110.021 359.988 109.921C359.208 109.824 354.155 109.027 354.155 109.027L342.472 101.263C342.472 101.263 341.897 92.0834 344.373 85.8963C341.665 85.0699 341.135 84.8944 338.348 85.1077C336.76 91.384 335.051 101.951 337.114 105.03C337.984 106.326 353.164 111.336 353.164 111.336C353.164 111.336 356.448 112.573 357.061 112.614C357.525 112.641 358.803 112.535 359.429 112.632C360.847 112.851 362.605 114.963 362.724 114.72C362.81 114.542 362.592 113.483 361.849 112.749" fill="#F48C7F"/>
<path d="M345.793 85.1624C344.696 83.1332 343.568 81.5244 343.568 81.5244C342.429 79.4952 339.491 78.4688 339.491 78.4688C339.491 78.4688 338.507 78.4871 337.378 78.5446C337.308 78.73 337.235 78.8658 337.164 78.9206C336.741 79.2393 334.31 78.8266 332.738 79.8974C327.475 84.4233 328.93 106.369 329.345 113.3L342.487 113.358C342.487 113.358 343.356 98.5392 346.613 94.7079C348.88 92.0388 347.42 88.171 345.793 85.1624Z" fill="#F7CC7F"/>
<path d="M349.393 162.373C349.534 162.113 351.364 157.708 352.854 155.746C355.021 152.897 373.757 127.097 372.986 120.819C372.649 118.077 364.53 115.752 363.568 115.586C358.402 116.278 363.828 120.725 359.947 124.382C362.468 125.245 363.958 126.323 363.413 127.033C361.23 129.872 349.631 152.762 349.128 153.058C346.883 154.374 346.001 153.764 346.001 153.764C346.001 153.764 346.518 166.639 347.591 166.232C348.661 165.826 347.806 165.3 349.393 162.373" fill="#F48C7F"/>
<path d="M345.053 153.846L347.218 166.817C347.705 168.495 348.526 168.478 348.735 168.252C349.167 167.789 349.365 164.325 349.418 162.357C348.44 159.352 348.534 153.696 349.135 153.057C347.663 153.084 345.056 153.558 345.053 153.846Z" fill="#355389"/>
<path d="M352.799 122.066C355.706 117.247 355.55 117.856 360.608 115.678C362.635 116.492 369.421 120.744 370.279 121.531L359.492 129.357C359.843 128.482 356.085 124.137 352.799 122.066" fill="#F7A491"/>
<path d="M338.563 71.0453C338.563 71.0453 337.895 77.464 337.068 78.8944C336.771 79.4068 340.454 83.7111 343.78 84.7072C347.109 85.7032 342.763 81.3183 342.898 79.6773C343.039 78.0362 343.645 70.2703 343.645 70.2703L338.563 71.0453" fill="#F7A491"/>
<path d="M343.479 72.4953C343.577 71.2107 343.647 70.2666 343.647 70.2666L338.568 71.043C338.568 71.043 338.439 71.7859 338.297 72.8358C340.355 74.0327 342.21 73.6561 343.479 72.4953Z" fill="#F47458"/>
<path d="M340.16 59.5095C340.16 59.5095 338.156 59.9611 336.924 61.8559C335.685 63.748 334.837 69.3205 338.909 71.9212C342.981 74.5219 346.148 70.8415 346.2 67.2545C346.252 63.6649 345.486 58.8762 340.16 59.5095" fill="#F7A491"/>
<path d="M347.131 66.133C346.785 66.9972 346.093 67.536 345.59 67.333C345.088 67.1299 344.963 66.2631 345.309 65.3963C345.655 64.5321 346.348 63.9933 346.85 64.1963C347.352 64.3994 347.477 65.2662 347.131 66.133Z" fill="#F7A491"/>
<path d="M336.856 66.844C337.153 67.7761 336.881 68.6954 336.254 68.8935C335.624 69.0942 334.875 68.4999 334.58 67.5678C334.286 66.6357 334.555 65.7164 335.185 65.5158C335.812 65.3177 336.561 65.9094 336.856 66.844" fill="#F7A491"/>
<path d="M352.205 113.729C349.956 113.523 342.519 112.766 342.519 112.766L329.318 110.994C329.318 110.994 326.989 116.564 326.897 120.06C326.737 126.177 331.347 128.48 336.161 128.185C339.028 128.009 355.898 127.533 359.431 129.329C360.086 124.348 360.838 118.948 364.196 115.363C358.82 114.624 355.257 114.008 352.205 113.729" fill="#184655"/>
<path d="M352.377 159.856C352.739 159.482 355.635 139.677 357.381 131.363C357.801 129.363 359.075 127.644 360.871 126.666L370.284 121.527C373.544 124.511 358.329 158.011 356.933 161.522C355.975 163.94 355.372 168.934 355.303 169.237C354.519 172.664 355.538 172.954 354.566 173.672C353.593 174.39 349.228 161.886 349.228 161.886C349.228 161.886 350.465 161.834 352.377 159.856" fill="#F7A491"/>
<path d="M349.536 114.59C349.536 115.089 349.994 115.496 350.562 115.496L366.552 115.534C367.119 115.534 367.686 115.046 367.872 114.44L367.577 114.634C367.58 114.135 367.122 113.728 366.554 113.728L350.565 113.69C349.997 113.687 349.539 114.091 349.536 114.59Z" fill="#355389"/>
<path d="M366.391 115.206C366.297 115.206 366.2 115.2 366.103 115.189C365.276 115.084 364.734 114.555 364.892 114.008L370.995 92.8925C371.152 92.3447 371.949 91.985 372.779 92.0902C373.606 92.1953 374.149 92.7237 373.991 93.2688L367.888 114.387C367.749 114.871 367.11 115.206 366.391 115.206" fill="#355389"/>
<path d="M361.685 112.344C360.766 111.887 359.351 111.676 359.391 111.555C359.545 111.052 363.612 113.643 363.128 112.83C362.86 112.379 359.837 110.077 359.037 110.233C358.267 110.382 353.214 111.19 353.214 111.19L340.21 106.491C340.21 106.491 337.732 98.4013 338.17 91.7544C335.338 91.8084 333.357 92.2785 330.777 93.3458C331.209 99.8036 332.86 110.382 335.776 112.671C337.002 113.632 352.99 113.692 352.99 113.692C352.99 113.692 356.497 113.851 357.089 113.697C357.54 113.581 358.724 113.084 359.345 112.981C360.761 112.752 363.087 114.213 363.128 113.946C363.155 113.749 362.617 112.811 361.685 112.344" fill="#F7A491"/>
<path d="M339.072 84.7021C338.891 82.6582 338.64 80.5989 336.558 79.7149C335.268 79.1681 333.722 79.1502 332.552 79.9014C331.16 80.7956 330.61 82.6428 330.431 84.2243C330.028 87.8166 329.839 91.5698 330.081 95.1799C332.662 94.1119 336.175 94.6766 339.008 94.6229C339.639 91.4599 339.31 87.3644 339.072 84.7021Z" fill="#FAE0B2"/>
<path d="M359.751 110.416C361.974 110.984 361.847 110.943 361.936 111C363.508 111.988 363.381 112.418 360.975 111.383C360.912 111.356 360.845 111.346 360.78 111.346L359.635 111.359C359.192 111.362 358.984 110.813 359.316 110.519C359.435 110.416 359.597 110.376 359.751 110.416" fill="#F7A491"/>
<path d="M355.399 168.508C355.399 168.508 355.612 169.989 355.832 171.338C356.05 172.664 355.716 174.861 355.227 175.511C354.741 176.161 348.991 162.687 348.991 162.687C348.806 162.277 348.914 161.797 349.252 161.501C349.791 161.025 350.787 160.351 352.351 159.881C352.351 159.881 352.109 166.801 355.399 168.508Z" fill="#466EB6"/>
<path d="M312.202 24.0001L311.689 21.7131L313.486 23.2166L312.202 24.0001ZM310.396 16.5021L307.726 18.1276L310.493 30.5682C310.735 31.6446 311.958 32.1669 312.9 31.5933C313.491 31.2321 313.786 30.534 313.63 29.8579L312.954 26.9363L315.753 25.2303L318.072 27.1707C318.599 27.6125 319.349 27.6686 319.939 27.3098L319.99 27.2805C320.93 26.7069 321.03 25.3767 320.183 24.6713L310.396 16.5021Z" fill="#F48C7F"/>
<path d="M358.061 18.1075C358.496 18.2974 359.041 18.4515 359.823 18.6745C361.907 19.2719 363.971 19.0131 364.58 16.8687C365.169 14.8179 363.561 13.4774 361.268 12.8222L359.699 12.3735L358.061 18.1075ZM360.638 9.08401L362.146 9.5162C364.56 10.2071 366.143 9.58225 366.575 8.07376C367.013 6.53498 366.069 5.38433 363.99 4.78698C362.991 4.50345 362.402 4.39886 361.995 4.34932L360.638 9.08401ZM358.309 4.26597e-07C359.583 0.101851 362.077 0.61936 364.373 1.27451C367.178 2.07831 368.819 2.84081 370.049 4.13735C371.252 5.29625 371.88 6.97816 371.354 8.81974C370.836 10.6283 369.298 12.0184 366.762 12.2056L366.746 12.2662C368.888 13.5654 370.107 15.8062 369.358 18.4295C368.832 20.2711 367.574 21.4768 366.011 22.143C364.197 22.8945 361.535 22.8532 357.491 21.697C355.228 21.0501 353.582 20.417 352.6 19.9711L358.309 4.26597e-07" fill="#96D9C9"/>
<path d="M394.534 68.8384C394.765 69.8539 394.143 70.8723 393.133 71.1182C392.187 71.3439 390.987 71.5232 389.607 71.5695C382.42 71.8125 378.569 67.4642 378.37 61.5419C378.13 54.4509 383.057 50.331 389.346 50.1198C390.593 50.0764 391.696 50.169 392.584 50.3252C393.651 50.5104 394.346 51.5548 394.114 52.6166L394.1 52.6803C393.877 53.6755 392.916 54.3322 391.915 54.1528C391.256 54.0342 390.515 53.9706 389.693 53.9966C385.961 54.1239 383.138 56.4732 383.297 61.0993C383.433 65.2625 385.993 67.7997 390.185 67.658C390.883 67.6348 391.615 67.5365 392.289 67.3947C393.304 67.1777 394.302 67.8258 394.534 68.8384" fill="#F7CC7F"/>
</svg>
