<svg width="365" height="297" viewBox="0 0 365 297" fill="none" xmlns="http://www.w3.org/2000/svg">
<path d="M142.977 74.4881C141.863 76.149 141.032 79.9464 140.277 82.0166C139.521 84.0866 139.401 90.285 139.258 91.6435C139.118 93.0019 139.602 97.3314 139.602 97.3314L145.194 98.2423C145.194 98.2423 145.707 95.0775 147.195 93.3506C148.796 91.4969 151.915 87.2462 151.129 85.6113C149.88 83.0028 143.129 83.2243 143.129 83.2243C143.129 83.2243 143.452 81.1774 143.613 79.6416C143.778 78.1061 145.716 75.2951 144.952 74.3484C144.187 73.4013 143.252 74.0767 142.977 74.4881" fill="#FFB3C5"/>
<path d="M34.1304 49.7628L33.7589 55.1291L28.7168 57.0417L40.7121 65.5792L45.8406 63.5826V58.1602L34.1304 49.7628" fill="#F2F2F2"/>
<path d="M86.0666 76.206C86.0666 88.0339 76.4751 97.6222 64.6414 97.6222C52.805 97.6222 43.2109 88.0339 43.2109 76.206C43.2109 64.3785 52.805 54.7895 64.6414 54.7895C76.4751 54.7895 86.0666 64.3785 86.0666 76.206Z" fill="#E4C4FF"/>
<path d="M81.6563 76.2062C81.6563 85.5979 74.0389 93.212 64.6424 93.212C55.2434 93.212 47.626 85.5979 47.626 76.2062C47.626 66.8122 55.2434 59.1988 64.6424 59.1988C74.0389 59.1988 81.6563 66.8122 81.6563 76.2062Z" fill="#B984F9"/>
<path d="M75.5628 76.2068C75.5628 82.2361 70.6738 87.1245 64.6388 87.1245C58.6063 87.1245 53.7148 82.2361 53.7148 76.2068C53.7148 70.1775 58.6063 65.2886 64.6388 65.2886C70.6738 65.2886 75.5628 70.1775 75.5628 76.2068Z" fill="#8B5DD0"/>
<path d="M69.9046 76.2169C69.9046 79.1167 67.5546 81.4654 64.6507 81.4654C61.7518 81.4654 59.4019 79.1167 59.4019 76.2169C59.4019 73.3195 61.7518 70.9683 64.6507 70.9683C67.5546 70.9683 69.9046 73.3195 69.9046 76.2169Z" fill="#F36B80"/>
<path d="M64.2825 76.6609C64.1943 76.6609 64.1036 76.6365 64.0252 76.5826L34.0943 56.093C33.886 55.9509 33.8345 55.6693 33.9767 55.4611C34.1188 55.2529 34.4031 55.2014 34.609 55.3435L64.2653 75.642C64.4712 75.7841 64.4271 76.6609 64.2825 76.6609" fill="#5C407B"/>
<path d="M63.0733 73.6382L63.191 75.3875L61.5093 75.9339L64.4143 76.9042L64.5834 75.5296L63.0733 73.6382" fill="#F2F2F2"/>
<path d="M227.069 267.716H216.779C212.853 267.716 209.669 264.535 209.669 260.61V229.261L166.74 228.66V260.61C166.74 264.535 163.557 267.716 159.63 267.716H150.31C140.87 267.716 133.216 275.366 133.216 284.803H244.163C244.163 275.366 236.51 267.716 227.069 267.716" fill="#5C407B"/>
<path d="M356.28 284.263H248.266V65.595H356.28V284.263Z" fill="#F2F2F2"/>
<path d="M348.48 159.173L348.956 162.384L343.87 163.718L343.988 168.499L340.342 170.12L341.167 171.963L346.034 169.794L345.925 165.263L351.216 163.877L350.501 159.044L348.48 159.173" fill="#B984F9"/>
<path d="M309.249 56.3335L307.803 52.9128L304.162 52.1652C303.747 52.0801 303.611 51.5566 303.931 51.2794L306.74 48.8464L306.324 45.1551C306.276 44.7349 306.736 44.443 307.095 44.6614L310.28 46.5784L313.665 45.0448C314.048 44.8703 314.468 45.213 314.372 45.6251L313.529 49.243L316.034 51.9863C316.322 52.2986 316.122 52.8026 315.702 52.839L311.998 53.1576L310.164 56.387C309.956 56.7548 309.413 56.7232 309.249 56.3335" fill="#F36B80"/>
<path d="M216.981 24.0624L216.08 21.9319L213.813 21.4662C213.554 21.4134 213.469 21.0872 213.667 20.9149L215.414 19.3995L215.158 17.1005C215.131 16.8384 215.414 16.6566 215.64 16.793L217.619 17.9868L219.729 17.0315C219.971 16.9227 220.231 17.1366 220.169 17.3931L219.647 19.6465L221.207 21.355C221.384 21.5495 221.265 21.8633 221.002 21.8862L218.694 22.0848L217.551 24.0959C217.421 24.3248 217.083 24.305 216.981 24.0624" fill="#F36B80"/>
<path d="M361.137 175.217L359.691 177.217L356.217 175.248L353.74 177.913L350.9 176.864L350.369 178.303L354.172 179.704L356.516 177.179L360.131 179.228L362.309 176.218L361.137 175.217Z" fill="#F36B80"/>
<path d="M311.91 30.7965L292.855 20.8378C292.473 20.6378 292.324 20.1656 292.525 19.7833L299.226 6.9704C299.427 6.58773 299.901 6.43998 300.283 6.63995L319.339 16.5987C319.72 16.7986 319.869 17.2705 319.668 17.6531L312.967 30.4657C312.766 30.8483 312.296 30.9961 311.91 30.7965" fill="#B984F9"/>
<path d="M307.062 12.3114L301.259 9.28033C300.875 9.08002 300.729 8.60792 300.927 8.22548L301.947 6.27571C302.148 5.89326 302.623 5.74509 303.002 5.9454L308.805 8.97653C309.189 9.17644 309.335 9.64897 309.133 10.0314L308.113 11.9808C307.916 12.3636 307.441 12.5114 307.062 12.3114Z" fill="#B984F9"/>
<path d="M312.994 30.5577C312.773 30.8975 312.331 31.014 311.973 30.8269L292.791 20.8034C292.438 20.6171 292.281 20.1901 292.43 19.8173L297.236 7.96268C297.316 7.75863 297.481 7.59876 297.69 7.52245C297.895 7.44653 298.124 7.46139 298.321 7.56342L319.629 18.6987C319.822 18.8007 319.967 18.9794 320.023 19.1919C320.08 19.404 320.043 19.6301 319.923 19.8149L312.994 30.5577" fill="#E4C4FF"/>
<path d="M305.227 134.841L301.605 135.827L300.828 131.442L302.014 131.234L302.56 134.322L304.909 133.68L305.227 134.841Z" fill="#50BFA5"/>
<path d="M322.662 37.6436L325.017 39.8891C330.589 45.2008 335.133 51.4943 338.421 58.4537L338.784 59.2176C338.784 59.2176 344.953 59.7624 345.814 54.1877C340.4 48.0795 335.944 41.5593 332.268 34.3056L331.153 31.6986L322.662 37.6436Z" fill="#31DAE7"/>
<path d="M331.148 31.6913C331.45 32.1253 329.795 33.8015 327.452 35.4353C325.105 37.0695 322.95 38.0621 322.648 37.6281C322.345 37.1941 324.013 35.4978 326.356 33.864C328.699 32.2303 330.845 31.2573 331.148 31.6913" fill="#E1DDE7"/>
<path d="M331.16 31.7059L331.151 31.6973C331.151 31.6973 326.458 35.6699 324.52 36.0761L325.117 36.8889C325.824 36.5068 326.63 36.0107 327.455 35.4346C329.769 33.8193 331.413 32.1631 331.16 31.7059Z" fill="#E1DDE7"/>
<path d="M337.436 43.2404C337.444 43.9252 337.179 46.8808 332.257 48.115C332.584 48.5553 332.902 48.9998 333.216 49.4488C336.328 48.5285 337.729 46.9303 338.357 45.7138C338.461 45.5209 338.581 45.2624 338.659 45.0633C338.246 44.4606 337.837 43.853 337.436 43.2404Z" fill="#F36B80"/>
<path d="M332.698 47.2418L325.456 46.983L327.173 48.4387L326.149 50.2986L333.001 48.5521L332.698 47.2418Z" fill="#F36B80"/>
<path d="M333.359 48.9253L330.783 53.4049L332.595 52.7165L333.293 54.1389L334.5 49.4274L333.359 48.9253" fill="#F36B80"/>
<path d="M334.339 50.1398C333.07 50.2296 331.966 49.2409 331.871 47.9314C331.776 46.6219 332.732 45.4875 334.005 45.3973C335.278 45.3075 336.383 46.2962 336.477 47.6057C336.568 48.9152 335.612 50.05 334.339 50.1398Z" fill="#F36B80"/>
<path d="M46.3029 27.7417L45.4595 29.8656L47.0615 31.5562L45.9496 33.8684L48.2112 35.1445L47.0662 37.8147L49.0027 39.2462L48.3243 41.994L47.283 41.7374L47.7918 39.6818L45.7493 38.1726L46.8448 35.6037L44.5478 34.3063L45.7752 31.7563L44.2133 30.1057L44.9931 28.1373L43.7397 27.2684L44.3499 26.3878L46.3029 27.7417" fill="#31DAE7"/>
<path d="M14.9043 82.4411L17.0179 83.3008L18.7248 81.7154L21.0283 82.8453L22.3242 80.5989L24.9852 81.7623L26.4352 79.8396L29.1788 80.5408L28.9129 81.5792L26.8619 81.0544L25.3315 83.0842L22.7755 81.9633L21.4551 84.2499L18.9148 83.0016L17.248 84.5491L15.2864 83.7541L14.4061 84.9979L13.5303 84.3794L14.9043 82.4411" fill="#F2F2F2"/>
<path d="M31.677 116.603L18.5521 118.474C17.269 118.658 16.081 117.766 15.8977 116.483L14.8183 108.929C14.6373 107.647 15.5266 106.457 16.812 106.274L29.9369 104.404C31.2222 104.221 32.4102 105.112 32.5935 106.394L33.6707 113.948C33.854 115.231 32.9624 116.419 31.677 116.603Z" fill="#F36B80"/>
<path d="M27.5891 111.239C27.7316 111.125 27.8051 110.945 27.7806 110.763C27.7561 110.58 27.6336 110.427 27.4623 110.358L22.2339 108.26C22.0625 108.191 21.8688 108.218 21.7242 108.331C21.5795 108.445 21.506 108.627 21.5328 108.809L22.3296 114.385C22.3541 114.566 22.4743 114.72 22.6457 114.788C22.817 114.857 23.0107 114.829 23.1553 114.716L27.5891 111.239" fill="white"/>
<path d="M23.132 68.7365L20.47 66.2509L17.0234 67.6421L14.2373 64.6449L11.0257 67.2566L7.72318 64.0069L4.46943 66.0471L0.78125 63.4375L1.76978 62.0441L4.52485 63.9936L7.96034 61.8403L11.1343 64.9638L14.3991 62.3078L17.4756 65.6151L20.8379 64.2572L23.307 66.5611L25.3307 65.2075L26.2815 66.6275L23.132 68.7365" fill="#31DAE7"/>
<path d="M280.501 231.316H90.5389C85.3207 231.316 81.0879 227.086 81.0879 221.869V110.937C81.0879 105.72 85.3207 101.491 90.5389 101.491H280.501C285.723 101.491 289.952 105.72 289.952 110.937V221.869C289.952 227.086 285.723 231.316 280.501 231.316Z" fill="#472A6A"/>
<path d="M90.5388 226.004C88.2579 226.004 86.4028 224.148 86.4028 221.869V110.937C86.4028 108.658 88.2579 106.804 90.5388 106.804H280.501C282.782 106.804 284.637 108.658 284.637 110.937V221.869C284.637 224.148 282.782 226.004 280.501 226.004H90.5388Z" fill="#F2F2F2"/>
<path d="M272.944 218.281H148.714V115.618H272.944V218.281Z" fill="#E4C4FF"/>
<path d="M113.515 269.47H66.3878C63.1408 269.47 60.5103 272.199 60.5103 275.562C60.5103 278.927 63.1408 281.655 66.3878 281.655H113.521C111.317 277.918 111.322 273.198 113.515 269.47Z" fill="#FAE0B2"/>
<path d="M21.356 285.178C21.356 285.679 21.7608 286.083 22.2612 286.083H364.033V284.271H22.2612C21.7608 284.271 21.356 284.678 21.356 285.178Z" fill="#8B5DD0"/>
<path d="M166.812 231.193H183.528L182.886 228.42L187.442 208.133L193.889 168.034L173.434 162.181L168.025 176.188C168.025 176.188 164.495 209.613 166.549 229.623C166.594 230.059 166.685 230.586 166.812 231.193" fill="#472A6A"/>
<path d="M207.164 231.193L206.172 228.391L204.173 178.507L199.53 162.911L176.051 163.393L175.405 175.772L191.078 231.193H207.164" fill="#5C407B"/>
<path d="M178.386 106.804L154.578 120.55L146.9 94.0071L138.449 94.5929C138.449 94.5929 143.249 133.128 147.555 135.828C153.041 139.266 173.145 131.837 173.145 131.837L178.386 106.804" fill="#E25A74"/>
<path d="M196.966 105.704C196.966 105.704 204.83 106.697 206.666 108.044C208.732 109.562 215.134 116.64 215.134 116.64C215.134 116.64 201.809 154.793 202.322 161.58C202.842 168.368 204.3 178.422 204.3 178.422C204.3 178.422 178.424 180.055 168.623 176.189C168.623 176.189 171.717 160.806 171.717 156.767C171.717 152.731 176.267 112.916 177.506 110.802C178.741 108.688 186.807 105.469 186.807 105.469L196.966 105.704Z" fill="#E1DDE7"/>
<path d="M161.439 208.344C161.272 207.533 166.756 169.04 166.868 167.674C167.979 154.115 173.059 112.901 177.829 107.174C178.402 106.641 179.824 106.197 181.38 106.006C183.998 105.685 186.809 105.469 186.809 105.469C186.809 105.469 183.483 108.099 182.686 109.222C179.132 114.247 177.679 120.076 176.895 126.29C174.622 144.307 172.554 210.014 171.744 210.306C170.841 210.631 161.807 210.143 161.439 208.344" fill="#E25A74"/>
<path d="M195.03 70.7796C195.03 70.7796 199.766 67.5793 201.767 73.1849C201.753 73.1407 203.439 73.1568 203.667 73.2342C204.643 73.5631 205.585 74.5775 206.453 75.133C209.546 77.1118 210.971 80.9569 211.138 84.4875C211.343 88.7729 209.573 91.9065 206.751 95.0009C205.92 95.9127 205.031 96.8032 203.946 97.3857C202.635 98.0889 201.596 97.5308 200.362 97.8293C199.323 98.0805 198.958 99.1767 197.735 98.7814C196.015 98.2273 194.215 96.0782 192.084 96.3961C189.959 96.7137 185.048 94.8012 185.035 94.7962C178.727 92.3379 182.987 80.1362 184.197 75.8053C185.333 71.7337 191.125 69.3066 195.03 70.7796" fill="#472A6A"/>
<path d="M189.331 98.5038L187.692 102.972L186.81 105.469C186.81 105.469 186.748 109.939 187.794 111.097C189.587 113.09 196.969 105.704 196.969 105.704L199.306 91.6484L189.331 98.5038" fill="#FFB3C5"/>
<path d="M198.548 96.2033C195.739 100.553 190.904 102.541 187.679 103.014L189.331 98.5039L199.306 91.6484L198.548 96.2033" fill="#EA94AD"/>
<path d="M197.389 77.2108C193.63 74.9136 188.697 76.6574 187.149 80.7113C186.479 82.4733 185.727 84.7099 185.129 87.2044C183.687 93.204 185.512 99.7551 188.248 100.359C190.987 100.963 199.412 98.7336 201.574 90.2424C202.91 85.0001 201.333 79.6219 197.389 77.2108" fill="#FFB3C5"/>
<path d="M199.411 90.4729C199.117 91.8016 199.758 93.0735 200.845 93.3136C201.933 93.5534 203.053 92.6709 203.347 91.3418C203.641 90.0131 202.997 88.7412 201.909 88.5014C200.822 88.2617 199.702 89.1442 199.411 90.4729Z" fill="#FFB3C5"/>
<path d="M196.964 105.704C196.964 105.704 208.463 106.835 211.387 108.756C213.243 109.977 211.788 123.585 211.788 123.585C211.788 123.585 209.157 144.141 209.521 154.526C209.558 155.531 209.609 156.517 209.674 157.485C210.693 173.114 219.052 210.537 218.324 211.198C213.616 213.823 187.926 213.717 187.627 211.638C185.119 194.056 196.964 105.704 196.964 105.704" fill="#E25A74"/>
<path d="M209.5 153.685C209.506 153.973 209.516 154.252 209.523 154.526C209.56 155.514 209.607 156.485 209.67 157.436L194.025 150.153L209.5 153.685Z" fill="#E25A74"/>
<path d="M177.166 138.649C177.698 138.895 178.573 139.322 179.157 139.714C179.785 140.138 180.496 140.329 181.076 140.605C182.233 141.155 183.067 141.57 183.064 141.512C183.061 141.436 183.363 141.387 182.786 140.99C182.092 140.513 180.403 139.814 179.439 139.037C178.893 138.595 177.695 137.74 177.695 137.74C177.695 137.74 176.119 136.12 176.181 136.001C176.517 135.35 177.904 136.164 178.567 136.858C179.215 137.089 180.455 138.023 180.455 138.023C180.455 138.023 183.366 139.37 183.555 138.972C183.634 138.801 181.941 137.767 180.438 136.501C179.04 135.325 177.815 133.916 178 133.614C178.319 133.103 180.005 134.25 180.005 134.25C180.005 134.25 181.148 135.113 181.547 135.373C182.017 135.676 183.493 136.483 183.493 136.483C183.493 136.483 188.746 139.053 188.89 138.661C189.034 138.267 188.996 137.1 188.722 136.831C188.447 136.562 187.743 136.258 187.421 136.051C186.998 135.78 186.349 135.098 186.652 134.75C186.95 134.404 189.429 135.327 189.429 135.327C189.429 135.327 190.895 136.001 191.551 136.9C193.834 140.014 193.226 140.252 193.531 140.644C193.889 141.107 201.266 143.799 201.266 143.799C201.266 143.799 223.41 149.288 224.594 149.685L221.652 158.611C220.286 158.421 195.506 148.498 192.989 147.322C192.989 147.322 189.494 146.997 187.307 146.722C185.117 146.447 183.139 145.227 182.532 145.056C182.443 145.031 180.451 144.347 178.21 142.867C176.277 141.593 178.676 141.945 178.676 141.945C178.676 141.945 182.669 143.686 182.745 143.355C182.806 143.1 180.572 142.275 178.419 140.886C177.866 140.529 177.32 140.173 176.823 139.844C175.515 138.978 175.659 137.955 177.166 138.649Z" fill="#FFB3C5"/>
<path d="M210.408 108.29C210.408 108.29 214.134 108.801 217.345 113.406C220.556 118.011 227.636 137.866 229.848 145.466C232.082 153.141 230.948 157.405 225.921 158.66C220.897 159.915 194.028 150.153 194.028 150.153L196.54 140.944C196.54 140.944 214.342 144.878 214.969 144.571L209.385 134.943C209.385 134.943 205.012 119.36 210.408 108.29" fill="#E25A74"/>
<path d="M190.86 92.5704C190.86 92.5704 194.466 93.7473 194.762 95.0717C195.055 96.3961 194.613 98.3088 192.847 99.7802C191.081 101.251 187.299 100.344 186.272 99.5348C185.241 98.7255 184.454 95.2924 185.485 93.3797C186.516 91.467 190.86 92.5704 190.86 92.5704" fill="#472A6A"/>
<path d="M192.036 95.3429C192.036 95.3429 192.013 96.8184 191.518 97.0841C191.04 97.3413 190.435 97.5585 189.876 97.6111C188.967 97.6971 188.149 97.31 187.671 96.611C187.622 96.5421 187.583 96.471 187.545 96.3973C187.176 95.6615 187.102 94.3621 187.102 94.3621C187.102 94.3621 188.624 93.994 189.507 94.1414C190.39 94.2884 192.036 95.3429 192.036 95.3429" fill="#FFB3C5"/>
<path d="M227.891 54.5556L225.771 54.1992L224.529 56.005L222.181 55.4374L221.451 57.7686L218.767 57.2439L217.83 59.308L215.167 59.225L215.198 58.2166L217.19 58.2785L218.179 56.1007L220.76 56.6051L221.5 54.2351L224.09 54.8611L225.304 53.0982L227.272 53.4283L227.826 52.1036L228.756 52.4925L227.891 54.5556" fill="#F36B80"/>
<path d="M45.9229 164.631C46.063 165.138 46.1438 165.307 46.3219 165.647C47.4717 167.844 50.1417 170.98 50.1417 170.98L52.2061 166.099C52.2061 166.099 51.8711 164.567 51.2867 162.376C49.2913 162.922 47.3909 163.237 45.9229 164.631" fill="#FFB3C5"/>
<path d="M57.762 160.396C57.762 160.396 46.2442 165.601 45.8707 165.501C45.6321 165.438 41.1479 157.563 41.0997 150.157C41.078 146.735 44.4635 142.622 48.2417 143.435C50.1429 143.843 50.1139 144.4 52.9259 148.689C55.7403 152.978 57.762 160.396 57.762 160.396Z" fill="#E1DDE7"/>
<path d="M67.5936 253.692C67.5936 253.692 67.3212 258.438 67.3187 258.448C67.2178 259.051 66.8218 260.54 66.8218 261.088C66.8218 263.146 76.1339 259.341 74.048 258.429C73.8588 258.346 72.8701 257.723 72.8071 257.022C72.7112 255.942 72.4691 253.759 72.4691 253.759L67.5936 253.692" fill="#FFB3C5"/>
<path d="M74.022 258.409C74.022 258.409 71.8355 259.039 70.7153 259.197C69.5951 259.354 68.1187 258.03 67.3292 258.386C66.4551 258.78 66.4884 262.327 66.4884 262.327C66.4884 262.327 78.2155 263.336 81.5119 262.291C82.8192 261.879 78.4924 259.877 74.022 258.409Z" fill="#5C407B"/>
<path d="M48.5402 253.693C48.5402 253.693 48.266 258.438 48.2636 258.448C48.1626 259.051 47.7705 260.54 47.7705 261.088C47.7705 263.146 57.0819 259.341 54.994 258.43C54.8064 258.346 53.5219 257.256 53.4593 256.555C53.3655 255.477 53.4136 253.759 53.4136 253.759L48.5402 253.693Z" fill="#FFB3C5"/>
<path d="M54.9693 258.409C54.9693 258.409 52.7847 259.039 51.6643 259.197C50.5464 259.353 49.0688 258.029 48.2762 258.386C47.4029 258.78 47.3711 262.327 47.3711 262.327C47.3711 262.327 59.15 263.503 62.4623 262.291C63.7466 261.822 59.4411 259.877 54.9693 258.409Z" fill="#5C407B"/>
<path d="M51.3857 167.262L59.5862 155.206C59.621 155.1 59.6983 154.885 59.8104 154.556C60.2239 153.359 61.0833 150.87 61.8306 148.392L61.8405 148.367C62.0747 147.502 62.5729 145.99 63.0561 144.531C63.5917 142.907 64.2568 140.893 64.2793 140.549C64.2618 140.49 64.2219 140.384 64.1696 140.244C63.8707 139.425 63.4622 137.475 63.3177 136.627C63.228 136.087 63.1384 134.773 63.7487 134.773C64.7102 134.773 64.2519 136.085 64.6953 136.904C64.8572 136.356 65.1885 135.269 65.3628 134.171L65.5248 131.608C65.5547 131.414 65.3578 130.001 66.0329 130.001L66.0653 130.003C66.6706 130.049 66.6582 131.552 66.9098 134.093C66.9895 133.802 67.0692 133.449 67.129 133.124C67.1215 132.951 67.2461 132.186 67.3357 131.783C67.2137 131.074 67.2834 129.957 68.0033 130.063C68.362 130.115 68.3346 131.675 68.3346 131.675C68.3296 131.89 68.3097 133.537 68.3197 133.864C68.3944 133.309 68.6834 130.951 69.2463 130.951C69.7121 130.951 69.7495 131.585 69.742 132.088C69.7346 132.386 69.4406 134.942 69.4257 135.24C69.6449 134.853 69.9065 132.599 70.1257 132.599C71.0374 132.599 70.7086 135.801 70.3723 136.637C70.3399 136.723 70.3075 136.89 70.2701 137.083C70.1556 137.655 69.9637 138.61 69.488 139.466C68.9125 140.494 68.1229 142.129 68.0033 142.379C67.9136 142.89 67.6421 144.727 67.2959 147.037C67.1464 148.026 66.987 149.11 66.8176 150.231L66.8076 150.229C66.7777 150.473 66.6058 151.245 65.9582 154.145C65.0689 158.111 64.9767 158.282 64.9369 158.355C64.5508 159.07 55.7077 171.671 55.3315 172.207L55.1098 172.524L51.3857 167.262" fill="#FFB3C5"/>
<path d="M66.644 139.144C66.644 139.144 65.9787 137.357 64.7935 137.353C64.7935 137.353 65.4538 137.103 66.023 137.574C66.5898 138.047 66.644 139.144 66.644 139.144Z" fill="#EA94AD"/>
<path d="M49.4064 135.691L48.3491 142.699C48.3491 142.699 52.3741 146.087 54.717 145.372C56.6874 144.774 55.337 142.074 55.337 142.074C55.337 142.074 54.2893 138.333 54.6089 136.373C54.9333 134.413 49.4064 135.691 49.4064 135.691Z" fill="#FFB3C5"/>
<path d="M50.1639 137.81C51.1705 138.31 53.1648 138.992 54.719 139.157C54.5707 138.177 54.4847 137.138 54.609 136.373C54.7597 135.468 53.6621 135.254 52.4355 135.285C50.8334 135.429 49.4059 135.691 49.4059 135.691L49.2026 137.038C49.5063 137.376 49.8291 137.643 50.1639 137.81" fill="#EA94AD"/>
<path d="M44.3292 127.61C44.1632 127.612 45.9189 135.437 48.6365 136.784C51.3541 138.131 55.4088 137.428 56.1688 135.32C57.0105 132.989 53.9418 125.004 50.1179 123.99C46.2964 122.975 44.3292 127.61 44.3292 127.61Z" fill="#FFB3C5"/>
<path d="M47.4726 120.419C45.3039 121.734 44.3053 123.682 43.9693 124.48C42.9517 124.987 41.7195 126.085 41.1261 129.043C40.3992 132.677 42.985 135.481 45.7281 136.323C48.4712 137.166 48.905 139.015 48.905 139.015L49.21 137.032C49.21 137.032 48.5975 135.237 47.68 134.343C46.7624 133.45 48.1161 132.149 48.2353 131.088C48.3234 130.269 47.7491 128.682 47.8754 127.34C47.8754 127.34 49.4007 124.917 50.9021 124.318C53.4641 123.297 50.2586 118.733 47.4726 120.419" fill="#472A6A"/>
<path d="M48.6299 132.449C48.9857 133.354 48.8396 134.25 48.3048 134.453C47.7724 134.657 47.0492 134.088 46.6958 133.185C46.3377 132.28 46.4838 131.384 47.0185 131.179C47.5533 130.977 48.2742 131.546 48.6299 132.449" fill="#FFB3C5"/>
<path d="M58.7534 167.455L74.5735 164.749C74.5735 164.749 72.7744 159.995 72.1311 159.995C71.4879 159.995 60.1681 165.179 60.1681 165.179L59.2685 167.076L58.7534 167.455Z" fill="#FFB3C5"/>
<path d="M50.6479 178.837C50.6479 178.837 49.071 186.843 49.7154 192.913C50.3574 198.982 50.4062 220.545 50.4062 220.545L47.9531 255.048L53.7771 255.179C53.7771 255.179 60.6824 220.695 60.5531 221.582C60.4237 222.465 62.8695 197.3 62.8695 197.3L54.6388 178.078L50.6479 178.837" fill="#E25A74"/>
<path d="M51.9237 178.505C51.9237 178.505 50.8975 185.713 52.1827 188.874C53.4679 192.035 63.2161 223.055 63.3444 225.584C63.4727 228.114 66.7145 256.069 66.7145 256.069L73.4875 255.871L74.9512 224.79L71.8854 185.725L68.9051 175.849L51.9237 178.505" fill="#F36B80"/>
<path d="M48.3501 142.699C48.3501 142.699 50.0192 143.848 51.5758 143.714C53.1348 143.581 55.3379 142.073 55.3379 142.073L55.0314 140.985C55.0314 140.985 51.0035 140.37 50.9005 140.437C50.7975 140.504 48.3501 142.699 48.3501 142.699" fill="#FFB3C5"/>
<path d="M66.1479 159.759C66.1479 159.759 72.132 165.684 74.8347 164.673C77.5349 163.662 78.654 160.203 72.0609 155.143C66.1632 150.616 66.1479 159.759 66.1479 159.759Z" fill="#FFB3C5"/>
<path d="M70.2023 167.075C69.3128 162 62.8691 146.209 62.3544 143.3C62.1071 141.886 58.6316 141.855 55.321 142.041C51.8231 142.235 48.3476 142.7 48.3476 142.7C48.3476 142.7 45.2544 143.231 43.8927 144.572C42.531 145.911 42.1687 149.613 44.1251 156.642C45.6717 162.19 47.5856 165.238 48.535 169.279C48.7274 170.634 48.8923 171.973 49.1097 173.535C49.457 179.579 49.1047 187.562 49.1047 187.562C49.1047 187.562 65.9573 191.23 72.2611 185.665C72.2611 185.665 71.1143 172.275 70.2023 167.075" fill="#F2F2F2"/>
<path d="M74.4989 156.165C74.4989 156.165 67.8866 161.89 67.4997 161.89C67.251 161.89 58.0637 154.799 55.9433 148.974C54.7701 145.755 57.2296 142.152 60.0408 142.164C61.9853 142.172 62.852 142.698 66.7109 146.113C70.5697 149.526 74.4989 156.165 74.4989 156.165" fill="#E1DDE7"/>
<path d="M347.679 90.0339H258.374C256.78 90.0339 255.489 88.7425 255.489 87.1497V76.298C255.489 74.7052 256.78 73.4138 258.374 73.4138H347.679C349.273 73.4138 350.564 74.7052 350.564 76.298V87.1497C350.564 88.7425 349.273 90.0339 347.679 90.0339" fill="#E1DDE7"/>
<path d="M279.329 24.3297C280.207 20.0424 278.188 15.7919 274.331 14.1965C274.357 11.7565 273.396 9.30931 271.731 7.63899C268.455 4.34392 261.701 2.91901 259.291 7.11933C256.106 8.92527 256.307 11.1673 257.257 14.7298C254.171 17.9341 255.3 23.1794 259.796 25.9172C259.724 29.5116 259.633 34.9333 262.769 36.4695C263.521 36.8383 264.699 37.3523 264.848 37.5119C264.65 37.3257 267.17 44.3573 274.996 41.1389C282.981 37.8553 284.532 28.6121 279.329 24.3297" fill="#472A6A"/>
<path d="M246.151 53.262C246.778 52.6425 247.886 52.093 247.819 52.0019C247.556 51.6329 244.824 54.458 245.006 53.6618C245.102 53.2186 247.059 50.9118 247.753 50.8255C248.427 50.7414 252.787 50.0541 252.787 50.0541L262.859 43.3641C262.859 43.3641 263.356 35.4507 261.217 30.1202C263.556 29.4077 264.012 29.255 266.414 29.4406C267.782 34.8479 269.258 43.9562 267.478 46.6106C266.729 47.7273 253.64 52.0452 253.64 52.0452C253.64 52.0452 250.807 53.1112 250.277 53.1442C249.877 53.1694 248.776 53.0775 248.238 53.1608C247.015 53.3509 245.499 55.1694 245.395 54.9597C245.321 54.807 245.51 53.8952 246.151 53.262" fill="#EA94AD"/>
<path d="M259.996 29.4865C260.94 27.7379 261.914 26.3507 261.914 26.3507C262.896 24.6017 265.429 23.7171 265.429 23.7171C265.429 23.7171 266.276 23.7343 267.25 23.7822C267.314 23.9444 267.374 24.0597 267.434 24.1062C267.801 24.3815 269.896 24.0264 271.252 24.9485C275.79 28.8502 274.535 47.7638 274.179 53.7369L262.847 53.7856C262.847 53.7856 262.098 41.0149 259.287 37.7128C257.331 35.4129 258.59 32.0804 259.996 29.4865Z" fill="#F36B80"/>
<path d="M256.888 96.0274C256.764 95.8038 255.191 92.007 253.903 90.3162C252.035 87.8605 235.88 65.6259 236.548 60.2149C236.836 57.8515 243.839 55.8477 244.667 55.7054C249.123 56.3021 244.441 60.1354 247.787 63.2862C245.612 64.0299 244.332 64.9588 244.802 65.5701C246.682 68.0181 256.684 87.7445 257.118 87.9995C259.052 89.1341 259.815 88.6078 259.815 88.6078C259.815 88.6078 259.37 99.7038 258.443 99.3536C257.52 99.0035 258.26 98.5494 256.888 96.0274" fill="#EA94AD"/>
<path d="M260.631 88.6778L258.764 99.8562C258.344 101.303 257.638 101.287 257.456 101.093C257.083 100.694 256.915 97.7094 256.867 96.0122C257.711 93.4231 257.631 88.5485 257.112 87.9985C258.384 88.0215 260.631 88.4295 260.631 88.6778Z" fill="#E25A74"/>
<path d="M253.953 61.2887C251.445 57.135 251.582 57.6608 247.218 55.784C245.469 56.486 239.619 60.1504 238.878 60.8279L248.182 67.5723C247.879 66.8179 251.116 63.0734 253.953 61.2887" fill="#FFB3C5"/>
<path d="M266.227 17.3181C266.227 17.3181 266.985 22.7603 267.518 24.083C268.047 25.4053 264.599 28.234 261.728 29.0923C258.861 29.9509 262.605 26.1711 262.486 24.7571C262.368 23.3435 261.846 16.6495 261.846 16.6495L266.227 17.3181Z" fill="#FFB3C5"/>
<path d="M261.991 18.5695C261.906 17.4624 261.847 16.6499 261.847 16.6499L266.227 17.3182C266.227 17.3182 266.337 17.9577 266.459 18.862C264.681 19.8946 263.086 19.569 261.991 18.5695" fill="#EA94AD"/>
<path d="M264.85 7.37836C264.85 7.37836 266.578 7.76863 267.643 9.39975C268.711 11.0312 269.441 15.8334 265.929 18.0754C262.418 20.3165 259.689 17.1458 259.644 14.0533C259.6 10.9604 260.26 6.83317 264.85 7.37836" fill="#FFB3C5"/>
<path d="M258.842 13.0853C259.142 13.8312 259.734 14.2944 260.169 14.1195C260.6 13.9445 260.709 13.1979 260.41 12.4516C260.11 11.7054 259.514 11.2418 259.083 11.4168C258.652 11.5921 258.542 12.3387 258.842 13.0853Z" fill="#FFB3C5"/>
<path d="M267.698 13.6985C267.446 14.5026 267.68 15.2937 268.222 15.4662C268.763 15.6391 269.409 15.1272 269.661 14.3231C269.918 13.5193 269.684 12.7278 269.142 12.5549C268.6 12.3828 267.954 12.8947 267.698 13.6985Z" fill="#FFB3C5"/>
<path d="M254.467 54.104C256.406 53.926 262.82 53.2751 262.82 53.2751L274.201 51.7458C274.201 51.7458 276.212 56.5484 276.287 59.5616C276.426 64.832 271.936 68.5459 267.783 68.291C265.315 68.1391 252.332 67.9494 248.232 67.9802C247.67 63.6863 247.021 58.6018 244.125 55.5122C248.761 54.8756 251.833 54.3455 254.467 54.104Z" fill="#5C407B"/>
<path d="M254.32 93.8592C254.008 93.5368 251.513 76.4684 250.005 69.3046C249.642 67.5795 248.545 66.0991 246.998 65.2547L238.88 60.8273C236.065 63.3979 249.188 92.2688 250.39 95.2949C251.218 97.3787 251.738 101.683 251.796 101.945C252.471 104.897 251.593 105.147 252.432 105.766C253.271 106.386 257.037 95.6089 257.037 95.6089C257.037 95.6089 255.966 95.5639 254.32 93.8592" fill="#FFB3C5"/>
<path d="M256.765 54.8469C256.765 55.2769 256.369 55.6264 255.883 55.6274L242.094 55.6601C241.604 55.6612 241.114 55.2388 240.958 54.7163L241.209 54.8839C241.209 54.454 241.601 54.1045 242.091 54.1035L255.879 54.0708C256.366 54.0697 256.761 54.4173 256.765 54.8469Z" fill="#31DAE7"/>
<path d="M242.232 55.3779C242.314 55.3779 242.399 55.3729 242.481 55.3623C243.194 55.2721 243.663 54.8169 243.528 54.3457L238.263 36.1463C238.128 35.6748 237.44 35.365 236.726 35.4555C236.013 35.5456 235.544 36.0009 235.682 36.4724L240.944 54.6718C241.064 55.0883 241.615 55.3779 242.232 55.3779" fill="#31DAE7"/>
<path d="M246.291 52.9129C247.082 52.5185 248.305 52.3384 248.271 52.2318C248.137 51.7998 244.628 54.0338 245.045 53.3322C245.276 52.9419 247.884 50.9599 248.574 51.093C249.237 51.2212 253.594 51.9179 253.594 51.9179L264.809 47.8674C264.809 47.8674 266.946 40.8976 266.566 35.1678C269.012 35.214 270.717 35.6196 272.943 36.5403C272.571 42.1058 271.146 51.222 268.632 53.1943C267.573 54.0237 253.788 54.0752 253.788 54.0752C253.788 54.0752 250.767 54.2112 250.252 54.0793C249.864 53.9794 248.846 53.5503 248.309 53.4631C247.085 53.2644 245.083 54.524 245.049 54.2925C245.023 54.124 245.485 53.3158 246.291 52.9129" fill="#FFB3C5"/>
<path d="M265.787 29.0882C265.944 27.3271 266.161 25.5526 267.957 24.7915C269.07 24.3193 270.4 24.4921 271.412 25.1398C272.611 25.9098 273.085 27.3144 273.238 28.6776C273.585 31.7735 273.75 35.0067 273.541 38.119C271.315 37.1985 268.286 37.6857 265.843 37.6394C265.298 34.9119 265.586 31.3834 265.787 29.0882Z" fill="#E25A74"/>
<path d="M247.959 51.2498C246.043 51.7398 246.151 51.7036 246.075 51.7523C244.718 52.6051 244.826 52.9747 246.902 52.084C246.96 52.0615 247.013 52.0504 247.071 52.0511L248.059 52.0618C248.439 52.0658 248.621 51.5927 248.335 51.34C248.234 51.2498 248.091 51.2159 247.959 51.2498" fill="#FFB3C5"/>
<path d="M251.71 101.315C251.71 101.315 251.793 102.669 251.335 103.755C250.881 104.84 249.14 105.248 249.562 105.808C249.983 106.368 253.345 105.808 253.345 105.808L257.234 96.2991C257.394 95.9464 257.303 95.5319 257.012 95.2769C256.543 94.8672 255.689 94.2856 254.337 93.881C254.337 93.881 254.544 99.8454 251.71 101.315" fill="#F36B80"/>
<path d="M335.021 96.6395C335.021 97.8692 334.022 98.8662 332.793 98.8662C331.564 98.8662 330.565 97.8692 330.565 96.6395C330.565 95.4099 331.564 94.4132 332.793 94.4132C334.022 94.4132 335.021 95.4099 335.021 96.6395Z" fill="#31DAE7"/>
<path d="M341.855 96.6395C341.855 97.8688 340.859 98.8657 339.626 98.8657C338.401 98.8657 337.4 97.8688 337.4 96.6395C337.4 95.4098 338.401 94.4133 339.626 94.4133C340.859 94.4133 341.855 95.4098 341.855 96.6395Z" fill="#31DAE7"/>
<path d="M348.462 96.6394C348.462 97.869 347.464 98.866 346.236 98.866C345.007 98.866 344.009 97.869 344.009 96.6394C344.009 95.4098 345.007 94.4128 346.236 94.4128C347.464 94.4128 348.462 95.4098 348.462 96.6394Z" fill="#31DAE7"/>
<path d="M345.491 81.7248C345.491 85.4972 342.43 88.5552 338.656 88.5552C334.882 88.5552 331.822 85.4972 331.822 81.7248C331.822 77.9519 334.882 74.8939 338.656 74.8939C342.43 74.8939 345.491 77.9519 345.491 81.7248Z" fill="#F36B80"/>
<path d="M210.377 231.317H161.434V226.004H210.377V231.317Z" fill="#472A6A"/>
<path d="M330.29 156.398C333.859 156.198 335.888 160.484 333.48 163.141C333.044 163.618 332.809 164.244 332.797 164.888L332.743 167.104C332.731 167.715 332.25 168.211 331.636 168.245L330.286 168.322C329.677 168.355 329.142 167.917 329.06 167.311C328.755 165.103 328.805 164.267 327.883 163.458C325.187 161.087 326.722 156.6 330.29 156.398" fill="#31DAE7"/>
<path d="M328.493 159.69C328.296 159.79 328.276 160.101 328.395 160.289C328.567 160.56 328.94 160.687 329.256 160.785C329.203 160.416 329.174 160.091 329.01 159.87C328.895 159.713 328.514 159.678 328.493 159.69V159.69ZM331.878 160.051C331.705 160.301 331.66 160.61 331.656 160.941C332.087 160.866 332.362 160.718 332.497 160.489C332.719 160.107 332.267 159.488 331.878 160.051ZM331.796 165.674C331.619 163.883 331.492 161.904 331.467 161.164C330.807 161.248 330.138 161.208 329.49 161.05C329.712 162.526 329.896 164.021 330.04 165.501L329.847 165.52C329.703 164.014 329.515 162.494 329.289 160.995C328.899 160.883 328.448 160.728 328.235 160.393C328.132 160.234 328.104 160.024 328.153 159.842C328.284 159.361 328.871 159.357 329.166 159.755C329.359 160.02 329.392 160.378 329.461 160.843C330.11 161.014 330.795 161.058 331.463 160.97C331.463 160.595 331.513 160.241 331.722 159.943C332.444 158.894 333.654 160.806 331.656 161.137C331.673 161.717 331.796 163.747 331.988 165.655L331.796 165.674" fill="white"/>
<path d="M332.801 164.832C332.801 164.85 332.796 164.869 332.796 164.888L332.743 167.105C332.731 167.715 332.247 168.211 331.637 168.245L330.285 168.322C329.674 168.356 329.142 167.917 329.06 167.311C328.921 166.329 328.859 165.618 328.749 165.061L332.801 164.832" fill="#F36B80"/>
<path d="M332.493 154.261L333.103 152.155C333.161 151.95 333.046 151.738 332.841 151.68C332.636 151.619 332.423 151.738 332.366 151.94L331.751 154.048C331.693 154.253 331.812 154.465 332.017 154.523C332.218 154.584 332.431 154.465 332.493 154.261Z" fill="#31DAE7"/>
<path d="M335.753 158.302L337.954 157.605C338.157 157.543 338.268 157.326 338.202 157.124C338.14 156.922 337.925 156.809 337.719 156.874L335.521 157.57C335.319 157.633 335.208 157.849 335.27 158.052C335.336 158.254 335.55 158.367 335.753 158.302" fill="#31DAE7"/>
<path d="M339.513 164.68C339.625 164.5 339.571 164.263 339.393 164.15C338.719 163.729 338.003 163.37 337.258 163.083C337.063 163.005 336.84 163.103 336.761 163.302C336.687 163.5 336.786 163.723 336.98 163.8C337.676 164.069 338.35 164.407 338.984 164.803C339.162 164.913 339.402 164.861 339.513 164.68" fill="#31DAE7"/>
<path d="M326.922 155.396C327.113 155.297 327.186 155.066 327.089 154.878C326.622 153.984 326.248 153.038 325.976 152.068C325.919 151.864 325.703 151.743 325.5 151.801C325.297 151.86 325.175 152.07 325.232 152.275C325.521 153.296 325.915 154.293 326.406 155.233C326.504 155.423 326.739 155.494 326.922 155.396Z" fill="#31DAE7"/>
<path d="M325.259 158.794C325.275 158.581 325.113 158.398 324.902 158.381L322.415 158.2C322.201 158.183 322.018 158.341 322.002 158.554C321.986 158.766 322.148 158.95 322.359 158.965L324.846 159.148C325.056 159.163 325.243 159.007 325.259 158.794Z" fill="#31DAE7"/>
<path d="M322.812 165.849C322.844 165.841 322.88 165.83 322.913 165.812C323.67 165.405 324.383 164.915 325.039 164.356C325.197 164.219 325.218 163.975 325.08 163.814C324.942 163.654 324.699 163.635 324.537 163.773C323.926 164.296 323.257 164.755 322.548 165.136C322.358 165.236 322.289 165.47 322.39 165.655C322.475 165.812 322.65 165.887 322.812 165.849Z" fill="#31DAE7"/>
<path d="M99.5616 180.767C103.129 180.565 105.159 184.854 102.748 187.51C102.313 187.988 102.081 188.611 102.065 189.255L102.014 191.472C102 192.083 101.517 192.581 100.909 192.614L99.5562 192.691C98.946 192.725 98.4113 192.285 98.3276 191.68C98.0252 189.472 98.0738 188.636 97.1529 187.825C94.4607 185.456 95.9945 180.967 99.5616 180.767" fill="#31DAE7"/>
<path d="M97.7619 184.057C97.5631 184.16 97.5443 184.468 97.6678 184.658C97.8371 184.929 98.2105 185.056 98.5275 185.152C98.4711 184.785 98.4416 184.46 98.2804 184.237C98.1649 184.08 97.7834 184.047 97.7619 184.057V184.057ZM101.147 184.42C100.975 184.67 100.929 184.979 100.924 185.311C101.359 185.235 101.633 185.085 101.765 184.858C101.991 184.477 101.537 183.855 101.147 184.42V184.42ZM101.066 190.044C100.886 188.253 100.76 186.274 100.736 185.534C100.078 185.617 99.4061 185.575 98.7613 185.417C98.9816 186.893 99.1697 188.39 99.312 189.87L99.1213 189.889C98.9735 188.384 98.7855 186.862 98.5598 185.363C98.1702 185.25 97.7189 185.098 97.504 184.76C97.4046 184.604 97.3723 184.393 97.4234 184.212C97.555 183.73 98.1434 183.724 98.4335 184.124C98.627 184.389 98.6592 184.746 98.7317 185.21C99.3819 185.381 100.064 185.427 100.733 185.34C100.733 184.964 100.784 184.61 100.988 184.312C101.711 183.263 102.926 185.175 100.927 185.504C100.945 186.086 101.066 188.117 101.26 190.023L101.066 190.044" fill="white"/>
<path d="M102.069 189.202C102.066 189.22 102.064 189.237 102.064 189.256L102.013 191.472C101.999 192.083 101.517 192.581 100.908 192.615L99.5565 192.692C98.9451 192.725 98.4088 192.285 98.3257 191.681C98.1943 190.699 98.1273 189.988 98.0146 189.429L102.069 189.202" fill="#F36B80"/>
<path d="M101.761 178.631L102.37 176.525C102.429 176.321 102.311 176.106 102.107 176.048C101.904 175.989 101.691 176.106 101.632 176.31L101.021 178.418C100.964 178.621 101.08 178.835 101.284 178.894C101.488 178.952 101.702 178.833 101.761 178.631" fill="#31DAE7"/>
<path d="M105.026 182.671L107.225 181.974C107.429 181.91 107.54 181.695 107.475 181.493C107.41 181.291 107.195 181.178 106.994 181.241L104.792 181.937C104.589 182.002 104.477 182.218 104.543 182.421C104.608 182.623 104.822 182.736 105.026 182.671" fill="#31DAE7"/>
<path d="M108.785 189.049C108.897 188.869 108.842 188.632 108.663 188.519C107.99 188.096 107.274 187.737 106.533 187.452C106.334 187.374 106.111 187.472 106.035 187.67C105.958 187.869 106.056 188.092 106.253 188.167C106.95 188.438 107.622 188.774 108.254 189.17C108.434 189.282 108.671 189.23 108.785 189.049Z" fill="#31DAE7"/>
<path d="M96.1963 179.765C96.3843 179.666 96.4584 179.435 96.3605 179.245C95.8919 178.353 95.5187 177.406 95.246 176.435C95.1905 176.23 94.976 176.112 94.7722 176.17C94.5684 176.226 94.4493 176.439 94.5049 176.643C94.7934 177.665 95.1878 178.66 95.6775 179.602C95.7755 179.792 96.011 179.863 96.1963 179.765Z" fill="#31DAE7"/>
<path d="M94.5281 183.161C94.5439 182.951 94.3857 182.765 94.1723 182.751L91.6845 182.567C91.4711 182.553 91.2866 182.711 91.2734 182.924C91.255 183.134 91.4157 183.32 91.6265 183.335L94.1169 183.518C94.3278 183.533 94.5122 183.374 94.5281 183.161Z" fill="#31DAE7"/>
<path d="M92.0839 190.219C92.1181 190.21 92.1498 190.198 92.1814 190.181C92.9403 189.775 93.6543 189.284 94.3078 188.726C94.4711 188.586 94.4896 188.344 94.35 188.184C94.2129 188.021 93.9705 188.002 93.8071 188.14C93.1958 188.665 92.5266 189.122 91.8177 189.503C91.6307 189.605 91.5595 189.837 91.6597 190.025C91.744 190.179 91.9205 190.254 92.0839 190.219" fill="#31DAE7"/>
<path d="M358.529 271.258C358.737 270.969 358.418 270.633 357.937 270.633H282.445C276.529 270.633 271.732 273.846 271.732 277.811C271.732 281.777 276.529 284.99 282.445 284.99H357.958C358.444 284.99 358.759 284.653 358.55 284.363C355.558 280.214 355.566 275.389 358.529 271.258Z" fill="#5C407B"/>
<path d="M357.925 272.178H307.27C303.532 272.178 300.497 274.64 300.497 277.678V278.091C300.497 281.129 303.532 283.591 307.27 283.591H358.031C355.765 279.934 355.739 275.835 357.925 272.178" fill="#E1DDE7"/>
<path d="M283.903 269.995H323.484C326.991 269.995 329.838 266.928 329.838 263.146C329.838 259.364 326.991 256.297 323.484 256.297H283.903C286.93 260.093 287.048 265.665 284.185 269.605L283.903 269.995Z" fill="#E1DDE7"/>
<path d="M329.318 263.146C329.318 259.364 326.438 256.297 322.887 256.297H283.183C282.997 256.297 282.85 256.136 282.85 255.938C282.854 255.744 283.002 255.588 283.183 255.588H346.17C350.088 255.588 353.264 258.972 353.264 263.146C353.264 267.32 350.088 270.704 346.17 270.704H283.183C283.002 270.704 282.854 270.548 282.85 270.354C282.85 270.156 282.997 269.995 283.183 269.995H322.887C326.438 269.995 329.318 266.928 329.318 263.146" fill="#F36B80"/>
<path d="M294.317 254.876H333.896C337.404 254.876 340.25 251.81 340.25 248.027C340.25 244.245 337.404 241.178 333.896 241.178H294.317C297.345 244.975 297.461 250.546 294.599 254.489L294.317 254.876Z" fill="#E1DDE7"/>
<path d="M339.728 248.027C339.728 244.245 336.852 241.178 333.302 241.178H293.598C293.414 241.178 293.264 241.017 293.264 240.82C293.268 240.625 293.414 240.469 293.598 240.469H356.582C360.499 240.469 363.675 243.853 363.675 248.027C363.675 252.201 360.499 255.588 356.582 255.588H293.598C293.414 255.588 293.268 255.429 293.264 255.235C293.264 255.037 293.414 254.876 293.598 254.876H333.302C336.852 254.876 339.728 251.809 339.728 248.027Z" fill="#31DAE7"/>
<path d="M332.12 277.931H327.884C326.976 277.931 326.235 278.212 326.235 278.56V278.617H332.12V277.931" fill="#E25A74"/>
<path d="M335.733 279.511C335.733 278.637 334.631 277.931 333.264 277.931H327.829C328.866 277.931 329.705 278.467 329.705 279.13L329.676 296.081L332.68 293.902L335.742 296.081L335.733 279.511" fill="#F36B80"/>
<path d="M296.161 237.594L299.775 236.752C299.775 236.752 302.704 236.935 305.432 236.383C305.432 236.383 305.707 237.106 305.829 238.605C305.849 238.864 305.479 240.151 305.22 240.19C304.292 240.332 302.657 240.169 299.755 240.238C299.755 240.238 295.186 240.776 292.741 239.969C290.299 239.164 296.161 237.594 296.161 237.594Z" fill="#5C407B"/>
<path d="M336.049 178.537C336.25 180.632 338.007 181.37 339.647 182.694C340.749 183.585 340.557 185.988 339.718 187.479C337.585 191.262 339.401 191.726 341.12 194.503C345.256 201.19 332.435 202.668 330.916 203.167C329.397 203.665 328.362 204.267 327.465 204.169C324.752 203.87 322.269 200.016 320.896 196.453C319.519 192.89 322.857 192.7 323.029 190.655C323.2 188.607 319.289 188.167 320.449 184.302C321.706 180.121 323.475 176.575 325.829 175.305C329.718 173.201 334.451 175.401 335.528 177.09C335.849 177.594 336.003 178.08 336.049 178.537" fill="#472A6A"/>
<path d="M336.35 224.319C336.685 225.157 338.54 228.122 338.54 228.122L312.512 228.381L312.103 223.043C319.251 222.987 326.317 219.828 332.9 217.568C333.065 217.972 336.185 223.912 336.35 224.319Z" fill="#FAE0B2"/>
<path d="M317.895 203.846C317.895 203.846 319.294 193.984 321.542 192.961C323.789 191.937 335.965 193.357 337.786 194.468C339.611 195.581 336.577 207.162 336.11 210.402C336.081 210.595 336.052 210.789 336.023 210.983C335.253 215.66 335.696 220.445 337.347 224.87C330.684 226.892 328.954 228.003 321.811 227.803L319.145 212.207C319.145 212.207 317.026 204.659 317.895 203.846" fill="#31DAE7"/>
<path d="M331.213 186.47C331.213 186.47 331.774 191.899 332.253 193.231C332.733 194.564 330.967 197.272 328.087 198.023C325.207 198.771 327.305 195.129 327.235 193.721C327.169 192.314 326.891 185.65 326.891 185.65L331.213 186.47Z" fill="#FFB3C5"/>
<path d="M331.28 187.095C330.921 187.502 330.491 187.871 329.964 188.179C328.877 188.819 327.879 188.961 327.021 188.763C326.951 187.085 326.89 185.65 326.89 185.65L331.215 186.47C331.215 186.47 331.235 186.709 331.28 187.095" fill="#EA94AD"/>
<path d="M330.205 176.554C330.205 176.554 331.905 177.002 332.903 178.659C333.905 180.317 334.459 185.11 330.895 187.21C327.33 189.31 324.734 186.065 324.796 182.994C324.861 179.923 325.666 175.849 330.205 176.554" fill="#FFB3C5"/>
<path d="M323.714 181.708C323.754 182.504 324.159 183.132 324.625 183.109C325.087 183.084 325.432 182.419 325.395 181.62C325.355 180.824 324.945 180.196 324.484 180.219C324.018 180.244 323.673 180.909 323.714 181.708Z" fill="#FFB3C5"/>
<path d="M332.803 182.93C332.524 183.718 332.725 184.512 333.26 184.704C333.79 184.894 334.448 184.408 334.731 183.62C335.011 182.83 334.809 182.038 334.275 181.846C333.745 181.656 333.087 182.139 332.803 182.93Z" fill="#FFB3C5"/>
<path d="M337.786 194.468C337.786 194.468 335.711 195.556 334.439 198.594C333.166 201.63 337.503 217.128 338.427 218.12C339.35 219.113 341.907 219.269 342.344 216.842C342.78 214.415 341.308 195.235 337.786 194.468Z" fill="#34BED1"/>
<path d="M325.371 192.393L328.951 213.877L315.016 216.123L310.597 196.026C310.597 196.026 322.059 191.387 325.371 192.393Z" fill="#E1DDE7"/>
<path d="M298.479 193.056C299.812 192.533 301.262 192.399 302.668 192.673C305.275 193.184 309.42 194.239 311.086 196.025C313.593 198.724 315.918 216.563 315.918 216.563L305.088 214.134L298.479 193.056" fill="#E1DDE7"/>
<path d="M335.741 229.807C333.917 224.751 313.283 206.349 307.815 207.764L310.749 218.988C310.749 218.988 316.819 237.423 322.892 239.617C328.978 241.817 334.524 239.313 334.524 239.313C334.524 239.313 337.561 234.863 335.741 229.807Z" fill="#8B5DD0"/>
<path d="M328.33 200.281C328.076 200.794 329.715 201.711 330.194 202.057C330.669 202.406 332.647 202.047 332.647 202.047C332.647 202.047 328.617 199.71 328.33 200.281Z" fill="#FFB3C5"/>
<path d="M310.698 224.334C310.698 224.334 305.453 235.228 305.437 236.362C305.413 237.994 297.855 237.546 299.495 236.848C299.871 236.687 301.064 236.085 301.155 236.007C301.642 235.586 305.992 222.059 305.992 222.059L310.698 224.334Z" fill="#EA94AD"/>
<path d="M312.371 211.302C312.119 211.023 309.461 209.968 307.413 212.516C305.369 215.063 301.446 234.896 301.446 234.896L306.267 235.369C306.267 235.369 318.27 217.807 312.371 211.302" fill="#8B5DD0"/>
<path d="M296.77 196.432L302.973 214.511C303.222 215.235 303.843 215.756 304.579 215.86C310.393 216.684 313.429 217.101 313.429 217.101C313.429 217.101 314.565 217.159 315.767 217.176L329.084 215.756C330.24 215.631 331.049 214.509 330.833 213.325L327.592 195.575C327.392 194.479 326.383 193.747 325.32 193.926L312.51 196.078C311.378 196.047 310.275 196.017 309.143 195.988L299.066 193.732C297.542 193.39 296.247 194.912 296.77 196.432" fill="#F36B80"/>
<path d="M323.871 205.224C323.871 205.224 327.445 205.887 328.663 205.85C329.885 205.812 331.469 206.198 331.469 206.198C331.469 206.198 335.459 215.572 336.028 216.619C337.736 219.74 342.474 219.373 342.396 216.769C342.333 214.701 334.241 201.728 332.092 201.792C329.939 201.857 323.206 200.454 323.006 201.309C322.894 201.77 329.208 201.984 328.21 202.374C327.591 202.618 322.653 202.062 322.674 202.643C322.691 203.225 327.134 203.279 327.612 203.729C328.09 204.18 322.882 203.179 322.911 204.165C322.927 204.662 327.499 204.303 328.002 205.055C328.21 205.37 323.493 204.247 323.871 205.224Z" fill="#FFB3C5"/>
<path d="M299.772 203.695C299.49 203.574 299.166 203.732 299.095 204.03C299.025 204.332 299.009 204.699 299.236 204.943C299.682 205.425 302.813 205.886 302.828 205.421C302.84 205.062 300.742 204.116 299.772 203.695Z" fill="#FFB3C5"/>
<path d="M299.163 204.907C299.163 204.907 298.85 206.079 299.124 206.09C299.394 206.098 302.776 206.434 302.929 206.031C303.078 205.629 299.602 204.672 299.163 204.907Z" fill="#FFB3C5"/>
<path d="M299.021 206.117C299.021 206.117 298.923 206.636 299.205 206.938C299.483 207.238 302.633 207.04 302.75 206.542C302.864 206.042 299.13 205.733 299.021 206.117" fill="#FFB3C5"/>
<path d="M299.5 207.216C299.5 207.216 299.496 207.614 299.653 207.785C299.813 207.954 302.14 207.718 302.371 207.222C302.602 206.728 299.77 206.703 299.5 207.216Z" fill="#FFB3C5"/>
<path d="M307.389 234.712C307.389 234.712 306.278 238.728 305.163 241.385C304.43 243.124 304.244 244.858 303.76 245.726C302.538 247.921 300.54 248.009 298.952 246.691C297.367 245.373 299.495 239.811 299.495 239.811L304.504 232.765L307.389 234.712" fill="#FFB3C5"/>
<path d="M303.76 245.726C304.188 244.954 304.388 243.501 304.938 241.966C304.172 242.41 302.885 242.746 302.186 242.558C299.622 241.875 299.497 239.81 299.497 239.81C299.497 239.81 296.823 245.511 298.409 246.829C299.995 248.148 302.539 247.921 303.76 245.726" fill="#5C407B"/>
<path d="M312.513 196.077L316.615 217.301L314.148 217.153L313.432 217.101L309.147 195.988L312.513 196.077Z" fill="#E25A74"/>
<path d="M326.802 238.376C328.208 240.96 330.995 240.591 333.526 240.591C336.417 240.591 339.382 239.39 340.208 236.193C341.087 232.776 339.93 228.549 337.902 225.868C327.511 212.151 327.433 210.8 323.297 208.978C318.834 207.01 302.251 235.32 302.251 235.32L306.806 237.644C306.806 237.644 313.633 231.94 317.996 226.938C318.511 226.35 319.971 223.306 319.971 223.306C319.971 223.306 325.873 236.669 326.802 238.376" fill="#B984F9"/>
<path d="M131.151 261.801C131.391 261.326 131.028 260.778 130.481 260.778H44.409C37.6645 260.778 32.1963 266.036 32.1963 272.524C32.1963 279.013 37.6645 284.271 44.409 284.271H130.504C131.057 284.271 131.417 283.719 131.177 283.243C127.769 276.453 127.777 268.559 131.151 261.801" fill="#F36B80"/>
<path d="M130.611 262.96H80.2104C76.632 262.96 73.731 267.364 73.731 272.793C73.731 278.225 76.632 282.626 80.2104 282.626H130.88C127.956 276.367 127.879 269.245 130.611 262.96Z" fill="#F2F2F2"/>
<path d="M102.147 270.418H96.593C95.3969 270.418 94.4287 270.7 94.4287 271.048V271.104H102.147V270.418" fill="#34BED1"/>
<path d="M106.886 271.999C106.886 271.125 105.433 270.419 103.643 270.419H96.5161C97.8743 270.419 98.9723 270.956 98.9723 271.617L98.9397 288.552L102.879 286.373L106.894 288.552L106.886 271.999" fill="#31DAE7"/>
<path d="M137.277 217.678L139.99 216.963L138.151 241.493L134.893 241.601L136.534 218.569C136.566 218.145 136.863 217.787 137.277 217.678" fill="#E4C4FF"/>
<path d="M138.394 242.194C138.332 242.2 138.271 242.198 138.207 242.192C137.666 242.127 137.269 241.591 137.316 240.993L139.121 217.928C139.171 217.33 139.644 216.896 140.184 216.961C140.725 217.026 141.122 217.561 141.075 218.158L139.267 241.224C139.226 241.752 138.852 242.152 138.394 242.194" fill="#F36B80"/>
<path d="M113.408 243.422C113.408 243.438 113.408 243.455 113.411 243.472C113.495 244.412 114.223 245.113 115.035 245.04L137.961 242.99C138.776 242.917 139.364 242.098 139.279 241.159C139.277 241.12 139.271 241.08 139.265 241.04L113.408 243.422" fill="#F36B80"/>
<path d="M129.37 268.198C127.871 269.03 123.282 267.57 123.282 267.439C123.214 268.692 118.14 280.962 118.14 280.962L118.145 284.736C118.145 284.736 128.598 285.234 128.447 284.311C128.299 283.389 127.738 283.99 125.649 282.245C125.464 282.09 122.538 281.411 123.33 279.68C124.926 276.192 128.313 270.375 129.37 268.198Z" fill="#FFB3C5"/>
<path d="M117.802 284.872L129.244 284.876C129.658 284.832 129.755 284.498 129.609 284.294C129.307 283.873 127.115 282.882 125.64 282.223C123.074 282.524 118.561 281.538 118.147 280.952C117.061 282.407 117.571 284.824 117.802 284.872" fill="#31DAE7"/>
<path d="M115.291 259.389C115.138 258.924 125.147 254.681 125.593 255.164C126.386 256.023 120.178 272.124 120.178 272.124L127.308 274.3C127.308 274.3 134.723 255.7 134.411 252.297C134.103 248.895 130.388 245.029 122.343 247.504C114.297 249.977 115.291 259.389 115.291 259.389Z" fill="#472A6A"/>
<path d="M136.008 270.314C134.32 270.006 132.13 269.92 130.376 269.889C130.585 271.449 131.585 279.447 131.402 279.939C130.66 281.928 129.013 282.86 129.013 282.86C129.013 282.86 136.782 289.868 137.252 289.059C137.722 288.247 136.907 288.356 136.399 285.687C136.353 285.449 135.231 281.723 135.161 279.713C135.028 275.881 135.95 272.443 136.008 270.314Z" fill="#FFB3C5"/>
<path d="M133.519 244.149C132.434 243.572 129.619 243.551 126.526 243.751C120.493 244.143 114.539 245.33 108.799 247.229L104.959 248.501L104.971 244.564C104.971 244.564 92.7583 242.523 92.33 245.548C91.6906 250.106 92.4863 259.358 96.5571 261.422C109.198 267.835 126.916 251.203 126.977 253.38C127.064 256.301 129.529 267.176 130.16 271.938C131.91 271.968 134.925 271.968 136.23 271.667C136.484 262.341 136.603 245.795 133.519 244.149" fill="#5C407B"/>
<path d="M128.78 283.024L137.512 289.996C137.861 290.226 138.148 290.028 138.163 289.778C138.197 289.263 137.129 287.107 136.406 285.664C134.229 284.269 131.358 280.633 131.41 279.918C130.493 280.695 128.632 282.841 128.78 283.024" fill="#31DAE7"/>
<path d="M109.009 206.114C108.714 203.435 108.406 200.743 106.185 198.779C104.384 197.188 102.098 196.92 99.8357 197.77C93.4261 200.181 96.729 205.87 88.5563 211.606C86.0164 213.387 83.2177 214.609 81.3046 217.009C78.6285 220.368 79.6423 224.408 82.0786 227.106C93.7504 240.014 106.777 222.58 107.711 218.395C108.409 215.282 109.199 207.841 109.009 206.114" fill="#F36B80"/>
<path d="M106.639 221.189C105.685 219.431 104.704 218.039 104.704 218.039C103.715 216.281 101.16 215.393 101.16 215.393C101.16 215.393 100.304 215.412 99.3259 215.459C99.2659 215.622 99.2032 215.739 99.1405 215.785C98.7725 216.06 96.6599 215.704 95.2915 216.631C90.7175 220.549 91.985 239.548 92.3421 245.548L106.277 245.68C106.277 245.68 104.519 232.769 107.351 229.452C109.322 227.142 108.054 223.795 106.639 221.189" fill="#31DAE7"/>
<path d="M100.361 208.967C100.361 208.967 99.5946 214.434 99.0594 215.762C98.5243 217.09 101.999 219.932 104.894 220.793C107.785 221.656 104.009 217.859 104.128 216.44C104.248 215.02 104.775 208.295 104.775 208.295L100.361 208.967" fill="#FFB3C5"/>
<path d="M104.626 210.223C104.71 209.111 104.772 208.296 104.772 208.296L100.358 208.968C100.358 208.968 100.245 209.61 100.124 210.517C101.912 211.555 103.523 211.228 104.626 210.223" fill="#EA94AD"/>
<path d="M101.743 198.982C101.743 198.982 100.002 199.374 98.9282 201.013C97.8543 202.652 97.1166 207.474 100.656 209.726C104.195 211.978 106.945 208.792 106.991 205.685C107.037 202.579 106.372 198.434 101.743 198.982" fill="#FFB3C5"/>
<path d="M107.799 204.714C107.497 205.465 106.897 205.93 106.462 205.753C106.024 205.577 105.915 204.827 106.217 204.078C106.519 203.328 107.12 202.863 107.555 203.04C107.992 203.215 108.101 203.966 107.799 204.714Z" fill="#FFB3C5"/>
<path d="M102.266 198.88C102.266 198.88 100.047 203.852 98.097 204.297C96.1495 204.741 96.1763 207.243 96.1763 207.243C96.1763 207.243 96.2192 201.465 98.0487 200.139C99.8729 198.813 102.266 198.88 102.266 198.88Z" fill="#F36B80"/>
<path d="M98.8714 205.331C99.1271 206.138 98.8927 206.932 98.3467 207.105C97.8007 207.281 97.1482 206.766 96.8925 205.959C96.6368 205.15 96.8712 204.355 97.4172 204.182C97.9632 204.009 98.6131 204.522 98.8714 205.331Z" fill="#FFB3C5"/>
<path d="M123.793 241.23C122.957 240.928 121.711 240.891 121.734 240.78C121.815 240.334 125.511 241.766 125.014 241.114C124.734 240.751 121.971 239.466 121.296 239.679C120.646 239.886 116.366 241.084 116.366 241.084L104.669 238.345C104.669 238.345 101.714 231.639 101.426 225.879C98.9848 226.208 97.3263 226.811 95.2046 227.987C96.2245 233.497 98.7135 242.427 101.462 244.104C102.618 244.808 116.425 243.259 116.425 243.259C116.425 243.259 119.465 243.044 119.965 242.855C120.341 242.709 121.313 242.163 121.838 242.012C123.039 241.673 125.18 242.527 125.186 242.292C125.189 242.121 124.646 241.539 123.793 241.23Z" fill="#FFB3C5"/>
<path d="M101.501 219.721C101.389 217.949 100.716 216.237 98.8294 215.687C97.6582 215.345 96.3477 215.672 95.4124 216.435C94.3002 217.342 93.9893 218.798 93.9947 220.178C94.0054 223.305 94.2198 226.552 94.7933 229.631C96.9132 228.455 99.3895 227.749 101.831 227.419C101.828 227.4 101.649 222.065 101.501 219.721" fill="#34BED1"/>
<path d="M215.532 55.9702H90.2091C89.1823 55.9702 88.3452 55.1363 88.3452 54.1079V43.8463C88.3452 42.818 89.1823 41.9841 90.2091 41.9841H215.532C216.562 41.9841 217.396 42.818 217.396 43.8463V54.1079C217.396 55.1363 216.562 55.9702 215.532 55.9702Z" fill="#F2F2F2"/>
<path d="M96.6008 44.62C95.3991 44.62 94.423 45.5953 94.423 46.7947V51.1088C94.423 52.3079 95.3991 53.2835 96.6008 53.2835H187.116C188.317 53.2835 189.293 52.3079 189.293 51.1088V46.7947C189.293 45.5953 188.317 44.62 187.116 44.62H96.6008ZM187.116 54.1161H96.6008C94.9417 54.1161 93.5918 52.7667 93.5918 51.1088V46.7947C93.5918 45.1365 94.9417 43.7877 96.6008 43.7877H187.116C188.775 43.7877 190.125 45.1365 190.125 46.7947V51.1088C190.125 52.7667 188.775 54.1161 187.116 54.1161Z" fill="#8B5DD0"/>
<path d="M202.958 43.9398C201.423 43.9398 200.17 45.1911 200.17 46.7289C200.17 48.2665 201.423 49.5174 202.958 49.5174C204.499 49.5174 205.749 48.2665 205.749 46.7289C205.749 45.1911 204.499 43.9398 202.958 43.9398ZM202.958 50.35C200.964 50.35 199.336 48.7258 199.336 46.7289C199.336 44.7321 200.964 43.1073 202.958 43.1073C204.958 43.1073 206.582 44.7321 206.582 46.7289C206.582 48.7258 204.958 50.35 202.958 50.35Z" fill="#8B5DD0"/>
<path d="M207.706 53.9484L204.465 49.6022C204.328 49.4184 204.368 49.1582 204.552 49.0211C204.725 48.892 204.962 48.918 205.106 49.0748L205.132 49.1048L208.78 53.1498C209.027 53.4247 209.004 53.848 208.73 54.0951C208.453 54.3427 208.029 54.3207 207.782 54.0458C207.769 54.0308 207.756 54.0151 207.746 53.9987L207.706 53.9484" fill="#8B5DD0"/>
<path d="M166.721 17.501L173.184 18.8066L172.96 19.919L166.497 18.6134L166.721 17.501Z" fill="#31DAE7"/>
<path d="M175.439 30.3672L176.044 31.3276L170.169 35.0234L169.563 34.0629L175.439 30.3672Z" fill="#31DAE7"/>
<path d="M180.733 3.9491L182.113 11.058L181 11.2768L179.62 4.1647L180.733 3.9491" fill="#31DAE7"/>
<path d="M181.275 10.9003L192.718 13.8409L196.681 24.3084L195.617 24.7101L191.863 14.7931L181.618 12.16L173.897 19.8613L176.48 30.5864L175.374 30.8518L172.647 19.5079L181.275 10.9003" fill="#31DAE7"/>
<path d="M193.618 24.1568C193.884 22.6658 195.306 21.6712 196.797 21.9356C198.289 22.2003 199.285 23.6237 199.02 25.115C198.754 26.6063 197.332 27.6009 195.84 27.3362C194.349 27.0715 193.353 25.648 193.618 24.1568Z" fill="#31DAE7"/>
<path d="M189.743 13.4834C190.01 11.9922 191.432 10.998 192.926 11.2624C194.416 11.5269 195.412 12.9504 195.148 14.4416C194.885 15.9328 193.46 16.927 191.969 16.6626C190.476 16.3978 189.48 14.9746 189.743 13.4834" fill="#31DAE7"/>
<path d="M178.716 11.016C178.981 9.52556 180.405 8.52874 181.896 8.79626C183.391 9.06059 184.385 10.4842 184.121 11.9746C183.856 13.465 182.432 14.4587 180.937 14.1944C179.446 13.93 178.452 12.5065 178.716 11.016" fill="#31DAE7"/>
<path d="M177.14 2.57339C177.404 1.08113 178.83 0.0873295 180.32 0.354032C181.813 0.61756 182.807 2.03999 182.543 3.53226C182.277 5.02452 180.853 6.01829 179.36 5.75159C177.871 5.48806 176.873 4.06566 177.14 2.57339Z" fill="#31DAE7"/>
<path d="M162.181 17.0152C162.447 15.5229 163.869 14.5301 165.362 14.7953C166.852 15.0573 167.848 16.4818 167.586 17.9741C167.321 19.4634 165.896 20.4593 164.406 20.1941C162.913 19.929 161.916 18.5076 162.181 17.0152Z" fill="#31DAE7"/>
<path d="M165.719 34.4483C165.983 32.957 167.406 31.9628 168.9 32.227C170.391 32.4919 171.385 33.9152 171.121 35.4062C170.857 36.8975 169.431 37.8921 167.94 37.6275C166.449 37.363 165.451 35.9393 165.719 34.4483Z" fill="#31DAE7"/>
<path d="M170.106 19.0936C170.373 17.6028 171.795 16.6068 173.287 16.873C174.778 17.1361 175.775 18.5611 175.509 20.0519C175.245 21.5427 173.823 22.5387 172.331 22.2725C170.836 22.0094 169.843 20.5844 170.106 19.0936Z" fill="#31DAE7"/>
<path d="M173.04 30.3693C173.304 28.8779 174.729 27.8838 176.22 28.148C177.71 28.4126 178.706 29.836 178.441 31.3272C178.177 32.8184 176.752 33.8128 175.261 33.5485C173.768 33.2839 172.772 31.8605 173.04 30.3693Z" fill="#31DAE7"/>
<path d="M256.344 292.142L223.956 283.093C222.328 282.639 221.376 280.95 221.835 279.321L234.817 232.897C235.272 231.269 236.963 230.318 238.595 230.772L270.979 239.821C272.607 240.276 273.559 241.965 273.104 243.593L260.118 290.017C259.663 291.646 257.975 292.597 256.344 292.142Z" fill="#E4C4FF"/>
<path d="M267.627 247.61L238.528 239.479C238.061 239.347 237.787 238.864 237.917 238.397C238.047 237.93 238.532 237.657 239.002 237.788L268.102 245.917C268.568 246.049 268.843 246.533 268.713 246.999C268.58 247.469 268.094 247.74 267.627 247.61" fill="#F2F2F2"/>
<path d="M261.455 249.604L237.559 242.928C237.093 242.797 236.818 242.313 236.95 241.846C237.082 241.379 237.566 241.105 238.032 241.237L261.928 247.911C262.393 248.042 262.668 248.528 262.536 248.995C262.404 249.462 261.92 249.735 261.455 249.604" fill="#F2F2F2"/>
<path d="M265.697 254.508L236.594 246.376C236.129 246.245 235.856 245.761 235.989 245.294C236.118 244.827 236.602 244.554 237.071 244.686L266.169 252.815C266.638 252.946 266.911 253.432 266.779 253.899C266.649 254.366 266.165 254.637 265.697 254.508" fill="#F2F2F2"/>
<path d="M258.091 256.101L235.631 249.825C235.161 249.696 234.891 249.21 235.022 248.743C235.154 248.276 235.635 248.003 236.102 248.134L258.565 254.41C259.031 254.539 259.305 255.025 259.177 255.492C259.042 255.959 258.561 256.232 258.091 256.101" fill="#F2F2F2"/>
<path d="M242.748 229.015L242.163 228.85C241.947 228.79 241.727 228.906 241.67 229.109L240.439 233.514C240.383 233.719 240.51 233.931 240.727 233.992L241.312 234.154C241.528 234.215 241.748 234.1 241.808 233.896L243.039 229.49C243.096 229.288 242.968 229.075 242.748 229.015" fill="#31DAE7"/>
<path d="M245.256 229.715L244.672 229.551C244.454 229.49 244.234 229.607 244.18 229.809L242.944 234.215C242.887 234.417 243.015 234.632 243.233 234.692L243.82 234.855C244.034 234.915 244.255 234.801 244.312 234.596L245.544 230.191C245.601 229.988 245.473 229.776 245.256 229.715Z" fill="#31DAE7"/>
<path d="M247.764 230.416L247.177 230.251C246.963 230.19 246.741 230.307 246.687 230.509L245.453 234.915C245.396 235.117 245.525 235.332 245.743 235.39L246.326 235.555C246.544 235.615 246.762 235.501 246.823 235.296L248.054 230.891C248.111 230.689 247.982 230.474 247.764 230.416" fill="#31DAE7"/>
<path d="M250.269 231.116L249.683 230.952C249.467 230.891 249.248 231.006 249.191 231.21L247.958 235.616C247.901 235.818 248.03 236.031 248.246 236.091L248.832 236.256C249.047 236.316 249.266 236.2 249.324 235.997L250.556 231.592C250.614 231.39 250.484 231.175 250.269 231.116Z" fill="#31DAE7"/>
<path d="M252.777 231.815L252.192 231.652C251.976 231.591 251.756 231.706 251.698 231.908L250.464 236.316C250.41 236.518 250.54 236.731 250.753 236.791L251.341 236.956C251.557 237.016 251.774 236.9 251.835 236.698L253.065 232.292C253.123 232.09 252.993 231.875 252.777 231.815" fill="#31DAE7"/>
<path d="M255.285 232.515L254.698 232.352C254.484 232.292 254.263 232.407 254.205 232.609L252.973 237.017C252.919 237.219 253.045 237.432 253.263 237.492L253.846 237.656C254.064 237.717 254.285 237.6 254.339 237.398L255.571 232.992C255.629 232.788 255.499 232.575 255.285 232.515" fill="#31DAE7"/>
<path d="M257.789 233.216L257.204 233.053C256.989 232.993 256.767 233.107 256.709 233.31L255.479 237.717C255.42 237.92 255.551 238.132 255.766 238.193L256.352 238.355C256.567 238.418 256.789 238.301 256.847 238.099L258.08 233.691C258.135 233.489 258.004 233.276 257.789 233.216Z" fill="#31DAE7"/>
<path d="M260.297 233.916L259.709 233.754C259.497 233.691 259.274 233.808 259.219 234.01L257.984 238.418C257.93 238.62 258.057 238.833 258.273 238.893L258.858 239.056C259.073 239.116 259.296 239.002 259.351 238.799L260.586 234.392C260.641 234.189 260.513 233.977 260.297 233.916Z" fill="#31DAE7"/>
<path d="M262.802 234.617L262.215 234.452C261.999 234.392 261.779 234.509 261.724 234.711L260.491 239.117C260.432 239.321 260.564 239.534 260.777 239.594L261.364 239.757C261.58 239.817 261.801 239.702 261.859 239.5L263.092 235.092C263.147 234.89 263.019 234.678 262.802 234.617" fill="#31DAE7"/>
<path d="M265.31 235.317L264.724 235.153C264.507 235.092 264.286 235.209 264.231 235.411L262.996 239.817C262.941 240.021 263.07 240.234 263.284 240.294L263.873 240.457C264.087 240.517 264.308 240.403 264.363 240.201L265.598 235.793C265.653 235.591 265.524 235.378 265.31 235.317" fill="#31DAE7"/>
<path d="M267.819 236.018L267.234 235.853C267.016 235.793 266.793 235.909 266.738 236.112L265.506 240.517C265.45 240.72 265.576 240.934 265.794 240.993L266.379 241.157C266.597 241.218 266.816 241.103 266.875 240.899L268.107 236.493C268.163 236.291 268.033 236.078 267.819 236.018" fill="#31DAE7"/>
<path d="M270.32 236.719L269.737 236.554C269.521 236.494 269.298 236.608 269.243 236.813L268.009 241.218C267.953 241.421 268.083 241.635 268.299 241.694L268.886 241.858C269.098 241.919 269.321 241.802 269.376 241.6L270.61 237.194C270.666 236.992 270.536 236.777 270.32 236.719" fill="#31DAE7"/>
<path d="M189.604 276.884L220.535 276.246C220.604 276.244 220.673 276.231 220.738 276.21L226.296 274.382C226.944 274.169 226.93 273.25 226.278 273.054L220.573 271.34C220.5 271.317 220.428 271.309 220.355 271.309L189.345 271.951C188.949 271.959 188.638 272.295 188.662 272.691L188.89 276.233C188.914 276.605 189.228 276.892 189.604 276.884" fill="#F36B80"/>
<path d="M220.388 271.309L220.463 271.307L225.971 272.962L226.036 274.467L220.77 276.2C220.567 274.68 220.223 272.935 220.388 271.309" fill="#F2F2F2"/>
<path d="M238.728 283.779C238.091 283.779 237.566 283.573 237.152 283.16C235.618 281.623 236.205 277.693 236.425 274.774C236.529 273.404 236.641 271.851 236.018 270.668C235.291 269.299 232.386 269.453 230.234 270.45C228.791 271.117 227.437 272.31 227.974 273.648C228.031 273.794 227.959 273.959 227.815 274.017C227.668 274.075 227.502 274.005 227.445 273.859C226.872 272.43 227.851 270.925 229.996 269.933C232.419 268.811 235.6 268.673 236.518 270.404C237.224 271.73 237.098 273.369 236.99 274.816C236.785 277.585 236.223 281.421 237.555 282.759C237.904 283.108 238.361 283.254 238.955 283.199C241.651 282.962 241.208 277.407 241.658 275.418C242.324 272.487 243.396 268.84 246.362 269.274C248.568 269.597 250.188 271.158 251.041 273.792C251.675 275.744 251.667 277.57 251.667 277.647C251.667 277.803 251.538 277.929 251.383 277.929C251.383 277.929 251.383 277.929 251.379 277.929C251.225 277.926 251.099 277.799 251.099 277.643C251.099 277.624 251.106 275.818 250.498 273.955C249.702 271.515 248.281 270.129 246.279 269.837C243.702 269.459 242.792 273.006 242.212 275.543C241.734 277.666 242.324 283.779 238.728 283.779" fill="#F36B80"/>
<path d="M96.6827 65.3277L94.9069 63.7713L92.6164 64.355C92.3551 64.4216 92.1284 64.1578 92.2351 63.9126L93.1684 61.7405L91.9071 59.7417C91.7631 59.5152 91.9418 59.2221 92.2111 59.246L94.5629 59.4592L96.0748 57.6443C96.2481 57.4365 96.5814 57.5164 96.6427 57.7802L97.1654 60.0829L99.3599 60.957C99.6105 61.0583 99.6372 61.4021 99.4079 61.538L97.376 62.748L97.2214 65.1065C97.2054 65.373 96.8854 65.5063 96.6827 65.3277" fill="#31DAE7"/>
<path d="M86.3424 34.4543L84.5646 32.8985L82.2739 33.4812C82.011 33.5463 81.7897 33.2861 81.8965 33.0389L82.8258 30.8666L81.5633 28.8685C81.4227 28.6421 81.6023 28.3482 81.8678 28.3716L84.2236 28.5875L85.7333 26.7716C85.9077 26.5634 86.2409 26.6441 86.3008 26.9069L86.824 29.2093L89.0184 30.0861C89.2708 30.1849 89.2969 30.5284 89.0652 30.6663L87.0348 31.876L86.8813 34.2331C86.8657 34.5011 86.5455 34.6338 86.3424 34.4543" fill="#F36B80"/>
</svg>
