<svg xmlns="http://www.w3.org/2000/svg" xmlns:xlink="http://www.w3.org/1999/xlink" viewBox="0 0 130.25 47.13"><defs><style>.cls-1{fill:none;}.cls-2{fill:#004b6b;}.cls-3{clip-path:url(#clip-path);}.cls-4{opacity:0.17;}.cls-5{fill:#029adc;}.cls-6{fill:#343842;}.cls-7{clip-path:url(#clip-path-2);}</style><clipPath id="clip-path" transform="translate(-0.71 -1.72)"><path class="cls-1" d="M0,23.63C3,19.71,8.76,15.44,17.68,22c3.46,2.56,7,4.46,9.71,4.64a7.59,7.59,0,0,0,2.72-.46h0A6.58,6.58,0,0,0,33.32,24C36.79,19.17,36.84,11.71,42.19,9L37,4.15,29.47,1.72,21.83,0,13,2.87,6.46,5.3.89,12.71,0,18Z"/></clipPath><clipPath id="clip-path-2" transform="translate(-0.71 -1.72)"><path class="cls-1" d="M3.23,37C5,33.14,10.32,25,21.65,32.52c13.43,8.89,17-8.24,17.34-9.62,1.36-6.43,3.83-9.2,5.74-10.4l2.92,7.95v12.7L38.53,44.52,28,50,11.25,46.92l-6-5.13Z"/></clipPath></defs><title>Asset 2</title><g id="Layer_2" data-name="Layer 2"><g id="Layer_1-2" data-name="Layer 1"><path class="cls-2" d="M70.28,28.92q-1.17-1.86-2.66-4t-3.09-4.28q-1.6-2.13-3.18-4.11t-3-3.42H52.62v1.7h1a1.83,1.83,0,0,1,1.27,1.24V36.92h4.26v-17q1.44,1.72,3,3.87t3.14,4.43q1.55,2.29,3,4.54t2.61,4.21h3.68V13.11H70.28Z" transform="translate(-0.71 -1.72)"/><polygon class="cls-2" points="81.15 24.55 90.91 24.55 90.91 20.94 81.15 20.94 81.15 15.06 92.11 15.06 92.11 11.39 76.82 11.39 76.82 35.2 92.94 35.2 92.94 31.52 81.15 31.52 81.15 24.55"/><path class="cls-2" d="M110.53,25.74a8.51,8.51,0,0,0-2.23-1.51q-1.32-.64-3-1.25-1-.34-1.77-.72a8.11,8.11,0,0,1-1.41-.82,3.34,3.34,0,0,1-.93-1,2.67,2.67,0,0,1-.33-1.36,2.37,2.37,0,0,1,1-2,4.53,4.53,0,0,1,2.73-.72,12,12,0,0,1,2.87.34,10.29,10.29,0,0,1,2.56,1l1.34-3.5a12.19,12.19,0,0,0-2.73-1.08,14.42,14.42,0,0,0-4-.5,9.29,9.29,0,0,0-6.08,1.84,6.21,6.21,0,0,0-2.23,5.07,6,6,0,0,0,.53,2.65A6.09,6.09,0,0,0,98.26,24a8,8,0,0,0,2,1.32q1.15.53,2.39,1t2.2.84a8.7,8.7,0,0,1,1.63.93,3.78,3.78,0,0,1,1,1.12,2.89,2.89,0,0,1,.36,1.48,2.62,2.62,0,0,1-1.07,2.23,5.77,5.77,0,0,1-3.4.79,12.38,12.38,0,0,1-3.81-.52,14.66,14.66,0,0,1-2.51-1l-1.27,3.54a10,10,0,0,0,1.1.53,14.69,14.69,0,0,0,1.63.57,17.27,17.27,0,0,0,2.16.46,17.7,17.7,0,0,0,2.7.19q4.4,0,6.68-1.77a6,6,0,0,0,2.29-5,7.64,7.64,0,0,0-.48-2.87A5.92,5.92,0,0,0,110.53,25.74Z" transform="translate(-0.71 -1.72)"/><path class="cls-2" d="M130.47,27.8a5.92,5.92,0,0,0-1.39-2.06,8.51,8.51,0,0,0-2.23-1.51q-1.32-.64-3-1.25-1-.34-1.77-.72a8.11,8.11,0,0,1-1.41-.82,3.34,3.34,0,0,1-.93-1,2.67,2.67,0,0,1-.33-1.36,2.37,2.37,0,0,1,1-2,4.53,4.53,0,0,1,2.73-.72,12,12,0,0,1,2.87.34,10.29,10.29,0,0,1,2.56,1l1.34-3.5a12.19,12.19,0,0,0-2.73-1.08,14.42,14.42,0,0,0-4-.5,9.29,9.29,0,0,0-6.08,1.84,6.21,6.21,0,0,0-2.23,5.07,6,6,0,0,0,.53,2.65A6.09,6.09,0,0,0,116.82,24a8,8,0,0,0,2,1.32q1.15.53,2.39,1t2.2.84a8.7,8.7,0,0,1,1.63.93,3.78,3.78,0,0,1,1,1.12,2.89,2.89,0,0,1,.36,1.48,2.62,2.62,0,0,1-1.07,2.23,5.77,5.77,0,0,1-3.4.79,12.38,12.38,0,0,1-3.81-.52,14.66,14.66,0,0,1-2.51-1l-1.27,3.54a10,10,0,0,0,1.1.53,14.7,14.7,0,0,0,1.63.57,17.27,17.27,0,0,0,2.16.46,17.7,17.7,0,0,0,2.7.19q4.4,0,6.68-1.77a6,6,0,0,0,2.29-5A7.63,7.63,0,0,0,130.47,27.8Z" transform="translate(-0.71 -1.72)"/><g class="cls-3"><g class="cls-4"><path class="cls-5" d="M14.53,41.79c7.23,0,14.15-6.35,13.82-13.82S22.28,14.15,14.53,14.15C7.31,14.15.38,20.51.72,28S6.79,41.79,14.53,41.79Z" transform="translate(-0.71 -1.72)"/></g><g class="cls-4"><path class="cls-5" d="M17.58,46.92c7.23,0,14.15-6.35,13.82-13.82S25.32,19.29,17.58,19.29c-7.23,0-14.15,6.35-13.82,13.82S9.83,46.92,17.58,46.92Z" transform="translate(-0.71 -1.72)"/></g><g class="cls-4"><path class="cls-5" d="M23.77,48.85C31,48.85,37.92,42.5,37.58,35S31.51,21.22,23.77,21.22C16.54,21.22,9.62,27.57,9.95,35S16,48.85,23.77,48.85Z" transform="translate(-0.71 -1.72)"/></g><g class="cls-4"><path class="cls-5" d="M27.63,48.08c7.23,0,14.15-6.35,13.82-13.82S35.38,20.45,27.63,20.45c-7.23,0-14.15,6.35-13.82,13.82s6.07,13.82,13.82,13.82Z" transform="translate(-0.71 -1.72)"/></g><g class="cls-4"><path class="cls-5" d="M32.66,41.89c7.23,0,14.15-6.35,13.82-13.82S40.41,14.26,32.66,14.26c-7.23,0-14.15,6.35-13.82,13.82s6.07,13.82,13.82,13.82Z" transform="translate(-0.71 -1.72)"/></g><g class="cls-4"><path class="cls-5" d="M32.66,36.86c7.23,0,14.15-6.35,13.82-13.82S40.41,9.23,32.66,9.23c-7.23,0-14.15,6.35-13.82,13.82s6.07,13.82,13.82,13.82Z" transform="translate(-0.71 -1.72)"/></g><g class="cls-4"><path class="cls-5" d="M28.41,31.83c7.23,0,14.15-6.35,13.82-13.82S36.15,4.2,28.41,4.2C21.18,4.2,14.26,10.56,14.59,18s6.07,13.82,13.82,13.82Z" transform="translate(-0.71 -1.72)"/></g><g class="cls-4"><path class="cls-5" d="M17.16,31.78C24.39,31.78,31.31,25.43,31,18S24.91,4.15,17.16,4.15C9.93,4.15,3,10.5,3.34,18S9.41,31.78,17.16,31.78Z" transform="translate(-0.71 -1.72)"/></g><g class="cls-4"><path class="cls-5" d="M23,29.36c7.23,0,14.15-6.35,13.82-13.82S30.74,1.72,23,1.72c-7.23,0-14.15,6.35-13.82,13.82S15.25,29.36,23,29.36Z" transform="translate(-0.71 -1.72)"/></g><g class="cls-4"><path class="cls-5" d="M31.11,32.22c7.23,0,14.15-6.35,13.82-13.82S38.86,4.59,31.11,4.59C23.89,4.59,17,10.94,17.3,18.4s6.07,13.82,13.82,13.82Z" transform="translate(-0.71 -1.72)"/></g><g class="cls-4"><path class="cls-5" d="M14.71,35.26c7.23,0,14.15-6.35,13.82-13.82S22.46,7.63,14.71,7.63C7.49,7.63.56,14,.9,21.45S7,35.26,14.71,35.26Z" transform="translate(-0.71 -1.72)"/></g><g class="cls-4"><path class="cls-2" d="M19.12,42.66c7.23,0,14.15-6.35,13.82-13.82S26.87,15,19.12,15C11.9,15,5,21.39,5.31,28.85s6.07,13.82,13.82,13.82Z" transform="translate(-0.71 -1.72)"/></g><g class="cls-4"><path class="cls-2" d="M27.63,43c7.23,0,14.15-6.35,13.82-13.82S35.38,15.42,27.63,15.42c-7.23,0-14.15,6.35-13.82,13.82S19.89,43,27.63,43Z" transform="translate(-0.71 -1.72)"/></g><g class="cls-4"><path class="cls-2" d="M29.57,37.63c7.23,0,14.15-6.35,13.82-13.82S37.31,10,29.57,10c-7.23,0-14.15,6.35-13.82,13.82s6.07,13.82,13.82,13.82Z" transform="translate(-0.71 -1.72)"/></g><g class="cls-4"><path class="cls-2" d="M23,34.54c7.23,0,14.15-6.35,13.82-13.82S30.74,6.91,23,6.91c-7.23,0-14.15,6.35-13.82,13.82S15.25,34.54,23,34.54Z" transform="translate(-0.71 -1.72)"/></g><g class="cls-4"><path class="cls-2" d="M18.35,36.86c7.23,0,14.15-6.35,13.82-13.82S26.1,9.23,18.35,9.23C11.12,9.23,4.2,15.58,4.53,23S10.6,36.86,18.35,36.86Z" transform="translate(-0.71 -1.72)"/></g><g class="cls-4"><path class="cls-2" d="M15.64,40.34c7.23,0,14.15-6.35,13.82-13.82S23.39,12.71,15.64,12.71c-7.23,0-14.15,6.35-13.82,13.82S7.9,40.34,15.64,40.34Z" transform="translate(-0.71 -1.72)"/></g><g class="cls-4"><path class="cls-2" d="M21.83,41.12c7.23,0,14.15-6.35,13.82-13.82S29.58,13.48,21.83,13.48C14.6,13.48,7.68,19.84,8,27.3s6.07,13.82,13.82,13.82Z" transform="translate(-0.71 -1.72)"/></g><g class="cls-4"><path class="cls-2" d="M28,40c7.23,0,14.15-6.35,13.82-13.82S35.77,12.32,28,12.32c-7.23,0-14.15,6.35-13.82,13.82S20.27,40,28,40Z" transform="translate(-0.71 -1.72)"/></g><g class="cls-4"><path class="cls-2" d="M27.25,34.93c7.23,0,14.15-6.35,13.82-13.82S35,7.29,27.25,7.29C20,7.29,13.1,13.65,13.43,21.11S19.5,34.93,27.25,34.93Z" transform="translate(-0.71 -1.72)"/></g><g class="cls-4"><path class="cls-2" d="M19.12,36.47c7.23,0,14.15-6.35,13.82-13.82S26.87,8.84,19.12,8.84C11.9,8.84,5,15.2,5.31,22.66s6.07,13.82,13.82,13.82Z" transform="translate(-0.71 -1.72)"/></g><g class="cls-4"><path class="cls-2" d="M20.28,43.82c7.23,0,14.15-6.35,13.82-13.82S28,16.19,20.28,16.19C13.06,16.19,6.13,22.55,6.47,30s6.07,13.82,13.82,13.82Z" transform="translate(-0.71 -1.72)"/></g><g class="cls-4"><path class="cls-6" d="M23.38,39.57c7.23,0,14.15-6.35,13.82-13.82S31.12,11.94,23.38,11.94c-7.23,0-14.15,6.35-13.82,13.82s6.07,13.82,13.82,13.82Z" transform="translate(-0.71 -1.72)"/></g><g class="cls-4"><path class="cls-6" d="M21.83,40.34C29.06,40.34,36,34,35.65,26.53S29.58,12.71,21.83,12.71C14.6,12.71,7.68,19.06,8,26.53s6.07,13.82,13.82,13.82Z" transform="translate(-0.71 -1.72)"/></g><g class="cls-4"><path class="cls-6" d="M26.86,41.5c7.23,0,14.15-6.35,13.82-13.82S34.61,13.87,26.86,13.87c-7.23,0-14.15,6.35-13.82,13.82S19.11,41.5,26.86,41.5Z" transform="translate(-0.71 -1.72)"/></g><g class="cls-4"><path class="cls-6" d="M23.77,38.6c7.23,0,14.15-6.35,13.82-13.82S31.51,11,23.77,11C16.54,11,9.62,17.32,9.95,24.79S16,38.6,23.77,38.6Z" transform="translate(-0.71 -1.72)"/></g></g><g class="cls-7"><g class="cls-4"><path class="cls-5" d="M14.53,41.79c7.23,0,14.15-6.35,13.82-13.82S22.28,14.15,14.53,14.15C7.31,14.15.38,20.51.72,28S6.79,41.79,14.53,41.79Z" transform="translate(-0.71 -1.72)"/></g><g class="cls-4"><path class="cls-5" d="M17.58,46.92c7.23,0,14.15-6.35,13.82-13.82S25.32,19.29,17.58,19.29c-7.23,0-14.15,6.35-13.82,13.82S9.83,46.92,17.58,46.92Z" transform="translate(-0.71 -1.72)"/></g><g class="cls-4"><path class="cls-5" d="M23.77,48.85C31,48.85,37.92,42.5,37.58,35S31.51,21.22,23.77,21.22C16.54,21.22,9.62,27.57,9.95,35S16,48.85,23.77,48.85Z" transform="translate(-0.71 -1.72)"/></g><g class="cls-4"><path class="cls-5" d="M27.63,48.08c7.23,0,14.15-6.35,13.82-13.82S35.38,20.45,27.63,20.45c-7.23,0-14.15,6.35-13.82,13.82s6.07,13.82,13.82,13.82Z" transform="translate(-0.71 -1.72)"/></g><g class="cls-4"><path class="cls-5" d="M32.66,41.89c7.23,0,14.15-6.35,13.82-13.82S40.41,14.26,32.66,14.26c-7.23,0-14.15,6.35-13.82,13.82s6.07,13.82,13.82,13.82Z" transform="translate(-0.71 -1.72)"/></g><g class="cls-4"><path class="cls-5" d="M32.66,36.86c7.23,0,14.15-6.35,13.82-13.82S40.41,9.23,32.66,9.23c-7.23,0-14.15,6.35-13.82,13.82s6.07,13.82,13.82,13.82Z" transform="translate(-0.71 -1.72)"/></g><g class="cls-4"><path class="cls-5" d="M28.41,31.83c7.23,0,14.15-6.35,13.82-13.82S36.15,4.2,28.41,4.2C21.18,4.2,14.26,10.56,14.59,18s6.07,13.82,13.82,13.82Z" transform="translate(-0.71 -1.72)"/></g><g class="cls-4"><path class="cls-5" d="M17.16,31.78C24.39,31.78,31.31,25.43,31,18S24.91,4.15,17.16,4.15C9.93,4.15,3,10.5,3.34,18S9.41,31.78,17.16,31.78Z" transform="translate(-0.71 -1.72)"/></g><g class="cls-4"><path class="cls-5" d="M23,29.36c7.23,0,14.15-6.35,13.82-13.82S30.74,1.72,23,1.72c-7.23,0-14.15,6.35-13.82,13.82S15.25,29.36,23,29.36Z" transform="translate(-0.71 -1.72)"/></g><g class="cls-4"><path class="cls-5" d="M31.11,32.22c7.23,0,14.15-6.35,13.82-13.82S38.86,4.59,31.11,4.59C23.89,4.59,17,10.94,17.3,18.4s6.07,13.82,13.82,13.82Z" transform="translate(-0.71 -1.72)"/></g><g class="cls-4"><path class="cls-5" d="M14.71,35.26c7.23,0,14.15-6.35,13.82-13.82S22.46,7.63,14.71,7.63C7.49,7.63.56,14,.9,21.45S7,35.26,14.71,35.26Z" transform="translate(-0.71 -1.72)"/></g><g class="cls-4"><path class="cls-2" d="M19.12,42.66c7.23,0,14.15-6.35,13.82-13.82S26.87,15,19.12,15C11.9,15,5,21.39,5.31,28.85s6.07,13.82,13.82,13.82Z" transform="translate(-0.71 -1.72)"/></g><g class="cls-4"><path class="cls-2" d="M27.63,43c7.23,0,14.15-6.35,13.82-13.82S35.38,15.42,27.63,15.42c-7.23,0-14.15,6.35-13.82,13.82S19.89,43,27.63,43Z" transform="translate(-0.71 -1.72)"/></g><g class="cls-4"><path class="cls-2" d="M29.57,37.63c7.23,0,14.15-6.35,13.82-13.82S37.31,10,29.57,10c-7.23,0-14.15,6.35-13.82,13.82s6.07,13.82,13.82,13.82Z" transform="translate(-0.71 -1.72)"/></g><g class="cls-4"><path class="cls-2" d="M23,34.54c7.23,0,14.15-6.35,13.82-13.82S30.74,6.91,23,6.91c-7.23,0-14.15,6.35-13.82,13.82S15.25,34.54,23,34.54Z" transform="translate(-0.71 -1.72)"/></g><g class="cls-4"><path class="cls-2" d="M18.35,36.86c7.23,0,14.15-6.35,13.82-13.82S26.1,9.23,18.35,9.23C11.12,9.23,4.2,15.58,4.53,23S10.6,36.86,18.35,36.86Z" transform="translate(-0.71 -1.72)"/></g><g class="cls-4"><path class="cls-2" d="M15.64,40.34c7.23,0,14.15-6.35,13.82-13.82S23.39,12.71,15.64,12.71c-7.23,0-14.15,6.35-13.82,13.82S7.9,40.34,15.64,40.34Z" transform="translate(-0.71 -1.72)"/></g><g class="cls-4"><path class="cls-2" d="M21.83,41.12c7.23,0,14.15-6.35,13.82-13.82S29.58,13.48,21.83,13.48C14.6,13.48,7.68,19.84,8,27.3s6.07,13.82,13.82,13.82Z" transform="translate(-0.71 -1.72)"/></g><g class="cls-4"><path class="cls-2" d="M28,40c7.23,0,14.15-6.35,13.82-13.82S35.77,12.32,28,12.32c-7.23,0-14.15,6.35-13.82,13.82S20.27,40,28,40Z" transform="translate(-0.71 -1.72)"/></g><g class="cls-4"><path class="cls-2" d="M27.25,34.93c7.23,0,14.15-6.35,13.82-13.82S35,7.29,27.25,7.29C20,7.29,13.1,13.65,13.43,21.11S19.5,34.93,27.25,34.93Z" transform="translate(-0.71 -1.72)"/></g><g class="cls-4"><path class="cls-2" d="M19.12,36.47c7.23,0,14.15-6.35,13.82-13.82S26.87,8.84,19.12,8.84C11.9,8.84,5,15.2,5.31,22.66s6.07,13.82,13.82,13.82Z" transform="translate(-0.71 -1.72)"/></g><g class="cls-4"><path class="cls-2" d="M20.28,43.82c7.23,0,14.15-6.35,13.82-13.82S28,16.19,20.28,16.19C13.06,16.19,6.13,22.55,6.47,30s6.07,13.82,13.82,13.82Z" transform="translate(-0.71 -1.72)"/></g><g class="cls-4"><path class="cls-6" d="M23.38,39.57c7.23,0,14.15-6.35,13.82-13.82S31.12,11.94,23.38,11.94c-7.23,0-14.15,6.35-13.82,13.82s6.07,13.82,13.82,13.82Z" transform="translate(-0.71 -1.72)"/></g><g class="cls-4"><path class="cls-6" d="M21.83,40.34C29.06,40.34,36,34,35.65,26.53S29.58,12.71,21.83,12.71C14.6,12.71,7.68,19.06,8,26.53s6.07,13.82,13.82,13.82Z" transform="translate(-0.71 -1.72)"/></g><g class="cls-4"><path class="cls-6" d="M26.86,41.5c7.23,0,14.15-6.35,13.82-13.82S34.61,13.87,26.86,13.87c-7.23,0-14.15,6.35-13.82,13.82S19.11,41.5,26.86,41.5Z" transform="translate(-0.71 -1.72)"/></g><g class="cls-4"><path class="cls-6" d="M23.77,38.6c7.23,0,14.15-6.35,13.82-13.82S31.51,11,23.77,11C16.54,11,9.62,17.32,9.95,24.79S16,38.6,23.77,38.6Z" transform="translate(-0.71 -1.72)"/></g></g></g></g></svg>