<?xml version="1.0" standalone="no"?>
<!DOCTYPE svg PUBLIC "-//W3C//DTD SVG 20010904//EN"
 "http://www.w3.org/TR/2001/REC-SVG-20010904/DTD/svg10.dtd">
<svg version="1.0" xmlns="http://www.w3.org/2000/svg"
 width="424.000000pt" height="424.000000pt" viewBox="0 0 424.000000 424.000000"
 preserveAspectRatio="xMidYMid meet">
<metadata>
Created by potrace 1.11, written by Peter Selinger 2001-2013
</metadata>
<g transform="translate(0.000000,424.000000) scale(0.100000,-0.100000)"
fill="#000000" stroke="none">
<path d="M2310 2862 l0 -217 213 1 c116 1 215 2 218 3 4 0 7 98 7 216 l-1 215
-218 0 -219 0 0 -218z"/>
<path d="M589 2995 c-1 0 -2 -30 -3 -67 -1 -37 -5 -71 -9 -74 -4 -4 -7 -2 -7
4 0 17 -67 34 -102 26 -96 -20 -109 -59 -109 -318 0 -110 3 -214 6 -230 19
-97 140 -139 195 -69 11 14 21 22 21 17 1 -5 2 -16 3 -24 1 -12 18 -16 78 -18
l76 -3 -1 378 -2 378 -72 0 c-40 1 -74 1 -74 0z m-18 -241 c10 -12 13 -60 13
-196 0 -165 -2 -182 -19 -194 -26 -19 -30 -18 -43 11 -15 32 -16 333 -2 369
11 30 31 33 51 10z"/>
<path d="M8 2983 c-2 -5 -3 -172 -3 -373 l1 -365 155 -3 156 -2 -1 72 -1 73
-75 0 -75 1 -3 86 -3 87 71 -2 70 -2 0 73 0 72 -70 0 -70 0 0 73 0 73 73 0 72
0 2 72 2 72 -149 0 c-82 0 -150 -3 -152 -7z"/>
<path d="M1333 2870 c-84 -38 -101 -87 -103 -310 -1 -185 11 -242 61 -284 80
-67 235 -52 292 28 18 25 23 48 25 119 3 74 2 87 -12 88 -53 4 -136 3 -137 -1
-1 -3 -2 -36 -3 -73 -1 -48 -6 -71 -16 -77 -18 -12 -21 -12 -39 -1 -12 8 -15
45 -16 188 -1 98 1 186 3 195 5 21 40 34 54 20 6 -6 12 -35 13 -64 1 -30 4
-58 7 -64 3 -5 37 -9 75 -9 l68 1 3 66 c4 85 -14 128 -67 164 -52 34 -149 41
-208 14z"/>
<path d="M1780 2882 c-79 -24 -109 -61 -116 -143 l-4 -49 75 0 c73 0 75 1 75
24 0 38 10 56 31 56 23 0 36 -29 34 -78 -1 -36 -2 -37 -74 -64 -41 -15 -86
-39 -102 -54 -34 -33 -51 -105 -44 -186 7 -82 26 -121 69 -142 50 -23 94 -15
130 25 l29 32 -5 -31 -5 -32 79 0 79 0 -3 274 c-3 261 -4 276 -24 303 -34 45
-79 66 -148 68 -33 1 -68 0 -76 -3z m94 -390 c-2 -123 -3 -130 -20 -136 -32
-12 -44 13 -44 93 0 81 16 121 48 121 15 0 17 -11 16 -78z"/>
<path d="M799 2803 c-4 -415 3 -503 38 -538 42 -43 123 -42 161 1 21 24 27 20
23 -14 -2 -10 17 -12 76 -10 l78 3 0 315 0 315 -76 3 -75 3 -1 -251 c0 -220
-2 -254 -17 -268 -13 -13 -20 -14 -34 -6 -15 10 -17 36 -18 265 l-1 254 -76 3
-77 3 -1 -78z"/>
<path d="M2310 2362 l0 -219 218 1 217 1 2 218 2 217 -220 0 -219 0 0 -218z"/>
<path d="M2812 2363 l3 -218 217 0 217 0 0 217 1 218 -220 0 -220 0 2 -217z"/>
<path d="M2310 1862 l0 -219 218 1 217 1 3 218 3 217 -221 0 -220 0 0 -218z"/>
<path d="M2810 1862 l0 -218 220 -1 220 0 0 218 -1 219 -219 0 -220 0 0 -218z"/>
<path d="M3310 1862 l0 -219 220 0 220 1 0 218 0 218 -220 0 -220 0 0 -218z"/>
<path d="M354 1981 c-2 -2 -4 -188 -4 -413 l0 -408 65 0 65 0 1 43 c0 23 1
102 1 175 -1 74 3 132 9 133 5 1 34 1 64 1 30 0 60 0 65 -1 6 -1 10 -67 10
-176 l0 -175 65 0 65 0 0 68 c1 105 1 662 1 712 l-1 45 -65 0 -65 1 0 -179 0
-178 -72 3 -73 3 -2 155 c-1 85 -2 164 -2 175 -1 18 -8 20 -62 20 -33 0 -63
-2 -65 -4z"/>
<path d="M855 1573 l0 -413 177 0 178 0 0 60 0 60 -77 -1 c-43 0 -94 0 -113 0
l-35 1 0 118 0 117 89 5 90 5 -1 33 c-3 90 6 81 -82 80 -43 0 -82 2 -87 5 -6
3 -10 54 -9 114 l0 108 85 2 c47 1 98 2 113 2 28 1 28 2 25 59 l-3 57 -175 0
-176 0 1 -412z"/>
<path d="M1290 1573 l0 -413 173 0 172 0 -1 57 -1 58 -49 2 c-27 1 -75 2 -106
2 l-58 1 0 353 0 352 -65 0 -65 1 0 -413z"/>
<path d="M1690 1573 l0 -413 65 0 65 0 0 154 0 153 69 5 c132 10 181 70 185
225 4 160 -20 230 -92 264 -39 19 -64 23 -169 24 l-123 1 0 -413z m238 274
c11 -11 15 -40 17 -109 2 -127 -9 -148 -82 -148 l-43 0 0 140 0 141 46 -5 c25
-2 53 -11 62 -19z"/>
<path d="M2310 1365 l0 -215 219 0 218 0 2 215 1 215 -220 0 -220 0 0 -215z"/>
<path d="M2810 1365 l0 -215 219 0 220 0 1 215 0 215 -220 0 -220 0 0 -215z"/>
<path d="M3310 1365 l0 -215 220 0 220 0 0 215 0 215 -220 0 -220 0 0 -215z"/>
<path d="M3817 1573 c-3 -5 -5 -101 -4 -215 l0 -208 213 0 214 0 0 215 0 215
-209 0 c-116 0 -212 -3 -214 -7z"/>
</g>
</svg>
