<svg width="583" height="184" viewBox="0 0 583 184" fill="none" xmlns="http://www.w3.org/2000/svg">
<path d="M66.6525 78.206C88.2485 78.206 105.755 60.699 105.755 39.103C105.755 17.507 88.2485 0 66.6525 0C45.0565 0 27.5495 17.507 27.5495 39.103C27.5495 60.699 45.0565 78.206 66.6525 78.206Z" fill="#1A72B3"/>
<path d="M83.2366 80.8678H50.0592C22.4597 80.8678 0 103.325 0 130.929V171.513L0.102203 172.147L2.9003 173.021C29.2415 181.25 52.1305 184 70.97 184C107.761 184 129.09 173.505 130.411 172.839L133.023 171.513H133.298V130.929C133.3 103.325 110.845 80.8678 83.2366 80.8678ZM74.3767 159.626L67.218 170.103C67.1203 170.246 66.9659 170.33 66.7955 170.33C66.791 170.33 66.7865 170.33 66.7819 170.33C66.6138 170.33 66.4526 170.241 66.3595 170.094L59.7094 159.61C59.6527 159.521 59.6254 159.414 59.63 159.301L62.9572 108.42C62.9754 108.149 63.1957 107.945 63.4683 107.945H70.3704C70.6407 107.945 70.8632 108.149 70.8859 108.42L74.4608 159.296C74.4744 159.417 74.4403 159.528 74.3767 159.626ZM71.138 106.405H62.9322L55.7985 91.6605C55.7985 90.2455 56.9431 89.1054 58.3581 89.1054H75.4896C76.9 89.1054 78.0447 90.2455 78.0447 91.6605L71.138 106.405Z" fill="#1A72B3"/>
<rect x="44.33" y="86.231" width="55.2607" height="84.4092" fill="#1A72B2"/>
<path d="M97.1468 69.0048V68.9973C96.6572 68.325 95.7156 68.1769 95.0433 68.6664C94.3792 69.1499 94.2253 70.0762 94.697 70.7487C103.655 83.2873 103.655 100.133 94.697 112.671C94.211 113.346 94.3642 114.287 95.0391 114.773C95.042 114.775 95.045 114.777 95.048 114.779C95.7242 115.262 96.6635 115.106 97.147 114.43C106.854 100.844 106.854 82.5909 97.1468 69.0048Z" fill="#92D0FD"/>
<path d="M35.5081 68.6481C35.5081 68.6481 35.5079 68.6481 35.5079 68.648C34.8317 68.1654 33.8924 68.3218 33.4089 68.9973C23.702 82.5834 23.702 100.836 33.4089 114.422C33.8985 115.095 34.8401 115.243 35.5124 114.753C36.1765 114.27 36.3304 113.344 35.8588 112.671C26.9006 100.133 26.9006 83.2871 35.8588 70.7485C36.3419 70.0716 36.1849 69.1313 35.5081 68.6481Z" fill="#92D0FD"/>
<path d="M45.0844 76.0291C45.5937 75.3718 45.4738 74.4258 44.8164 73.9165C44.1614 73.4089 43.2192 73.526 42.7084 74.1785C34.6638 84.4817 34.6638 98.9379 42.7084 109.241C43.2194 109.897 44.1655 110.015 44.8217 109.504C45.4778 108.993 45.5954 108.047 45.0844 107.391C37.887 98.1756 37.887 85.2442 45.0844 76.0291Z" fill="#92D0FD"/>
<path d="M85.7397 73.9163L85.7395 73.9165C85.0869 74.4274 84.9699 75.3696 85.4775 76.0246C92.6751 85.2395 92.6751 98.1711 85.4775 107.386C84.9665 108.042 85.0841 108.988 85.7402 109.499C86.3964 110.01 87.3425 109.893 87.8535 109.237C95.8981 98.9334 95.8981 84.4772 87.8535 74.174C87.3408 73.5192 86.3945 73.4038 85.7397 73.9163Z" fill="#92D0FD"/>
<path d="M76.2397 81.4091C81.7004 87.1907 81.7004 96.2289 76.2397 102.011C75.6695 102.616 75.6983 103.569 76.3037 104.139C76.3038 104.139 76.304 104.14 76.3044 104.14C76.9103 104.709 77.8632 104.68 78.4328 104.074C78.4329 104.074 78.4331 104.074 78.4335 104.073C84.9842 97.1326 84.9842 86.2871 78.4335 79.3462C77.8687 78.7358 76.9159 78.6991 76.3057 79.264C75.6953 79.8288 75.6586 80.7816 76.2235 81.3918C76.2287 81.3976 76.2342 81.4034 76.2397 81.4091Z" fill="#92D0FD"/>
<path d="M53.2184 104.548C54.0499 104.548 54.7245 103.874 54.7249 103.043C54.7251 102.659 54.5788 102.29 54.3161 102.011C48.8553 96.2289 48.8553 87.1907 54.3161 81.4091C54.8905 80.8077 54.8687 79.8546 54.2673 79.2802C53.666 78.7057 52.7128 78.7275 52.1384 79.3289C52.1329 79.3345 52.1275 79.3404 52.1222 79.3462C45.5715 86.2871 45.5715 97.1326 52.1222 104.073C52.4066 104.376 52.8032 104.548 53.2184 104.548Z" fill="#92D0FD"/>
<path d="M84.8073 154.576L70.1459 97.4045C73.3177 94.716 73.7094 89.9653 71.0209 86.7934C68.3324 83.6216 63.5816 83.2299 60.4098 85.9184C57.238 88.6069 56.8463 93.3577 59.5348 96.5295C59.8019 96.8448 60.0945 97.1375 60.4098 97.4045L45.7499 154.576C45.5427 155.381 46.0278 156.202 46.8331 156.409C46.8339 156.41 46.8348 156.41 46.8356 156.41C46.9577 156.441 47.0831 156.456 47.209 156.457C47.896 156.456 48.4955 155.991 48.6666 155.326L49.1695 153.368C49.2538 153.344 49.3359 153.313 49.4149 153.275L77.5617 138.46L81.8861 155.324C82.0569 155.991 82.6582 156.458 83.3467 156.457C83.4732 156.457 83.5991 156.441 83.7216 156.41C84.5274 156.204 85.0137 155.384 84.8078 154.578C84.8077 154.578 84.8075 154.577 84.8073 154.576ZM70.2905 110.095L62.1023 102.929L63.1382 98.8907C63.8305 99.1111 64.5513 99.2282 65.2779 99.2385C66.0042 99.2282 66.7252 99.1111 67.4175 98.8907L70.2905 110.095ZM65.2779 87.1926C67.7727 87.1926 69.7951 89.215 69.7951 91.7098C69.7951 94.2047 67.7727 96.2271 65.2779 96.2271C62.783 96.2271 60.7606 94.2047 60.7606 91.7098C60.7606 89.215 62.783 87.1926 65.2779 87.1926ZM61.2651 106.197L70.3341 114.135L56.9331 123.064L61.2651 106.197ZM50.1678 149.473L55.5734 128.393L73.9434 136.963L50.1678 149.473ZM57.8004 126.11L71.9739 116.66L76.6522 134.906L57.8004 126.11Z" fill="#92D0FD"/>
<path d="M317.031 8C319.711 8 321.811 8.64 323.331 9.92C324.851 11.2 325.611 12.96 325.611 15.2C325.611 17.44 324.851 19.2 323.331 20.48C321.811 21.74 319.711 22.37 317.031 22.37H311.391V29H309.171V8H317.031ZM316.971 20.42C319.051 20.42 320.641 19.97 321.741 19.07C322.841 18.15 323.391 16.86 323.391 15.2C323.391 13.5 322.841 12.2 321.741 11.3C320.641 10.38 319.051 9.92 316.971 9.92H311.391V20.42H316.971ZM331.591 16.31C332.091 15.25 332.831 14.45 333.811 13.91C334.811 13.37 336.041 13.1 337.501 13.1V15.17L336.991 15.14C335.331 15.14 334.031 15.65 333.091 16.67C332.151 17.69 331.681 19.12 331.681 20.96V29H329.551V13.22H331.591V16.31ZM347.661 29.15C346.141 29.15 344.771 28.81 343.551 28.13C342.331 27.43 341.371 26.47 340.671 25.25C339.971 24.03 339.621 22.65 339.621 21.11C339.621 19.57 339.971 18.19 340.671 16.97C341.371 15.75 342.331 14.8 343.551 14.12C344.771 13.44 346.141 13.1 347.661 13.1C349.181 13.1 350.551 13.44 351.771 14.12C352.991 14.8 353.941 15.75 354.621 16.97C355.321 18.19 355.671 19.57 355.671 21.11C355.671 22.65 355.321 24.03 354.621 25.25C353.941 26.47 352.991 27.43 351.771 28.13C350.551 28.81 349.181 29.15 347.661 29.15ZM347.661 27.26C348.781 27.26 349.781 27.01 350.661 26.51C351.561 25.99 352.261 25.26 352.761 24.32C353.261 23.38 353.511 22.31 353.511 21.11C353.511 19.91 353.261 18.84 352.761 17.9C352.261 16.96 351.561 16.24 350.661 15.74C349.781 15.22 348.781 14.96 347.661 14.96C346.541 14.96 345.531 15.22 344.631 15.74C343.751 16.24 343.051 16.96 342.531 17.9C342.031 18.84 341.781 19.91 341.781 21.11C341.781 22.31 342.031 23.38 342.531 24.32C343.051 25.26 343.751 25.99 344.631 26.51C345.531 27.01 346.541 27.26 347.661 27.26ZM357.679 34.97C357.019 34.97 356.399 34.88 355.819 34.7C355.219 34.54 354.729 34.29 354.349 33.95L355.099 32.33C355.719 32.87 356.539 33.14 357.559 33.14C358.399 33.14 359.039 32.89 359.479 32.39C359.939 31.89 360.169 31.15 360.169 30.17V13.22H362.299V30.17C362.299 31.65 361.899 32.82 361.099 33.68C360.299 34.54 359.159 34.97 357.679 34.97ZM361.249 9.74C360.809 9.74 360.439 9.59 360.139 9.29C359.839 8.99 359.689 8.63 359.689 8.21C359.689 7.81 359.839 7.46 360.139 7.16C360.439 6.86 360.809 6.71 361.249 6.71C361.689 6.71 362.059 6.86 362.359 7.16C362.659 7.44 362.809 7.78 362.809 8.18C362.809 8.62 362.659 8.99 362.359 9.29C362.059 9.59 361.689 9.74 361.249 9.74ZM381.992 21.77H368.792C368.912 23.41 369.542 24.74 370.682 25.76C371.822 26.76 373.262 27.26 375.002 27.26C375.982 27.26 376.882 27.09 377.702 26.75C378.522 26.39 379.232 25.87 379.832 25.19L381.032 26.57C380.332 27.41 379.452 28.05 378.392 28.49C377.352 28.93 376.202 29.15 374.942 29.15C373.322 29.15 371.882 28.81 370.622 28.13C369.382 27.43 368.412 26.47 367.712 25.25C367.012 24.03 366.662 22.65 366.662 21.11C366.662 19.57 366.992 18.19 367.652 16.97C368.332 15.75 369.252 14.8 370.412 14.12C371.592 13.44 372.912 13.1 374.372 13.1C375.832 13.1 377.142 13.44 378.302 14.12C379.462 14.8 380.372 15.75 381.032 16.97C381.692 18.17 382.022 19.55 382.022 21.11L381.992 21.77ZM374.372 14.93C372.852 14.93 371.572 15.42 370.532 16.4C369.512 17.36 368.932 18.62 368.792 20.18H379.982C379.842 18.62 379.252 17.36 378.212 16.4C377.192 15.42 375.912 14.93 374.372 14.93ZM394.667 28.04C394.267 28.4 393.767 28.68 393.167 28.88C392.587 29.06 391.977 29.15 391.337 29.15C389.857 29.15 388.717 28.75 387.917 27.95C387.117 27.15 386.717 26.02 386.717 24.56V15.02H383.897V13.22H386.717V9.77H388.847V13.22H393.647V15.02H388.847V24.44C388.847 25.38 389.077 26.1 389.537 26.6C390.017 27.08 390.697 27.32 391.577 27.32C392.017 27.32 392.437 27.25 392.837 27.11C393.257 26.97 393.617 26.77 393.917 26.51L394.667 28.04ZM404.438 29.15C402.918 29.15 401.548 28.81 400.328 28.13C399.108 27.43 398.148 26.47 397.448 25.25C396.748 24.03 396.398 22.65 396.398 21.11C396.398 19.57 396.748 18.19 397.448 16.97C398.148 15.75 399.108 14.8 400.328 14.12C401.548 13.44 402.918 13.1 404.438 13.1C405.958 13.1 407.328 13.44 408.548 14.12C409.768 14.8 410.718 15.75 411.398 16.97C412.098 18.19 412.448 19.57 412.448 21.11C412.448 22.65 412.098 24.03 411.398 25.25C410.718 26.47 409.768 27.43 408.548 28.13C407.328 28.81 405.958 29.15 404.438 29.15ZM404.438 27.26C405.558 27.26 406.558 27.01 407.438 26.51C408.338 25.99 409.038 25.26 409.538 24.32C410.038 23.38 410.288 22.31 410.288 21.11C410.288 19.91 410.038 18.84 409.538 17.9C409.038 16.96 408.338 16.24 407.438 15.74C406.558 15.22 405.558 14.96 404.438 14.96C403.318 14.96 402.308 15.22 401.408 15.74C400.528 16.24 399.828 16.96 399.308 17.9C398.808 18.84 398.558 19.91 398.558 21.11C398.558 22.31 398.808 23.38 399.308 24.32C399.828 25.26 400.528 25.99 401.408 26.51C402.308 27.01 403.318 27.26 404.438 27.26Z" fill="black" fill-opacity="0.55"/>
<path d="M217.321 108.861H179.491L171.343 127H163.874L194.914 59.1H201.995L233.035 127H225.469L217.321 108.861ZM214.702 103.041L198.406 66.569L182.11 103.041H214.702ZM268.808 75.59C275.21 75.59 280.286 77.4653 284.037 81.216C287.852 84.902 289.76 90.3017 289.76 97.415V127H282.873V98.094C282.873 92.7913 281.547 88.7497 278.896 85.969C276.245 83.1883 272.462 81.798 267.547 81.798C262.05 81.798 257.685 83.447 254.452 86.745C251.283 89.9783 249.699 94.4727 249.699 100.228V127H242.812V75.978H249.408V85.387C251.283 82.283 253.87 79.8903 257.168 78.209C260.531 76.463 264.411 75.59 268.808 75.59ZM335.326 123.896C334.033 125.06 332.416 125.965 330.476 126.612C328.601 127.194 326.629 127.485 324.559 127.485C319.774 127.485 316.088 126.192 313.501 123.605C310.915 121.018 309.621 117.365 309.621 112.644V81.798H300.503V75.978H309.621V64.823H316.508V75.978H332.028V81.798H316.508V112.256C316.508 115.295 317.252 117.623 318.739 119.24C320.291 120.792 322.49 121.568 325.335 121.568C326.758 121.568 328.116 121.342 329.409 120.889C330.767 120.436 331.931 119.79 332.901 118.949L335.326 123.896ZM390.49 103.623H347.81C348.198 108.926 350.235 113.226 353.921 116.524C357.607 119.757 362.263 121.374 367.889 121.374C371.058 121.374 373.968 120.824 376.619 119.725C379.27 118.561 381.566 116.88 383.506 114.681L387.386 119.143C385.123 121.859 382.277 123.928 378.85 125.351C375.487 126.774 371.769 127.485 367.695 127.485C362.457 127.485 357.801 126.386 353.727 124.187C349.718 121.924 346.581 118.82 344.318 114.875C342.055 110.93 340.923 106.468 340.923 101.489C340.923 96.5097 341.99 92.0477 344.124 88.103C346.323 84.1583 349.297 81.0867 353.048 78.888C356.863 76.6893 361.131 75.59 365.852 75.59C370.573 75.59 374.808 76.6893 378.559 78.888C382.31 81.0867 385.252 84.1583 387.386 88.103C389.52 91.983 390.587 96.445 390.587 101.489L390.49 103.623ZM365.852 81.507C360.937 81.507 356.799 83.0913 353.436 86.26C350.138 89.364 348.263 93.438 347.81 98.482H383.991C383.538 93.438 381.631 89.364 378.268 86.26C374.97 83.0913 370.831 81.507 365.852 81.507ZM430.601 75.59C437.003 75.59 442.079 77.4653 445.83 81.216C449.645 84.902 451.553 90.3017 451.553 97.415V127H444.666V98.094C444.666 92.7913 443.34 88.7497 440.689 85.969C438.038 83.1883 434.255 81.798 429.34 81.798C423.843 81.798 419.478 83.447 416.245 86.745C413.076 89.9783 411.492 94.4727 411.492 100.228V127H404.605V75.978H411.201V85.387C413.076 82.283 415.663 79.8903 418.961 78.209C422.324 76.463 426.204 75.59 430.601 75.59ZM488.098 75.59C494.759 75.59 499.868 77.2713 503.424 80.634C506.981 83.932 508.759 88.8467 508.759 95.378V127H502.163V119.046C500.611 121.697 498.316 123.767 495.276 125.254C492.302 126.741 488.745 127.485 484.606 127.485C478.916 127.485 474.389 126.127 471.026 123.411C467.664 120.695 465.982 117.106 465.982 112.644C465.982 108.311 467.534 104.819 470.638 102.168C473.807 99.5167 478.819 98.191 485.673 98.191H501.872V95.087C501.872 90.6897 500.644 87.3593 498.186 85.096C495.729 82.768 492.14 81.604 487.419 81.604C484.186 81.604 481.082 82.1537 478.107 83.253C475.133 84.2877 472.578 85.7427 470.444 87.618L467.34 82.477C469.927 80.2783 473.031 78.597 476.652 77.433C480.274 76.2043 484.089 75.59 488.098 75.59ZM485.673 122.053C489.553 122.053 492.884 121.18 495.664 119.434C498.445 117.623 500.514 115.037 501.872 111.674V103.332H485.867C477.137 103.332 472.772 106.371 472.772 112.45C472.772 115.425 473.904 117.785 476.167 119.531C478.431 121.212 481.599 122.053 485.673 122.053ZM541.142 127.485C537.004 127.485 533.027 126.903 529.211 125.739C525.461 124.51 522.518 122.991 520.384 121.18L523.488 115.748C525.622 117.429 528.306 118.82 531.539 119.919C534.773 120.954 538.135 121.471 541.627 121.471C546.283 121.471 549.711 120.76 551.909 119.337C554.173 117.85 555.304 115.78 555.304 113.129C555.304 111.254 554.69 109.799 553.461 108.764C552.233 107.665 550.681 106.856 548.805 106.339C546.93 105.757 544.44 105.207 541.336 104.69C537.198 103.914 533.867 103.138 531.345 102.362C528.823 101.521 526.657 100.131 524.846 98.191C523.1 96.251 522.227 93.5673 522.227 90.14C522.227 85.872 524.006 82.38 527.562 79.664C531.119 76.948 536.066 75.59 542.403 75.59C545.701 75.59 548.999 76.0427 552.297 76.948C555.595 77.7887 558.311 78.9203 560.445 80.343L557.438 85.872C553.235 82.962 548.223 81.507 542.403 81.507C538.006 81.507 534.676 82.283 532.412 83.835C530.214 85.387 529.114 87.424 529.114 89.946C529.114 91.886 529.729 93.438 530.957 94.602C532.251 95.766 533.835 96.639 535.71 97.221C537.586 97.7383 540.172 98.288 543.47 98.87C547.544 99.646 550.81 100.422 553.267 101.198C555.725 101.974 557.826 103.3 559.572 105.175C561.318 107.05 562.191 109.637 562.191 112.935C562.191 117.397 560.316 120.954 556.565 123.605C552.879 126.192 547.738 127.485 541.142 127.485Z" fill="#025B9B"/>
</svg>
