<svg xmlns="http://www.w3.org/2000/svg" xmlns:xlink="http://www.w3.org/1999/xlink" viewBox="0 0 437.93 398.38"><defs><style>.cls-1{isolation:isolate;}.cls-2{fill:#00e6e6;}.cls-10,.cls-11,.cls-13,.cls-16,.cls-3,.cls-8,.cls-9{mix-blend-mode:multiply;}.cls-3{fill:url(#Gradiente_sem_nome_9);}.cls-4{fill:url(#Gradiente_sem_nome_29);}.cls-5{fill:lime;}.cls-6{fill:url(#Gradiente_sem_nome_28);}.cls-7{fill:url(#Gradiente_sem_nome_27);}.cls-8{opacity:0.61;fill:url(#Gradiente_sem_nome_9-2);}.cls-13,.cls-9{opacity:0.36;}.cls-10,.cls-11{opacity:0.26;}.cls-10{fill:url(#Gradiente_sem_nome_10);}.cls-11{fill:url(#Gradiente_sem_nome_9-3);}.cls-12{fill:aqua;}.cls-13{fill:url(#Gradiente_sem_nome_9-4);}.cls-14{opacity:0.65;fill:url(#Gradiente_sem_nome_2);}.cls-15{fill:#070c38;}.cls-16{opacity:0.75;fill:url(#Gradiente_sem_nome_30);}.cls-17{fill:url(#Gradiente_sem_nome_39);}</style><linearGradient id="Gradiente_sem_nome_9" x1="285.39" y1="354.38" x2="285.39" y2="152.38" gradientUnits="userSpaceOnUse"><stop offset="0" stop-color="#fff" stop-opacity="0"/><stop offset="1" stop-opacity="0.9"/></linearGradient><linearGradient id="Gradiente_sem_nome_29" x1="373.15" y1="385.72" x2="287.63" y2="254.04" gradientUnits="userSpaceOnUse"><stop offset="0" stop-color="#29abe2"/><stop offset="0.12" stop-color="#28a5e3"/><stop offset="0.28" stop-color="#2394e6"/><stop offset="0.46" stop-color="#1d78eb"/><stop offset="0.67" stop-color="#1351f1"/><stop offset="0.88" stop-color="#0820fa"/><stop offset="1" stop-color="blue"/></linearGradient><radialGradient id="Gradiente_sem_nome_28" cx="330.39" cy="319.88" r="78.5" gradientUnits="userSpaceOnUse"><stop offset="0" stop-color="#29abe2" stop-opacity="0"/><stop offset="0.3" stop-color="#29aae2" stop-opacity="0.01"/><stop offset="0.44" stop-color="#27a5e3" stop-opacity="0.04"/><stop offset="0.54" stop-color="#259ce5" stop-opacity="0.09"/><stop offset="0.63" stop-color="#2390e7" stop-opacity="0.16"/><stop offset="0.71" stop-color="#1f80e9" stop-opacity="0.25"/><stop offset="0.78" stop-color="#1a6ded" stop-opacity="0.37"/><stop offset="0.84" stop-color="#1455f1" stop-opacity="0.5"/><stop offset="0.9" stop-color="#0e3af5" stop-opacity="0.66"/><stop offset="0.95" stop-color="#071dfa" stop-opacity="0.83"/><stop offset="1" stop-color="blue"/></radialGradient><linearGradient id="Gradiente_sem_nome_27" x1="18.7" y1="180.22" x2="437.93" y2="180.22" gradientUnits="userSpaceOnUse"><stop offset="0" stop-color="lime"/><stop offset="0.18" stop-color="lime"/><stop offset="0.18" stop-color="#00ff02"/><stop offset="0.22" stop-color="#00ff31"/><stop offset="0.26" stop-color="#00ff5c"/><stop offset="0.31" stop-color="#00ff83"/><stop offset="0.35" stop-color="#00ffa5"/><stop offset="0.41" stop-color="#00ffc1"/><stop offset="0.47" stop-color="#00ffd8"/><stop offset="0.54" stop-color="#00ffea"/><stop offset="0.62" stop-color="#00fff6"/><stop offset="0.73" stop-color="#00fffd"/><stop offset="1" stop-color="aqua"/></linearGradient><linearGradient id="Gradiente_sem_nome_9-2" x1="210.49" y1="112.67" x2="267.2" y2="105.71" xlink:href="#Gradiente_sem_nome_9"/><linearGradient id="Gradiente_sem_nome_10" x1="132.27" y1="228.7" x2="105.01" y2="222.91" xlink:href="#Gradiente_sem_nome_9"/><linearGradient id="Gradiente_sem_nome_9-3" x1="257.67" y1="90.81" x2="220.5" y2="122" xlink:href="#Gradiente_sem_nome_9"/><linearGradient id="Gradiente_sem_nome_9-4" x1="359.93" y1="127.41" x2="255.33" y2="22.8" xlink:href="#Gradiente_sem_nome_9"/><linearGradient id="Gradiente_sem_nome_2" x1="276.94" y1="30.77" x2="319.31" y2="85.98" gradientUnits="userSpaceOnUse"><stop offset="0" stop-color="#fff"/><stop offset="0.09" stop-color="#fff" stop-opacity="0.97"/><stop offset="0.22" stop-color="#fff" stop-opacity="0.89"/><stop offset="0.37" stop-color="#fff" stop-opacity="0.77"/><stop offset="0.55" stop-color="#fff" stop-opacity="0.59"/><stop offset="0.74" stop-color="#fff" stop-opacity="0.36"/><stop offset="0.94" stop-color="#fff" stop-opacity="0.08"/><stop offset="1" stop-color="#fff" stop-opacity="0"/></linearGradient><linearGradient id="Gradiente_sem_nome_30" x1="1217.75" y1="687.36" x2="1267.24" y2="643.28" gradientTransform="translate(-838.59 1288.13) rotate(-74.31)" xlink:href="#Gradiente_sem_nome_9"/><linearGradient id="Gradiente_sem_nome_39" x1="91.85" y1="360.71" x2="138.69" y2="27.41" gradientUnits="userSpaceOnUse"><stop offset="0" stop-color="#fff"/><stop offset="0.05" stop-color="#fff" stop-opacity="0.81"/><stop offset="0.1" stop-color="#fff" stop-opacity="0.64"/><stop offset="0.15" stop-color="#fff" stop-opacity="0.49"/><stop offset="0.21" stop-color="#fff" stop-opacity="0.35"/><stop offset="0.28" stop-color="#fff" stop-opacity="0.24"/><stop offset="0.35" stop-color="#fff" stop-opacity="0.15"/><stop offset="0.44" stop-color="#fff" stop-opacity="0.08"/><stop offset="0.54" stop-color="#fff" stop-opacity="0.04"/><stop offset="0.67" stop-color="#fff" stop-opacity="0.01"/><stop offset="1" stop-color="#fff" stop-opacity="0"/></linearGradient></defs><title>Ativo 1</title><g class="cls-1"><g id="Camada_2" data-name="Camada 2"><g id="Camada_1-2" data-name="Camada 1"><path class="cls-2" d="M378.89,354.38H318.23c-22.46-92.95-66-136.57-126.34-141l129-61C340.74,165,366.51,254.91,378.89,354.38Z"/><path class="cls-3" d="M378.89,354.38H318.23c-22.46-92.95-66-136.57-126.34-141l129-61C340.74,165,366.51,254.91,378.89,354.38Z"/><circle class="cls-4" cx="330.39" cy="319.88" r="78.5"/><polygon class="cls-5" points="396.81 317.26 398.8 317.12 402.04 334.32 404.37 333.87 407.22 330.42 405.63 303.65 398.44 276.3 394.88 270.8 386.78 266.21 383.09 266.89 379.72 269.75 375.92 270.35 375.99 273.18 377.5 274.63 379.85 274.1 381.61 278.79 383.66 279.01 384.58 276.79 384.45 274.45 384.73 272.81 387.42 271.58 388.74 269.74 389.66 272.03 387.63 272.87 386.88 275.06 387.97 276.75 391.86 277.42 391.7 278.33 387.63 277.25 388.18 277.72 388.87 279.91 387.38 278.71 386.89 281.57 385.13 280.89 382.78 280.68 382.41 279.93 380.88 279.72 379.21 278.5 379.51 276.8 379.23 275.49 377.94 276.46 377.82 278.95 375.03 278.78 372.78 280.21 372.41 280.9 371.38 281.09 370.52 281.7 369.19 280.34 369.24 281.48 365.84 280.89 368.54 282.99 369.98 284.86 369.04 287.77 368.16 288.12 364.1 286.23 361.18 286.1 360.18 289 360.35 293.85 362.64 294.75 363.64 296.55 364.43 295.99 367.64 296.61 368.96 295.83 368.95 293.33 371.39 291.93 373.36 290.64 373.6 289.62 375.65 289.72 375.85 290.38 377.85 290.79 378.02 291.95 379.38 292.81 380.2 294.58 383.02 297.5 383.76 299.01 383.75 300.51 384.78 299.25 383.81 297.64 384.96 297.46 385.57 299.01 386.14 298.98 385.35 297.4 384.45 295.75 382.8 294.4 380.37 291.79 381.61 290.94 382.73 291.5 383.11 292.95 384.92 294.82 386.48 298.85 387.97 300.74 387.65 302.25 389.01 303.42 389.57 303.08 389.15 301.88 390.66 302.58 390.31 301.33 388.9 299.33 389.67 298.15 391.96 299.04 393.84 299.37 392.78 298.62 393.2 296.94 392.34 296.1 393.52 294.68 394.08 293.65 394.86 292.72 395.54 294.27 396.98 293.89 399.88 293.77 399.45 295.51 398.33 295.51 396.83 294.37 396.13 295.56 396.6 296.84 398.22 296.49 400.49 298.26 401.25 301.83 396.43 299.81 391.54 300.38 392.92 305.46 396.26 308.97 398.23 312.25 392.49 311.25 387.77 307.51 386.56 312.92 379.17 305.1 379.99 300.36 371.79 297.26 367.8 299.11 363.66 296.99 360.62 299.9 359.04 302.56 352.83 305.83 344.93 315.74 342.81 328.06 345.91 337.98 351.76 344.82 359.7 344.5 368.32 341.94 370.93 346.43 367.15 351.98 368.62 359.84 367.63 365.59 364.23 370.57 365.22 379.55 364.47 383.93 368.85 384.69 375.94 381.12 380.18 376.15 381.82 376.43 383.13 368.83 387.17 361.73 395.1 351.72 405.05 343.01 406 337.54 400.56 338.01 396.81 317.26"/><polygon class="cls-5" points="301.96 391.46 297.63 377.45 303.7 376.81 302.6 372.76 306.03 374.51 310.77 369.54 312.84 365.84 318.07 367.09 321.18 359.06 326.36 355.54 325.23 349.55 316.07 344.16 314.1 344.97 313.77 342.22 312.15 339.92 309.71 338.57 306.58 340.11 309.71 336.1 308.83 330.73 303.51 326.6 298.58 318.36 292.21 315.3 290.64 318.55 290.34 314.86 292.22 313.59 289.99 313.05 287.51 317.61 283.35 316.04 282.78 312.66 283.95 307.79 280.4 306.94 284.18 300.22 281.2 299.5 280.59 302.03 277.58 302.26 277.7 295.99 280.65 291.07 284.04 289.28 286.28 289.81 290.2 290.75 290.07 297.05 291.5 296.06 293.1 289.38 301.31 283.91 306.51 278.68 309.86 278.71 310.74 275.87 318.5 273.92 317.61 276 323.36 275.08 320.4 273.42 320.17 271.08 323.23 270.67 320.25 269.95 315.09 271.28 321.57 268.55 325.86 269.58 333.02 267.67 331.91 262.45 332.55 258.98 328.22 261.37 326.29 259.57 328.25 257.95 323.56 257.77 319.12 260.67 319.72 262.26 315.36 264.01 312.84 266.27 310.54 267.63 309.73 266.09 312.51 263.52 307.42 261.73 308.15 259.48 317.25 255.31 322.46 253.31 322.66 251.65 312.54 251.89 315.38 249.9 312.14 247.79 298.68 250.47 271.27 276.71 265.97 284.02 268.74 296.32 269.49 285.79 272.93 283.79 271.17 286.19 272.13 293.7 270.9 298.02 275.57 304.06 279.93 308.93 282.86 317.26 284.85 322.12 286.05 324.51 282.53 330.15 282.3 336.07 286.68 346.6 291.52 352.72 291.45 367.01 292.83 379.35 296.07 386.43 298.23 390.57 301.96 391.46"/><path class="cls-5" d="M335.22,257.4l1.57-4.69,4.86.32-.4-4.32-6.83-2.42,7.29-.53,9.82.66a50.79,50.79,0,0,1,5.63,0c.89.21,7.73,3.1,7.73,3.1l5.7,2.87-7.17.9,1.68,1.33-7.17,0,4.68,1.09-4.18,1.31-5-1.06-5.2-.87L345,257.22l-4.66,1.85Z"/><polygon class="cls-5" points="370.29 270.03 370.76 271.6 370.51 272.64 371.98 272.98 372.89 273.2 372.6 274.45 371.6 274.21 370.89 274.62 371.81 274.83 370.92 275.6 370.24 275.7 372.2 276.16 372.07 276.7 371.11 276.48 369.81 276.79 370.64 276.98 372.52 277.42 374.73 277.94 376.27 278.3 375.14 277.51 375.97 277.18 376.11 276.55 375.37 275.98 374.56 276.23 374.81 274.79 374.47 274.18 374.18 274.11 373.66 272.54 372.47 272.17 373.93 271.41 373.84 270.86 372.5 270.55 373.11 270.03 371.98 269.37 371.14 270.14 370.29 270.03"/><polygon class="cls-5" points="366.32 273.81 367.44 272.8 367.19 271.99 367.7 271.67 368.45 271.85 368.61 271.18 369.91 271.66 370.36 272.34 370.48 272.98 369.59 273 370 273.53 369.45 274.55 368.99 274.26 367.43 274.51 366.32 273.81"/><polygon class="cls-5" points="358.61 259.06 360.72 259.82 360.17 260.31 360.27 260.74 359.2 260.67 361.7 261.25 362.53 261.74 365.36 261.96 366.95 262.19 366.03 260.98 365.67 260.36 363.38 260.36 362.03 259.51 361.51 260.06 360.65 258.86 358.61 259.06"/><circle class="cls-6" cx="330.39" cy="319.88" r="78.5"/><path class="cls-7" d="M418.39,146.88c16-39,5-91-36-119s-120.9-35.47-155,12c-161-11-264,192-177,315h80c-26-31-27-54-27-54L156,300c-11-35.18-3.17-53.81,12.49-65.51,1.39,0,7.09.34,7.09.34h0c-24.7,35.15-11.07,71.46,14.81,120.06h60c-38-119.45,59-172,102-162s42.38,60.79,32,92c-21.42,64.39-136.2,31.81-97-28,2.84-4.16,7.31-7.1,12.5-9.5-14-9-55.5,5.5-48.5,50.5s104,77,144,34S455.39,226.88,418.39,146.88Z"/><path class="cls-5" d="M21,332.31l-8.11-1.5C-2,315.79-21.38,190.1,66,116.2c-3.08,3.79-2.45,8.43-5.74,11.76C-14.27,203.17,8.17,309.81,21,332.31Z"/><path class="cls-8" d="M207.89,49.38c-19,54,67,119,67,119"/><path class="cls-9" d="M189.65,220.5c-5,3.26-8.52,6.59-14.08,14.32l-7.09-.34C181.29,224.11,186.38,221.61,189.65,220.5Z"/><path class="cls-10" d="M140.05,192.09c-29.73,11.31-40.37,37-40.37,68l4.42-4.76C103.87,230.12,116.59,204.39,140.05,192.09Z"/><path class="cls-11" d="M207.89,49.38c-10.09,22.48,15.13,72.67,67,119-68-36.87-93.75-110-65.58-128.84,1.92-.07,4-.12,5.26-.09-2.39,2.19-4.61,5.54-6.68,9.93"/><path class="cls-12" d="M274.89,168.38s-86-65-67-119,97-56,119.3-42.11Z"/><path class="cls-13" d="M290,155.85s-68.88-52-53.66-95.3,66.49-41.09,95.54-33.73,60.33,21.42,63.6,43.74C402.87,120.88,290,155.85,290,155.85Z"/><path class="cls-14" d="M236.4,60.55c15.21-43.25,66.49-41.08,95.54-33.73C352,31.91,373.15,40.2,385.37,52.2,374.22,37.77,350.45,28.07,328,22.39c-29.05-7.36-80.32-9.52-95.54,33.72-8.44,24,9,50.65,26.16,69.67C243.07,108.1,228.25,83.7,236.4,60.55Z"/><ellipse class="cls-15" cx="376.23" cy="79.46" rx="3.78" ry="4.82" transform="matrix(0.58, -0.81, 0.81, 0.58, 91.7, 338.13)"/><path class="cls-16" d="M168.48,234.48c-27.35-.33-51.73,5.3-68.8,25.56,0,12.52.65,21.14,3.71,40.84L156,300C151.75,286.06,142.46,254,168.48,234.48Z"/><path class="cls-17" d="M227.39,39.88c-161-11-264,192-177,315h80c-26-31-27-54-27-54-8.94-53.49-3.54-93,36.66-108.79"/></g></g></g></svg>