<?xml version="1.0" encoding="utf-8"?>
<!-- Generator: Adobe Illustrator 23.0.0, SVG Export Plug-In . SVG Version: 6.00 Build 0)  -->
<svg version="1.1" id="Camada_1" xmlns="http://www.w3.org/2000/svg" xmlns:xlink="http://www.w3.org/1999/xlink" x="0px" y="0px"
	 viewBox="0 0 600 737" style="enable-background:new 0 0 600 737;" xml:space="preserve">
<style type="text/css">
	.st0{clip-path:url(#SVGID_2_);}
	.st1{fill:#FFFFFF;}
	.st2{fill:#00FDDF;}
	.st3{fill:#2CC7AB;}
	.st4{fill:#112F44;}
	.st5{fill:#373A52;}
	.st6{fill:#00E6E6;}
	.st7{fill:url(#SVGID_3_);}
	.st8{fill:url(#SVGID_4_);}
	.st9{fill:#00FF00;}
	.st10{fill:url(#SVGID_5_);}
	.st11{fill:url(#SVGID_6_);}
	.st12{opacity:0.61;fill:url(#SVGID_7_);enable-background:new    ;}
	.st13{opacity:0.36;enable-background:new    ;}
	.st14{opacity:0.26;fill:url(#SVGID_8_);enable-background:new    ;}
	.st15{opacity:0.26;fill:url(#SVGID_9_);enable-background:new    ;}
	.st16{fill:#00FFFF;}
	.st17{opacity:0.36;fill:url(#SVGID_10_);enable-background:new    ;}
	.st18{opacity:0.65;fill:url(#SVGID_11_);enable-background:new    ;}
	.st19{fill:#070C38;}
	.st20{opacity:0.75;fill:url(#SVGID_12_);enable-background:new    ;}
	.st21{fill:url(#SVGID_13_);}
</style>
<title>Ativo 1</title>
<g>
	<g>
		<g id="Camada_1-2">
			<g>
				<defs>
					<rect id="SVGID_1_" width="600" height="737"/>
				</defs>
				<clipPath id="SVGID_2_">
					<use xlink:href="#SVGID_1_"  style="overflow:visible;"/>
				</clipPath>
				<g class="st0">
					<rect class="st1" width="600" height="737"/>
					<circle class="st2" cx="306.5" cy="558.5" r="371.5"/>
					<circle class="st3" cx="319" cy="289" r="427"/>
					<circle class="st4" cx="217" cy="59" r="552"/>
					<circle class="st5" cx="315" cy="160" r="380"/>
				</g>
			</g>
			<path class="st1" d="M264.2,154.3h10.3v29.3c0,2.6-0.6,5.1-1.9,7.3c-1.2,2.1-3.1,3.9-5.3,5c-2.3,1.2-4.9,1.8-7.5,1.8
				c-4.7,0-8.3-1.2-10.8-3.5c-2.6-2.3-3.8-5.7-3.9-10h10.3c-0.1,1.5,0.2,3,1,4.3c0.9,1,2.1,1.4,3.4,1.3c1.3,0.1,2.5-0.5,3.3-1.6
				c0.9-1.3,1.3-2.9,1.2-4.5L264.2,154.3z M299.4,193.6c-2,2.6-5.2,4.1-8.5,4c-3.5,0-6.1-1-7.9-3s-2.7-4.9-2.7-8.7v-20.5h9.9v20.6
				c0,2.7,1.3,4.1,4,4.1c1.9,0.2,3.8-0.8,4.8-2.4v-22.2h9.9V197h-9.3L299.4,193.6z M323.7,165.3l0.3,3.7c2.1-2.8,5.5-4.4,9-4.3
				c4,0,6.7,1.6,8.1,4.8c2-3.1,5.6-4.9,9.3-4.8c6.4,0,9.7,3.9,9.9,11.7V197h-9.9v-20c0.1-1.2-0.2-2.5-0.8-3.5
				c-0.8-0.8-1.9-1.3-3-1.1c-1.8-0.1-3.6,1-4.4,2.6v0.4V197h-9.9v-20c0.1-1.3-0.2-2.5-0.8-3.6c-0.8-0.8-1.9-1.3-3-1.1
				c-1.8,0-3.5,1-4.3,2.6V197h-9.9v-31.7H323.7z M395.5,181.4c0,5.2-1.1,9.2-3.2,12c-2.2,2.8-5.6,4.4-9.1,4.2
				c-3.1,0.1-6-1.4-7.8-3.8L375,197h-8.8v-45h9.8v15.8c1.8-2.1,4.4-3.2,7.1-3.1c3.6-0.2,7,1.4,9.1,4.3c2.1,2.8,3.2,6.8,3.2,12
				L395.5,181.4z M385.6,180.8c0-3-0.4-5.2-1.2-6.5c-0.8-1.3-2.2-2.1-3.7-2c-1.9-0.2-3.8,0.8-4.6,2.5v12.6c0.8,1.7,2.4,2.5,4.7,2.5
				c2.1,0.1,4-1.3,4.4-3.4C385.5,184.7,385.7,182.7,385.6,180.8z M398.6,180.9c-0.1-2.9,0.6-5.8,1.8-8.4c1.2-2.4,3-4.4,5.3-5.7
				c2.5-1.4,5.3-2.1,8.1-2c4.8,0,8.5,1.5,11.2,4.4c2.7,3,4.1,7,4.1,12v0.3c0,4.9-1.4,8.9-4.1,11.8c-2.8,2.9-6.4,4.4-11,4.3
				c-4.5,0-8.1-1.3-10.9-4c-2.7-2.7-4.2-6.4-4.4-11L398.6,180.9z M408.5,181.5c0,2.9,0.5,5.1,1.4,6.5c0.9,1.4,2.5,2.2,4.2,2.1
				c3.5,0,5.3-2.7,5.4-8.1v-1c0-5.7-1.8-8.5-5.5-8.5c-3.3,0-5.1,2.5-5.4,7.4L408.5,181.5z M460.5,178.9h-16.2v10.2h19.1v7.9H434
				v-42.7h29.4v7.9h-19.1v9h16.2L460.5,178.9z M501.7,162.3h-12.8V197h-10.3v-34.7H466v-7.9h35.7L501.7,162.3z M516.3,189.1h17.9
				v7.9H506v-42.7h10.3L516.3,189.1z"/>
			<path class="st1" d="M87.1,378.6c-0.1,2.8-0.9,5.5-2.4,7.9c-1.5,2.3-3.7,4.1-6.2,5.3c-2.8,1.3-5.9,1.9-9,1.9
				c-5.6,0-10-1.8-13.2-5.5s-4.8-8.8-4.8-15.5v-2.1c-0.1-3.8,0.6-7.5,2.2-11c1.3-3,3.5-5.5,6.3-7.3c2.9-1.8,6.1-2.6,9.5-2.6
				c5.2,0,9.3,1.4,12.5,4.1c3.1,2.7,4.9,6.5,5.4,11.3H77c-0.1-2.6-0.7-4.5-2-5.6s-3.1-1.7-5.6-1.7c-2.3-0.2-4.4,1-5.6,2.9
				c-1.2,1.9-1.8,5-1.9,9.2v3c0,4.6,0.6,7.8,1.7,9.8c1.1,1.9,3.1,2.9,5.9,2.9c2,0.1,3.9-0.5,5.4-1.7c1.3-1.1,1.9-2.9,2-5.3
				L87.1,378.6z M90.3,376.9c-0.1-2.9,0.6-5.8,1.8-8.4c1.2-2.4,3-4.4,5.3-5.7c2.5-1.4,5.3-2.1,8.1-2c4.8,0,8.5,1.5,11.2,4.4
				c2.7,2.9,4.1,6.9,4.1,12v0.3c0,4.9-1.4,8.9-4.1,11.8c-2.8,2.9-6.5,4.4-11.1,4.3c-4.5,0-8.1-1.3-10.9-4c-2.7-2.7-4.2-6.4-4.4-11
				L90.3,376.9z M100.2,377.5c0,2.9,0.5,5.1,1.4,6.5c0.9,1.4,2.4,2.1,4.1,2c3.5,0,5.3-2.7,5.4-8.1v-1c0-5.7-1.8-8.5-5.5-8.5
				c-3.3,0-5.1,2.5-5.4,7.4L100.2,377.5z M134.3,361.3l0.3,3.7c2.1-2.8,5.5-4.4,9-4.3c3.3,0,5.8,1,7.4,3c1.6,2,2.5,4.9,2.5,8.9V393
				h-9.9v-20c0.1-1.3-0.3-2.5-1-3.5c-0.6-0.8-1.8-1.1-3.5-1.1c-1.7-0.1-3.4,0.8-4.3,2.3V393H125v-31.7H134.3z M174.5,393.6
				c-4.9,0-8.8-1.4-11.8-4.3c-3-3-4.7-7.1-4.5-11.3v-0.8c-0.1-3,0.6-5.9,1.8-8.6c1.1-2.4,3-4.4,5.3-5.7c2.5-1.4,5.3-2.1,8.2-2
				c4.5,0,8,1.4,10.5,4.2c2.6,2.8,3.9,6.6,3.9,11.5v3.8h-19.6c0.3,1.6,1.1,3.1,2.3,4.2c1.3,1,3,1.6,4.6,1.5c2.8,0.1,5.5-1.1,7.3-3.3
				l4.5,5.3c-1.4,1.8-3.2,3.2-5.3,4.1C179.5,393.1,177,393.6,174.5,393.6L174.5,393.6z M173.3,368.3c-2.9,0-4.6,1.9-5.2,5.7h10v-0.8
				c0.1-1.3-0.3-2.7-1.2-3.7C176,368.7,174.7,368.2,173.3,368.3L173.3,368.3z M205.2,386c1.2,0.1,2.3-0.3,3.2-1.1
				c0.8-0.8,1.2-2,1.1-3.2h9.3c0.1,3.3-1.3,6.4-3.8,8.6c-2.7,2.3-6.1,3.5-9.6,3.3c-4.6,0-8.2-1.4-10.9-4.3s-4-6.9-4-12v-0.4
				c-0.1-2.9,0.5-5.8,1.8-8.5c1.1-2.4,2.9-4.3,5.1-5.7c2.4-1.4,5.1-2.1,7.9-2c4.1,0,7.4,1.1,9.8,3.4c2.5,2.4,3.8,5.8,3.6,9.3h-9.3
				c0.1-1.4-0.3-2.7-1.2-3.8c-0.8-0.9-2-1.4-3.2-1.3c-2.6,0-4.1,1.6-4.5,4.9c-0.2,1.4-0.2,2.9-0.2,4.3c0,3.2,0.4,5.4,1.1,6.6
				C202.4,385.4,203.7,386.1,205.2,386z M234.5,353.5v7.9h5.2v6.9h-5.2v14.5c-0.1,0.9,0.1,1.8,0.6,2.5c0.7,0.6,1.6,0.8,2.5,0.7
				c0.8,0,1.6,0,2.5-0.2v7.1c-1.8,0.6-3.7,0.9-5.6,0.8c-3.4,0-5.9-0.8-7.5-2.4s-2.4-4-2.4-7.3v-15.8h-4v-6.9h4v-7.9L234.5,353.5z
				 M258.9,393.6c-4.9,0-8.8-1.4-11.8-4.3c-3-3-4.7-7.1-4.5-11.3v-0.8c-0.1-3,0.6-5.9,1.8-8.6c1.1-2.4,3-4.4,5.3-5.7
				c2.5-1.4,5.3-2.1,8.2-2c4.5,0,8,1.4,10.5,4.2s3.9,6.6,3.9,11.5v3.8h-19.6c0.3,1.6,1.1,3.1,2.3,4.2c1.3,1.1,2.9,1.6,4.6,1.5
				c2.8,0.1,5.5-1.1,7.3-3.3l4.5,5.3c-1.4,1.8-3.2,3.2-5.2,4.1C263.9,393.2,261.4,393.6,258.9,393.6L258.9,393.6z M257.8,368.4
				c-2.9,0-4.6,1.9-5.2,5.7h10v-0.8c0.1-1.3-0.3-2.7-1.2-3.7C260.5,368.7,259.2,368.2,257.8,368.4L257.8,368.4z M295.6,378.5H278
				v-7.7h17.6L295.6,378.5z M319.9,384.1c0-0.9-0.5-1.6-1.3-2c-1.6-0.7-3.3-1.3-5-1.6c-2.1-0.4-4.2-1.1-6.1-2.1
				c-1.5-0.8-2.7-1.9-3.7-3.3c-0.8-1.3-1.3-2.8-1.3-4.4c0-2.8,1.3-5.5,3.6-7.2c2.7-2,6.1-3,9.4-2.8c4.2,0,7.5,0.9,10.1,2.8
				c2.4,1.7,3.9,4.5,3.8,7.5h-9.9c0-2.5-1.3-3.8-4-3.8c-0.9,0-1.9,0.3-2.6,0.9c-0.7,0.5-1.1,1.3-1.1,2.1c0,0.9,0.5,1.7,1.3,2.1
				c1.3,0.7,2.7,1.1,4.1,1.3c1.7,0.3,3.4,0.7,5,1.3c4.8,1.6,7.2,4.6,7.2,8.8c0,2.9-1.4,5.5-3.9,7.1c-3,1.9-6.5,2.9-10,2.7
				c-2.5,0-5-0.5-7.3-1.5c-2-0.9-3.7-2.2-5-4c-1.1-1.5-1.8-3.4-1.8-5.3h9.2c-0.1,1.2,0.5,2.5,1.5,3.2c1.1,0.7,2.3,1.1,3.6,1
				c1.1,0.1,2.1-0.2,3-0.8C319.5,385.8,319.9,384.9,319.9,384.1L319.9,384.1z M349.4,393.6c-4.9,0-8.8-1.4-11.8-4.3
				c-3-3-4.7-7.1-4.5-11.3v-0.8c-0.1-3,0.6-5.9,1.8-8.6c1.1-2.4,3-4.4,5.3-5.7c2.5-1.4,5.3-2.1,8.2-2c4.5,0,8,1.4,10.5,4.2
				c2.6,2.8,3.9,6.6,3.9,11.5v3.8h-19.6c0.3,1.6,1.1,3.1,2.3,4.2c1.3,1.1,2.9,1.6,4.6,1.5c2.8,0.1,5.5-1.1,7.3-3.3l4.5,5.3
				c-1.4,1.8-3.2,3.2-5.2,4.1C354.4,393.2,351.9,393.6,349.4,393.6L349.4,393.6z M348.3,368.4c-2.9,0-4.6,1.9-5.2,5.7h10v-0.8
				c0.1-1.3-0.3-2.7-1.2-3.7C351,368.7,349.7,368.2,348.3,368.4L348.3,368.4z M206.8,463c-0.4-0.9-0.7-1.9-0.9-2.8
				c-1.8,2.3-4.7,3.6-7.6,3.4c-2.8,0.1-5.5-0.9-7.6-2.7c-2-1.7-3.2-4.2-3.1-6.8c-0.2-3.1,1.3-6,3.8-7.8c2.5-1.8,6.2-2.6,11.1-2.6h3
				V442c0-2.9-1.3-4.4-3.8-4.4c-2.3,0-3.5,1.2-3.5,3.5h-9.9c0-3,1.4-5.8,3.9-7.5c2.9-2,6.4-3,10-2.9c4,0,7.2,1,9.6,3
				c2.4,2,3.7,5,3.6,8.1v14c-0.1,2.3,0.4,4.6,1.3,6.7v0.5L206.8,463z M200.6,456.5c1.1,0,2.1-0.2,3-0.8c0.7-0.4,1.3-1,1.8-1.8v-5.1
				h-2.9c-3.4,0-5.2,1.5-5.2,4.6c0,0.8,0.3,1.6,0.9,2.2C198.9,456.3,199.7,456.6,200.6,456.5z M219.6,446.9
				c-0.1-2.9,0.6-5.8,1.8-8.4c1.1-2.4,3-4.4,5.3-5.7c2.5-1.4,5.3-2.1,8.1-2c4.8,0,8.5,1.5,11.2,4.4s4.1,6.9,4.1,12v0.3
				c0,4.9-1.4,8.9-4.1,11.8c-2.8,2.9-6.5,4.4-11.1,4.3c-4.5,0-8.1-1.3-10.9-4c-2.7-2.7-4.2-6.4-4.4-11L219.6,446.9z M229.5,447.5
				c0,2.9,0.5,5.1,1.4,6.5c0.9,1.4,2.4,2.1,4.1,2c3.5,0,5.3-2.7,5.4-8.1v-1c0-5.7-1.8-8.5-5.5-8.5c-3.3,0-5.1,2.5-5.4,7.4
				L229.5,447.5z M286.1,454.1c0-0.9-0.5-1.6-1.3-2c-1.6-0.7-3.3-1.3-5-1.6c-2.1-0.4-4.2-1.1-6.1-2.1c-1.5-0.8-2.7-1.9-3.7-3.3
				c-0.8-1.3-1.3-2.8-1.3-4.4c0-2.8,1.3-5.5,3.6-7.2c2.7-2,6.1-3,9.4-2.8c4.2,0,7.5,0.9,10.1,2.8c2.4,1.7,3.9,4.5,3.8,7.5h-9.9
				c0-2.5-1.3-3.8-4-3.8c-0.9,0-1.9,0.3-2.6,0.9c-0.7,0.5-1.1,1.3-1.1,2.1c0,0.9,0.5,1.7,1.3,2.1c1.3,0.7,2.7,1.1,4.1,1.3
				c1.7,0.3,3.4,0.7,5,1.3c4.8,1.6,7.2,4.6,7.2,8.8c0,2.9-1.4,5.5-3.9,7.1c-3,1.9-6.5,2.9-10,2.7c-2.5,0-5-0.5-7.3-1.5
				c-2-0.9-3.7-2.2-5-4c-1.1-1.5-1.8-3.4-1.8-5.3h9.2c-0.1,1.2,0.5,2.5,1.5,3.2c1.1,0.7,2.3,1.1,3.6,1c1.1,0.1,2.1-0.2,3-0.8
				C285.7,455.7,286,454.9,286.1,454.1L286.1,454.1z M315.6,463.6c-4.9,0-8.8-1.4-11.8-4.3c-3-3-4.7-7.1-4.5-11.3v-0.8
				c-0.1-3,0.5-5.9,1.8-8.6c1.1-2.4,3-4.4,5.3-5.7c2.5-1.4,5.3-2.1,8.2-2c4.5,0,8,1.4,10.5,4.2c2.6,2.8,3.9,6.6,3.9,11.5v3.8h-19.7
				c0.3,1.6,1.1,3.1,2.3,4.2c1.3,1.1,3,1.6,4.6,1.5c2.8,0.1,5.5-1.1,7.3-3.3l4.5,5.3c-1.4,1.8-3.2,3.2-5.2,4.1
				C320.5,463.1,318,463.6,315.6,463.6L315.6,463.6z M314.5,438.3c-2.9,0-4.6,1.9-5.2,5.7h10v-0.8c0.1-1.3-0.3-2.7-1.2-3.7
				C317.1,438.7,315.8,438.2,314.5,438.3L314.5,438.3z M351.8,459.6c-2,2.6-5.2,4.1-8.5,4c-3.5,0-6.1-1-7.9-3
				c-1.8-2-2.7-4.9-2.7-8.7v-20.5h9.9v20.6c0,2.7,1.3,4.1,4,4.1c1.9,0.2,3.8-0.8,4.8-2.4v-22.2h9.9V463h-9.3L351.8,459.6z"/>
			<path class="st1" d="M219.4,572.9c0.1-2.2-0.9-4.3-2.6-5.6c-1.7-1.3-4.7-2.7-9-4.2c-3.6-1.2-7.1-2.6-10.5-4.2
				c-8.8-4.3-13.3-10.3-13.3-17.9c-0.1-3.6,1.1-7.1,3.3-10c2.4-3.1,5.7-5.4,9.4-6.8c4.3-1.7,8.9-2.5,13.6-2.4
				c4.5-0.1,9,0.8,13.2,2.6c3.7,1.6,6.9,4.2,9.1,7.5c2.2,3.3,3.3,7.1,3.2,11.1h-16.4c0.1-2.4-0.8-4.8-2.6-6.5
				c-1.9-1.6-4.4-2.4-6.9-2.3c-2.5-0.1-5,0.6-7,2c-1.6,1.1-2.5,3-2.5,4.9c0,1.8,0.9,3.3,2.8,4.8s5.2,2.9,9.9,4.4
				c4,1.2,7.9,2.8,11.6,4.9c7.4,4.3,11.1,10.1,11.1,17.6c0.2,5.5-2.3,10.8-6.8,14.1c-4.5,3.4-10.7,5.1-18.5,5.1
				c-5.2,0.1-10.3-1-15-3c-4.1-1.7-7.6-4.5-10.1-8.2c-2.3-3.6-3.5-7.7-3.4-11.9h16.5c0,3.6,0.9,6.3,2.8,8.1c1.9,1.8,5,2.6,9.2,2.6
				c2.3,0.1,4.5-0.5,6.4-1.7C218.6,576.6,219.4,574.8,219.4,572.9z M268.1,591.9c-7.8,0-14.1-2.3-18.9-6.9s-7.2-10.7-7.2-18.1v-1.3
				c-0.1-4.7,0.9-9.4,2.9-13.7c1.8-3.8,4.8-7,8.4-9.2c4-2.3,8.5-3.4,13.1-3.3c7.1,0,12.7,2.2,16.9,6.7c4.1,4.4,6.2,10.6,6.2,18.5
				v6.1H258c0.4,2.6,1.7,5,3.7,6.7c2.1,1.7,4.7,2.6,7.4,2.4c5,0,8.9-1.8,11.7-5.3l7.2,8.5c-2.2,2.9-5.1,5.1-8.4,6.5
				C276,591.2,272.1,592,268.1,591.9z M266.3,551.5c-4.6,0-7.4,3.1-8.3,9.2h16v-1.2c0.2-2.1-0.5-4.3-1.9-5.9
				C270.5,552.1,268.4,551.4,266.3,551.5L266.3,551.5z M326.5,554.5l-5.2-0.4c-5,0-8.2,1.6-9.6,4.7V591H296v-50.7h14.8l0.5,6.5
				c2.7-5,6.4-7.5,11.1-7.5c1.5,0,3,0.2,4.4,0.6L326.5,554.5z M353.3,572.1l8-31.9h16.6L361.4,591h-16.1l-16.5-50.7h16.7
				L353.3,572.1z M399.3,590.9h-15.8v-50.7h15.8L399.3,590.9z M382.5,527.1c-0.1-2.1,0.8-4.2,2.4-5.5c3.7-2.9,8.9-2.9,12.7,0
				c3.1,2.8,3.3,7.6,0.4,10.6c-0.1,0.2-0.3,0.3-0.4,0.4c-3.7,2.9-8.9,2.9-12.7,0C383.4,531.3,382.5,529.3,382.5,527.1L382.5,527.1z
				 M407.1,565.2c0-8,1.7-14.4,5.2-19c3.5-4.6,8.3-6.9,14.5-6.9c4.4,0,8.6,1.9,11.4,5.3V519h15.8v72h-14.2l-0.8-5.4
				c-2.8,4-7.5,6.4-12.4,6.4c-5.6,0.2-11-2.4-14.3-6.9C408.9,580.4,407.1,573.8,407.1,565.2L407.1,565.2z M422.9,566.2
				c0,9,2.6,13.5,7.9,13.5c3.2,0.2,6.1-1.5,7.5-4.4V556c-1.3-2.9-4.2-4.7-7.4-4.5c-4.9,0-7.5,3.9-7.9,11.8L422.9,566.2z
				 M461.1,565.1c-0.1-4.7,1-9.3,3-13.5c1.8-3.8,4.8-7,8.5-9.1c4-2.2,8.5-3.3,13-3.2c7.6,0,13.6,2.4,18,7.1
				c4.4,4.7,6.6,11.1,6.6,19.2v0.6c0,7.9-2.2,14.2-6.6,18.8c-4.4,4.7-10.3,7-17.8,6.9c-7.2,0-13-2.2-17.4-6.5s-6.7-10.2-7.1-17.6
				L461.1,565.1z M476.9,566.1c0,4.7,0.7,8.1,2.2,10.3c1.4,2.2,3.9,3.4,6.5,3.3c5.6,0,8.5-4.3,8.6-13v-1.6c0-9.1-2.9-13.6-8.7-13.6
				c-5.3,0-8.1,3.9-8.6,11.8L476.9,566.1z M547.6,554.6l-5.2-0.4c-5,0-8.2,1.6-9.6,4.7V591h-15.8v-50.7h14.8l0.5,6.5
				c2.7-5,6.4-7.5,11.1-7.5c1.5,0,3,0.2,4.4,0.6L547.6,554.6z"/>
			<path class="st6" d="M194.5,241.9h-26c-9.6-39.8-28.3-58.5-54.1-60.4l55.2-26.1C178.1,160.8,189.2,199.3,194.5,241.9z"/>
			
				<linearGradient id="SVGID_3_" gradientUnits="userSpaceOnUse" x1="154.425" y1="196.06" x2="154.425" y2="282.54" gradientTransform="matrix(1 0 0 -1 0 438)">
				<stop  offset="0" style="stop-color:#FFFFFF;stop-opacity:0"/>
				<stop  offset="1" style="stop-color:#000000;stop-opacity:0.9"/>
			</linearGradient>
			<path class="st7" d="M194.5,241.9h-26c-9.6-39.8-28.3-58.5-54.1-60.4l55.2-26.1C178.1,160.8,189.2,199.3,194.5,241.9z"/>
			
				<linearGradient id="SVGID_4_" gradientUnits="userSpaceOnUse" x1="192.0162" y1="182.6382" x2="155.4038" y2="239.0219" gradientTransform="matrix(1 0 0 -1 0 438)">
				<stop  offset="0" style="stop-color:#29ABE2"/>
				<stop  offset="0.12" style="stop-color:#28A5E3"/>
				<stop  offset="0.28" style="stop-color:#2394E6"/>
				<stop  offset="0.46" style="stop-color:#1D78EB"/>
				<stop  offset="0.67" style="stop-color:#1351F1"/>
				<stop  offset="0.88" style="stop-color:#0820FA"/>
				<stop  offset="1" style="stop-color:#0000FF"/>
			</linearGradient>
			<circle class="st8" cx="173.7" cy="227.2" r="33.6"/>
			<polygon class="st9" points="202.1,226 203,226 204.4,233.3 205.4,233.2 206.6,231.7 205.9,220.2 202.8,208.5 201.3,206.2 
				197.8,204.2 196.3,204.5 194.8,205.7 193.2,206 193.2,207.2 193.9,207.8 194.9,207.6 195.6,209.6 196.5,209.7 196.9,208.7 
				196.8,207.7 197,207 198.1,206.5 198.7,205.7 199.1,206.7 198.2,207 197.9,208 198.4,208.7 200,209 200,209.4 198.2,208.9 
				198.5,209.1 198.7,210.1 198.1,209.5 197.9,210.8 197.1,210.5 196.1,210.4 196,210.1 195.3,210 194.6,209.5 194.7,208.7 
				194.6,208.2 194.1,208.6 194,209.7 192.8,209.6 191.9,210.2 191.7,210.5 191.3,210.6 190.9,210.8 190.3,210.2 190.3,210.7 
				188.9,210.5 190,211.4 190.7,212.2 190.3,213.4 189.9,213.6 188.1,212.8 186.9,212.7 186.5,214 186.5,216 187.5,216.4 
				187.9,217.2 188.3,217 189.7,217.2 190.2,216.9 190.2,215.8 191.3,215.2 192.1,214.7 192.2,214.2 193.1,214.3 193.2,214.5 
				194,214.7 194.1,215.2 194.7,215.6 195,216.3 196.2,217.6 196.6,218.2 196.5,218.9 197,218.3 196.6,217.7 197.1,217.6 
				197.3,218.2 197.6,218.2 197.2,217.5 196.8,216.8 196.1,216.3 195.1,215.1 195.6,214.8 196.1,215 196.3,215.6 197,216.5 
				197.7,218.2 198.4,219 198.2,219.6 198.8,220.1 199,220 198.9,219.5 199.5,219.8 199.4,219.2 198.8,218.4 199.1,217.9 
				200.1,218.3 200.9,218.4 200.4,218.1 200.6,217.3 200.2,217 200.7,216.4 201,215.9 201.3,215.5 201.6,216.2 202.2,216 203.5,216 
				203.3,216.7 202.8,216.7 202.2,216.3 201.8,216.8 202,217.3 202.8,217.2 203.7,217.9 204,219.4 202,218.6 199.9,218.8 200.5,221 
				201.9,222.5 202.8,223.9 200.3,223.5 198.3,221.9 197.8,224.2 194.6,220.8 194.9,218.8 191.4,217.5 189.7,218.3 188,217.4 
				186.7,218.6 186,219.8 183.3,221.2 179.9,225.4 179,230.7 180.3,234.9 182.8,237.8 186.3,237.7 189.9,236.6 191.1,238.5 
				189.5,240.9 190.1,244.3 189.7,246.7 188.2,248.9 188.6,252.7 188.3,254.6 190.2,254.9 193.2,253.4 195,251.3 195.7,251.4 
				196.3,248.1 198,245.1 201.4,240.8 205.7,237.1 206.1,234.7 203.8,234.9 			"/>
			<polygon class="st9" points="161.5,257.8 159.7,251.8 162.3,251.5 161.8,249.8 163.3,250.6 165.3,248.4 166.2,246.8 168.4,247.4 
				169.8,244 172,242.4 171.5,239.9 167.6,237.6 166.7,237.9 166.6,236.7 165.9,235.8 164.9,235.2 163.5,235.8 164.9,234.1 
				164.5,231.8 162.2,230 160.1,226.5 157.4,225.2 156.7,226.6 156.6,225 157.4,224.5 156.4,224.3 155.4,226.2 153.6,225.5 
				153.3,224.1 153.8,222 152.3,221.6 153.9,218.8 152.6,218.5 152.4,219.5 151.1,219.6 151.1,217 152.4,214.8 153.9,214.1 
				154.8,214.3 156.5,214.7 156.4,217.4 157,217 157.7,214.1 161.3,211.8 163.5,209.5 164.9,209.5 165.3,208.3 168.6,207.5 
				168.2,208.4 170.7,208 169.4,207.3 169.3,206.3 170.6,206.1 169.4,205.8 167.2,206.4 169.9,205.2 171.8,205.6 174.8,204.8 
				174.4,202.6 174.6,201.1 172.8,202.1 172,201.3 172.8,200.7 170.8,200.6 168.9,201.8 169.1,202.5 167.3,203.3 166.2,204.2 
				165.2,204.8 164.9,204.1 166,203 163.9,202.3 164.2,201.3 168.1,199.5 170.3,198.7 170.4,198 166.1,198.1 167.3,197.2 
				165.9,196.3 160.1,197.5 148.4,208.7 146.1,211.8 147.3,217.1 147.6,212.6 149.1,211.7 148.4,212.8 148.8,216 148.2,217.8 
				150.2,220.4 152.1,222.5 153.4,226 154.2,228.1 154.7,229.2 153.2,231.6 153.1,234.1 155,238.6 157.1,241.2 157,247.3 
				157.6,252.6 159,255.7 159.9,257.4 			"/>
			<path class="st9" d="M175.8,200.4l0.7-2l2.1,0.1l-0.2-1.8l-2.9-1l3.1-0.2l4.2,0.3c0,0,2-0.1,2.4,0s3.3,1.3,3.3,1.3l2.4,1.2
				l-3.1,0.4l0.7,0.6h-3.1l2,0.5l-1.8,0.6l-2.2-0.5l-2.2-0.4l-1.4,0.9l-2,0.8L175.8,200.4z"/>
			<polygon class="st9" points="190.8,205.8 191,206.5 190.9,207 191.5,207.1 191.9,207.2 191.8,207.7 191.3,207.6 191,207.8 
				191.4,207.9 191.1,208.2 190.8,208.3 191.6,208.5 191.5,208.7 191.1,208.6 190.6,208.7 190.9,208.8 191.7,209 192.7,209.2 
				193.3,209.4 192.9,209 193.2,208.9 193.3,208.6 193,208.4 192.6,208.5 192.7,207.9 192.6,207.6 192.5,207.6 192.2,206.9 
				191.7,206.8 192.3,206.4 192.3,206.2 191.7,206 192,205.8 191.5,205.5 191.2,205.9 			"/>
			<polygon class="st9" points="189.1,207.5 189.6,207 189.5,206.7 189.7,206.5 190,206.6 190.1,206.3 190.6,206.5 190.8,206.8 
				190.9,207.1 190.5,207.1 190.7,207.3 190.4,207.8 190.2,207.6 189.6,207.8 			"/>
			<polygon class="st9" points="185.8,201.1 186.7,201.5 186.5,201.7 186.5,201.8 186,201.8 187.1,202.1 187.5,202.3 188.7,202.4 
				189.4,202.5 189,202 188.8,201.7 187.8,201.7 187.3,201.3 187,201.6 186.7,201 			"/>
			
				<radialGradient id="SVGID_5_" cx="173.71" cy="210.83" r="33.61" gradientTransform="matrix(1 0 0 -1 0 438)" gradientUnits="userSpaceOnUse">
				<stop  offset="0" style="stop-color:#29ABE2;stop-opacity:0"/>
				<stop  offset="0.3" style="stop-color:#29AAE2;stop-opacity:1.000000e-02"/>
				<stop  offset="0.44" style="stop-color:#27A5E3;stop-opacity:4.000000e-02"/>
				<stop  offset="0.54" style="stop-color:#259CE5;stop-opacity:9.000000e-02"/>
				<stop  offset="0.63" style="stop-color:#2390E7;stop-opacity:0.16"/>
				<stop  offset="0.71" style="stop-color:#1F80E9;stop-opacity:0.25"/>
				<stop  offset="0.78" style="stop-color:#1A6DED;stop-opacity:0.37"/>
				<stop  offset="0.84" style="stop-color:#1455F1;stop-opacity:0.5"/>
				<stop  offset="0.9" style="stop-color:#0E3AF5;stop-opacity:0.66"/>
				<stop  offset="0.95" style="stop-color:#071DFA;stop-opacity:0.83"/>
				<stop  offset="1" style="stop-color:#0000FF"/>
			</radialGradient>
			<circle class="st10" cx="173.7" cy="227.2" r="33.6"/>
			
				<linearGradient id="SVGID_6_" gradientUnits="userSpaceOnUse" x1="40.2751" y1="270.6064" x2="219.734" y2="270.6064" gradientTransform="matrix(1 0 0 -1 0 438)">
				<stop  offset="0" style="stop-color:#00FF00"/>
				<stop  offset="0.18" style="stop-color:#00FF00"/>
				<stop  offset="0.18" style="stop-color:#00FF02"/>
				<stop  offset="0.22" style="stop-color:#00FF31"/>
				<stop  offset="0.26" style="stop-color:#00FF5C"/>
				<stop  offset="0.31" style="stop-color:#00FF83"/>
				<stop  offset="0.35" style="stop-color:#00FFA5"/>
				<stop  offset="0.41" style="stop-color:#00FFC1"/>
				<stop  offset="0.47" style="stop-color:#00FFD8"/>
				<stop  offset="0.54" style="stop-color:#00FFEA"/>
				<stop  offset="0.62" style="stop-color:#00FFF6"/>
				<stop  offset="0.73" style="stop-color:#00FFFD"/>
				<stop  offset="1" style="stop-color:#00FFFF"/>
			</linearGradient>
			<path class="st11" d="M211.4,153.1c6.8-16.7,2.1-39-15.4-50.9s-51.8-15.2-66.4,5.1c-68.9-4.7-113,82.2-75.8,134.9h34.3
				C77,228.9,76.5,219,76.5,219l22.5-0.4c-4.7-15.1-1.4-23,5.4-28c0.6,0,3,0.1,3,0.1l0,0c-10.6,15-4.7,30.6,6.3,51.4h25.7
				c-16.3-51.2,25.3-73.6,43.7-69.4s18.1,26,13.7,39.4c-9.2,27.6-58.3,13.6-41.5-12c1.4-1.8,3.2-3.2,5.4-4.1
				c-6-3.8-23.8,2.4-20.8,21.6s44.5,33,61.7,14.6S227.2,187.4,211.4,153.1z"/>
			<path class="st9" d="M41.3,232.5l-3.5-0.6c-6.4-6.4-14.7-60.2,22.7-91.9c-1.3,1.6-1,3.6-2.5,5C26.1,177.2,35.8,222.9,41.3,232.5z
				"/>
			
				<linearGradient id="SVGID_7_" gradientUnits="userSpaceOnUse" x1="122.3782" y1="299.5385" x2="146.6582" y2="302.5186" gradientTransform="matrix(1 0 0 -1 0 438)">
				<stop  offset="0" style="stop-color:#FFFFFF;stop-opacity:0"/>
				<stop  offset="1" style="stop-color:#000000;stop-opacity:0.9"/>
			</linearGradient>
			<path class="st12" d="M121.3,111.4c-8.1,23.1,28.7,51,28.7,51"/>
			<path class="st13" d="M113.5,184.6c-2.1,1.4-3.6,2.8-6,6.1l-3-0.1C109.9,186.2,112,185.1,113.5,184.6z"/>
			
				<linearGradient id="SVGID_8_" gradientUnits="userSpaceOnUse" x1="88.8793" y1="249.8667" x2="77.2102" y2="252.3465" gradientTransform="matrix(1 0 0 -1 0 438)">
				<stop  offset="0" style="stop-color:#FFFFFF;stop-opacity:0"/>
				<stop  offset="1" style="stop-color:#000000;stop-opacity:0.9"/>
			</linearGradient>
			<path class="st14" d="M92.2,172.5c-12.7,4.8-17.3,15.8-17.3,29.1l1.9-2C76.7,188.7,82.2,177.7,92.2,172.5z"/>
			
				<linearGradient id="SVGID_9_" gradientUnits="userSpaceOnUse" x1="142.5722" y1="308.8975" x2="126.6622" y2="295.5474" gradientTransform="matrix(1 0 0 -1 0 438)">
				<stop  offset="0" style="stop-color:#FFFFFF;stop-opacity:0"/>
				<stop  offset="1" style="stop-color:#000000;stop-opacity:0.9"/>
			</linearGradient>
			<path class="st15" d="M121.3,111.4c-4.3,9.6,6.5,31.1,28.7,51c-29.1-15.8-40.1-47.1-28.1-55.2c0.8,0,1.7,0,2.3,0
				C122.9,108.4,121.9,109.8,121.3,111.4"/>
			<path class="st16" d="M150,162.3c0,0-36.8-27.8-28.7-51s41.5-24,51.1-18L150,162.3z"/>
			
				<linearGradient id="SVGID_10_" gradientUnits="userSpaceOnUse" x1="186.3398" y1="293.1858" x2="141.5598" y2="337.9759" gradientTransform="matrix(1 0 0 -1 0 438)">
				<stop  offset="0" style="stop-color:#FFFFFF;stop-opacity:0"/>
				<stop  offset="1" style="stop-color:#000000;stop-opacity:0.9"/>
			</linearGradient>
			<path class="st17" d="M156.4,157c0,0-29.5-22.3-23-40.8s28.5-17.6,40.9-14.4s25.8,9.2,27.2,18.7C204.7,142,156.4,157,156.4,157z"
				/>
			
				<linearGradient id="SVGID_11_" gradientUnits="userSpaceOnUse" x1="150.82" y1="334.61" x2="168.96" y2="310.9699" gradientTransform="matrix(1 0 0 -1 0 438)">
				<stop  offset="0" style="stop-color:#FFFFFF"/>
				<stop  offset="9.000000e-02" style="stop-color:#FFFFFF;stop-opacity:0.97"/>
				<stop  offset="0.22" style="stop-color:#FFFFFF;stop-opacity:0.89"/>
				<stop  offset="0.37" style="stop-color:#FFFFFF;stop-opacity:0.77"/>
				<stop  offset="0.55" style="stop-color:#FFFFFF;stop-opacity:0.59"/>
				<stop  offset="0.74" style="stop-color:#FFFFFF;stop-opacity:0.36"/>
				<stop  offset="0.94" style="stop-color:#FFFFFF;stop-opacity:8.000000e-02"/>
				<stop  offset="1" style="stop-color:#FFFFFF;stop-opacity:0"/>
			</linearGradient>
			<path class="st18" d="M133.5,116.1c6.5-18.5,28.5-17.6,40.9-14.4c8.6,2.2,17.6,5.7,22.9,10.9c-4.8-6.2-15-10.3-24.6-12.8
				c-12.4-3.2-34.4-4.1-40.9,14.4c-3.6,10.3,3.8,21.7,11.2,29.8C136.3,136.5,130,126,133.5,116.1z"/>
			
				<ellipse transform="matrix(0.585 -0.8111 0.8111 0.585 -20.5338 208.3733)" class="st19" cx="193.3" cy="124.2" rx="1.6" ry="2.1"/>
			
				<linearGradient id="SVGID_12_" gradientUnits="userSpaceOnUse" x1="-2307.3657" y1="248.8991" x2="-2286.2053" y2="267.7518" gradientTransform="matrix(0.2704 -0.9627 -0.9627 -0.2704 961.2004 -1934.6545)">
				<stop  offset="0" style="stop-color:#FFFFFF;stop-opacity:0"/>
				<stop  offset="1" style="stop-color:#000000;stop-opacity:0.9"/>
			</linearGradient>
			<path class="st20" d="M104.4,190.6c-11.7-0.1-22.1,2.3-29.5,10.9c0,5.9,0.5,11.7,1.6,17.5l22.5-0.4
				C97.2,212.7,93.3,199,104.4,190.6z"/>
			
				<linearGradient id="SVGID_13_" gradientUnits="userSpaceOnUse" x1="71.5877" y1="193.3448" x2="91.6392" y2="336.0455" gradientTransform="matrix(1 0 0 -1 0 438)">
				<stop  offset="0" style="stop-color:#FFFFFF"/>
				<stop  offset="5.000000e-02" style="stop-color:#FFFFFF;stop-opacity:0.81"/>
				<stop  offset="0.1" style="stop-color:#FFFFFF;stop-opacity:0.64"/>
				<stop  offset="0.15" style="stop-color:#FFFFFF;stop-opacity:0.49"/>
				<stop  offset="0.21" style="stop-color:#FFFFFF;stop-opacity:0.35"/>
				<stop  offset="0.28" style="stop-color:#FFFFFF;stop-opacity:0.24"/>
				<stop  offset="0.35" style="stop-color:#FFFFFF;stop-opacity:0.15"/>
				<stop  offset="0.44" style="stop-color:#FFFFFF;stop-opacity:8.000000e-02"/>
				<stop  offset="0.54" style="stop-color:#FFFFFF;stop-opacity:4.000000e-02"/>
				<stop  offset="0.67" style="stop-color:#FFFFFF;stop-opacity:1.000000e-02"/>
				<stop  offset="1" style="stop-color:#FFFFFF;stop-opacity:0"/>
			</linearGradient>
			<path class="st21" d="M129.6,107.3c-68.9-4.7-113,82.2-75.8,134.9h34.3C77,228.9,76.5,219,76.5,219c-3.8-22.9-1.5-39.8,15.7-46.6
				"/>
		</g>
	</g>
</g>
</svg>
