<svg width="104" height="34" viewBox="0 0 104 34" fill="none" xmlns="http://www.w3.org/2000/svg">
<path d="M10.038 10.58C13.998 10.58 15.978 13.88 15.978 20.48C15.978 23.96 15.783 27.65 15.393 31.55L10.128 31.055C10.458 27.635 10.623 24.185 10.623 20.705C10.623 17.195 10.128 15.44 9.13805 15.44C8.65805 15.44 8.04305 16.655 7.29305 19.085C6.54305 21.485 6.07805 23.84 5.89805 26.15C5.95805 27.38 6.07805 29.6 6.25805 32.81L0.993045 32.315C0.663045 28.085 0.498045 24.365 0.498045 21.155C0.498045 17.945 0.588045 15.065 0.768045 12.515L4.09805 12.875C4.15805 13.115 4.38305 14.09 4.77305 15.8C6.51305 12.32 8.26805 10.58 10.038 10.58ZM20.2453 32.18C20.1253 27.44 20.0653 22.955 20.0653 18.725C20.0653 14.495 20.3053 8.99 20.7853 2.21C25.9153 1.43 30.9253 1.04 35.8153 1.04V6.575C32.4253 6.575 29.2753 6.68 26.3653 6.89C26.2453 10.25 26.1703 12.83 26.1403 14.63C28.4203 14.3 31.1203 14.105 34.2403 14.045L35.0953 18.995C33.0853 19.025 30.0703 19.25 26.0503 19.67C26.0503 23.27 26.0653 25.865 26.0953 27.455C28.7053 27.245 31.8253 26.795 35.4553 26.105L36.2203 31.055C33.6703 32.225 30.6553 32.81 27.1753 32.81L20.2453 32.18ZM47.0323 0.454998C50.5423 0.454998 53.2423 1.835 55.1323 4.595C57.0523 7.355 58.0123 10.7 58.0123 14.63C58.0123 17.66 57.5323 20.525 56.5723 23.225C55.6123 25.895 54.1123 28.145 52.0723 29.975C50.0323 31.775 47.6473 32.675 44.9173 32.675C44.3773 32.675 42.3373 32.465 38.7973 32.045C39.2173 25.595 39.4273 20.255 39.4273 16.025C39.4273 11.795 39.2923 7.115 39.0223 1.985C41.9323 0.964998 44.6023 0.454998 47.0323 0.454998ZM46.0423 27.185C47.4223 27.185 48.7873 25.97 50.1373 23.54C51.5173 21.08 52.2073 18.44 52.2073 15.62C52.2073 12.77 51.7123 10.43 50.7223 8.6C49.7623 6.77 48.6073 5.855 47.2573 5.855C46.5373 5.855 45.8623 5.975 45.2323 6.215C45.3523 10.655 45.4123 14.39 45.4123 17.42C45.4123 20.42 45.3223 23.555 45.1423 26.825C45.3523 27.065 45.6523 27.185 46.0423 27.185ZM66.8302 21.425C66.8302 22.985 67.1752 24.38 67.8652 25.61C68.5552 26.84 69.3652 27.455 70.2952 27.455C71.2552 27.455 72.0202 27.035 72.5902 26.195C73.1602 25.355 73.5652 24.245 73.8052 22.865C74.2252 20.435 74.4352 17.63 74.4352 14.45C74.4352 11.24 74.2402 6.545 73.8502 0.365L79.9702 0.995C80.3902 7.175 80.6002 11.375 80.6002 13.595C80.6002 15.815 80.5702 17.375 80.5102 18.275C80.4502 19.145 80.3302 20.165 80.1502 21.335C79.9702 22.505 79.7302 23.6 79.4302 24.62C79.1302 25.64 78.7252 26.66 78.2152 27.68C77.7052 28.7 77.1052 29.57 76.4152 30.29C74.8852 31.94 72.8002 32.765 70.1602 32.765C67.5502 32.765 65.3152 31.595 63.4552 29.255C61.5952 26.915 60.6652 24.305 60.6652 21.425C60.6652 15.095 61.0102 8.345 61.7002 1.175L67.8202 1.76C67.1602 8.33 66.8302 14.885 66.8302 21.425ZM93.923 6.125C92.603 6.125 91.448 7.76 90.458 11.03C89.468 14.27 88.973 17.15 88.973 19.67C88.973 24.95 90.353 27.59 93.113 27.59C93.893 27.59 94.568 27.26 95.138 26.6C95.738 25.91 96.158 25.205 96.398 24.485C96.668 23.765 96.983 22.775 97.343 21.515L103.058 21.965C102.278 25.655 101.108 28.475 99.548 30.425C98.018 32.375 95.873 33.35 93.113 33.35C89.873 33.35 87.368 32.135 85.598 29.705C83.858 27.245 82.988 24.125 82.988 20.345C82.988 15.935 83.858 11.645 85.598 7.475C86.438 5.405 87.608 3.71 89.108 2.39C90.638 1.04 92.378 0.365 94.328 0.365C96.728 0.365 98.468 1.16 99.548 2.75C100.088 3.53 100.523 4.325 100.853 5.135C101.213 5.945 101.468 6.98 101.618 8.24C101.888 10.25 102.053 12.41 102.113 14.72L96.308 14.18C96.308 10.31 95.948 7.88 95.228 6.89C94.898 6.38 94.463 6.125 93.923 6.125Z" fill="#466EB6"/>
</svg>
