<svg width="421" height="225" viewBox="0 0 421 225" fill="none" xmlns="http://www.w3.org/2000/svg">
<path d="M28.6231 223.927C28.6231 223.927 -20.9445 170.69 20.2405 113.054C56.7826 61.9145 99.3871 65.4104 130.645 86.1627C143.959 95.0015 182.342 87.252 215.011 35.2162C259.564 -35.7466 413.996 7.2927 385.839 116.47C372.212 169.305 427.309 171.225 399.235 224.039L28.6231 223.927" fill="#EBF3FA"/>
<path d="M68.6733 151.81L100.958 186.9L65.8795 219.196L33.5942 184.106L68.6733 151.81Z" fill="#DFEBFD"/>
<path d="M68.6733 151.81L75.1754 158.877L40.0966 191.173L33.5942 184.106L68.6733 151.81Z" fill="#BED7FB"/>
<path d="M171.122 13.5775L195.175 17.0095L179.213 6.12614L178.402 9.61475L172.551 10.6747L171.122 13.5775" fill="#9EC3F6"/>
<path d="M195.175 17.0086L175.159 6.68409L155.54 5.69744L195.175 17.0086Z" fill="#CDE0FB"/>
<path d="M179.212 6.12546L195.175 17.0099L182.819 1.81617e-05L179.212 6.12546Z" fill="#CDE0FB"/>
<path d="M305.628 61.0453L299.579 65.3887L293.497 61.0925C294.843 59.1953 297.071 57.9408 299.579 57.9408C302.07 57.9408 304.282 59.164 305.628 61.0453Z" fill="white"/>
<path d="M299.576 47.3579C293.495 47.3579 288.118 50.384 284.858 55.0095L288.699 57.7061C291.112 54.2881 295.093 52.0618 299.576 52.0618C304.028 52.0618 307.978 54.2568 310.393 57.6278L314.218 54.884C310.941 50.3212 305.595 47.3579 299.576 47.3579" fill="white"/>
<path d="M299.578 27.2405C286.711 27.2405 275.331 33.638 268.435 43.4216L272.274 46.1184C278.324 37.5573 288.309 31.9453 299.578 31.9453C310.755 31.9453 320.677 37.4634 326.743 45.9147L330.551 43.1707C323.638 33.5288 312.338 27.2405 299.578 27.2405Z" fill="white"/>
<path d="M299.58 38.2474C290.425 38.2474 282.305 42.7783 277.368 49.7243L281.209 52.4211C285.299 46.6983 292.009 42.9508 299.58 42.9508C307.086 42.9508 313.748 46.6355 317.855 52.2801L321.663 49.5518C316.711 42.6999 308.653 38.2474 299.58 38.2474" fill="white"/>
<path d="M142.453 120.69C138.725 124.432 134.616 127.683 130.179 130.422C119.427 122.561 107.938 115.832 95.9695 110.386C97.6149 107.369 99.2366 104.184 100.82 100.858C111.776 102.31 122.307 103.182 131.923 103.407C134.434 103.48 136.87 103.48 139.234 103.462C145.363 103.389 150.819 103.025 155.493 102.37C152.219 109.156 147.836 115.305 142.453 120.69ZM74.2871 137.307C79.2792 134.689 84.295 128.678 88.1578 123.139C90.15 120.283 92.1411 117.121 94.1066 113.708C105.439 118.841 116.336 125.149 126.573 132.497C109.7 141.516 90.6984 142.538 74.2871 137.307ZM32.1065 98.1367C37.2995 98.3456 46.9268 99.1329 59.2243 101.933C60.1041 102.133 60.9835 102.343 61.8623 102.557C61.2294 106.25 60.7623 109.779 60.474 113.095C59.9277 119.379 59.8889 126.625 61.6412 131.799C56.308 128.796 51.4176 125.08 47.0286 120.69C40.4862 114.146 35.4517 106.483 32.1065 98.1367V98.1367ZM63.5685 93.9661C63.2007 95.6079 62.8615 97.2246 62.5503 98.8164C61.7228 98.6169 60.8949 98.4189 60.0664 98.2302C46.0687 95.0435 35.565 94.3949 30.6958 94.2858C29.49 90.6516 28.603 86.9347 28.0417 83.1415C37.578 86.81 48.3122 90.3304 63.5685 93.9661ZM20.3853 76.227C7.49087 69.933 1.59837 63.8573 4.23548 59.5449C6.36324 56.0526 14.1106 53.6875 25.9684 52.8144C23.5778 60.8842 22.7465 69.2751 23.2406 77.5741C22.2584 77.1375 21.3128 76.6823 20.3853 76.227ZM34.4434 42.6087L34.445 42.604C42.7804 53.0264 55.066 63.6812 69.4208 72.9202C67.3853 79.1175 65.6487 85.2073 64.2473 91.0445C52.3455 88.1633 38.5121 84.0894 27.5871 79.4668C26.681 70.4039 27.6675 61.2303 30.3877 52.5774C31.4436 49.2223 32.8445 45.7643 34.4434 42.6087ZM28.8249 13.889C31.0188 10.4045 35.9213 8.60687 42.805 8.60687C46.0974 8.60687 49.8454 9.01848 53.9644 9.8557C55.5283 10.1722 57.1257 10.5448 58.7503 10.9736H58.7545C48.9265 16.6595 40.27 24.8883 33.825 35.2047L33.8217 35.2094C27.7389 26.1745 25.9102 18.5148 28.8249 13.889V13.889ZM94.7499 5.4404C99.4246 5.4404 104.022 5.91123 108.517 6.84512C103.215 9.15411 97.8032 15.5775 93.6949 21.4692C89.4902 27.4982 85.2914 34.8773 81.3266 43.1372C70.6243 37.3188 60.5149 28.4024 55.6829 17.8958C66.9653 9.86973 80.5334 5.4404 94.7499 5.4404ZM142.453 25.2157C151.204 33.9699 157.01 44.4843 159.946 55.4804C144.392 56.6185 130.139 56.26 117.399 54.4156C119.42 46.1525 120.782 38.3789 121.378 31.5128C122.037 23.931 121.958 14.9492 118.884 9.89467C127.787 13.3168 135.74 18.4805 142.453 25.2157V25.2157ZM112.696 57.5057C110.946 64.0912 108.791 70.9496 106.28 77.875C105.313 80.5441 104.311 83.1711 103.28 85.7467C93.8485 82.2825 83.8381 77.3277 73.9966 71.2084C74.505 69.721 75.0299 68.229 75.5722 66.7338C77.9047 60.2995 80.4365 54.1084 83.0912 48.3087C92.3801 52.8128 102.442 55.719 112.696 57.5057V57.5057ZM113.534 9.9508C115.603 10.7007 116.654 13.6723 117.17 16.0328C117.987 19.7621 118.135 25.0021 117.598 31.1838C117.009 37.9502 115.655 45.6364 113.639 53.8185C103.727 52.1128 93.8215 49.3003 84.7015 44.8725C88.5884 36.7637 92.6984 29.5328 96.8076 23.641C100.357 18.5522 103.828 14.6249 106.845 12.2863C108.419 11.0655 110.538 9.75903 112.393 9.75903C112.788 9.75903 113.171 9.81827 113.534 9.9508ZM52.5896 20.2345C58.0125 31.3491 68.4637 40.5055 79.7103 46.5797C76.9858 52.5182 74.3906 58.8574 72.0043 65.4398C71.5595 66.6668 71.1268 67.8906 70.704 69.113C56.4511 59.8334 44.384 49.1833 36.4682 38.8779L36.4649 38.8732C40.6427 31.7451 46.0861 25.4496 52.5896 20.2345V20.2345ZM76.418 93.765C73.5477 93.1741 70.7191 92.5567 67.9392 91.916C69.2478 86.4686 70.8556 80.7904 72.7324 75.0031C82.4887 81.0025 92.4105 85.8824 101.805 89.3466C100.626 92.1607 99.4158 94.9047 98.1794 97.5614C91.0438 96.5371 83.743 95.268 76.418 93.765ZM92.4867 108.844C83.9255 105.154 75.1233 102.105 66.2332 99.7502C66.5466 98.1367 66.8901 96.495 67.2634 94.8268C69.7355 95.3896 72.2426 95.9337 74.781 96.4576C82.21 97.9777 89.6207 99.2686 96.8749 100.312C95.4382 103.286 93.9718 106.136 92.4867 108.844ZM68.3189 134.658C66.2494 133.907 65.1989 130.936 64.6821 128.575C63.8653 124.845 63.7175 119.607 64.2551 113.424C64.5267 110.297 64.9637 106.974 65.5518 103.497C74.0339 105.759 82.4338 108.667 90.613 112.171C88.7706 115.349 86.9078 118.296 85.045 120.967C81.496 126.057 78.0252 129.983 75.0078 132.322C73.0986 133.801 70.3885 135.409 68.3189 134.658V134.658ZM156.966 99.1314C152.111 100.005 146.055 100.515 138.98 100.587C128.002 100.721 115.394 99.8542 102.108 98.1024C103.226 95.6687 104.322 93.1664 105.391 90.6079C109.514 91.9877 113.515 93.0806 117.331 93.8555C121.702 94.7426 125.693 95.1807 129.253 95.1807C137.601 95.1807 143.58 92.7703 146.533 88.0806C147.019 87.3089 147.417 86.4888 147.722 85.6236H143.467C143.396 85.753 143.321 85.8808 143.243 86.0055C141.048 89.4901 136.147 91.2892 129.264 91.2877C125.971 91.2877 122.222 90.8761 118.104 90.0404C114.513 89.3108 110.748 88.288 106.866 86.9987C107.89 84.4355 108.887 81.8225 109.848 79.169C112.442 72.016 114.662 64.9237 116.459 58.1137C131.014 60.2605 146.223 60.3245 160.831 59.2238C161.754 63.7061 162.222 68.2929 162.222 72.953C162.222 82.0314 160.457 90.8355 156.966 99.1314V99.1314ZM174.079 87.3978L168.532 87.2699C170.315 89.5805 170.716 91.7102 169.605 93.5109C168.496 95.3475 165.841 96.8582 161.877 98.0041C164.877 90.017 166.388 81.5949 166.388 72.953C166.388 54.2643 159.119 35.9717 145.4 22.2877C132.121 9.00443 114.171 1.29326 94.7499 1.29326C83.8445 1.29326 73.3069 3.71138 63.7237 8.33403L63.7142 8.33872C60.6334 7.3986 57.6324 6.62685 54.7368 6.04064C40.1202 3.07372 29.7475 5.1239 25.5342 11.8139C21.5246 18.178 23.7075 27.757 31.6637 38.9277L31.6608 38.934C29.8831 42.2189 28.1719 46.1166 26.9141 49.8491C11.9648 50.7408 3.96257 53.3726 1.05287 58.1386C-2.32986 63.6874 2.2896 71.1335 17.0753 78.3739C19.1121 79.3748 21.2945 80.357 23.5859 81.3392C25.3571 96.9081 32.4468 111.997 44.0823 123.637C50.6657 130.204 58.3222 135.372 66.8518 138.992C92.9813 150.018 124.13 144.854 145.4 123.637C151.801 117.234 156.876 109.775 160.457 101.515C167.75 100.005 172.552 97.6409 174.461 94.5118C175.789 92.3463 175.625 89.9453 174.079 87.3978Z" fill="#ADCBF9"/>
<path d="M140.923 98.582L131.016 216.413C131.016 216.413 129.977 223.556 135.288 223.569C144.022 223.589 178.754 223.569 178.754 223.569C178.754 223.569 172.183 222.082 172.262 218.736C172.356 214.793 183.841 97.4668 183.841 97.4668L140.923 98.582" fill="#D86713"/>
<path d="M181.573 221.431C179.856 221.435 146.682 221.54 138.177 221.431C134.47 221.384 133.821 218.134 133.79 216.03C133.774 215.022 133.902 214.277 133.902 214.277L134.16 211.214L134.817 203.408L135.397 196.512L136.142 187.65L136.769 180.17L143.809 96.4427L186.727 95.329C186.727 95.329 181.89 144.429 178.469 180.17C178.087 184.153 177.723 187.97 177.387 191.535C177.278 192.673 177.174 193.785 177.072 194.868C176.755 198.251 176.464 201.355 176.212 204.098C176.079 205.542 175.956 206.885 175.846 208.115C175.408 212.936 175.153 216.014 175.15 216.599C175.148 216.94 175.176 217.257 175.233 217.552C175.937 221.308 180.928 221.431 181.573 221.431" fill="#F99746"/>
<path d="M36.6929 34.4617L60.824 131.422L64.128 144.702L75.3669 189.864H284.172L242.746 34.4617H36.6929Z" fill="#F99746"/>
<path d="M36.6924 34.462L33.3481 35.5772L70.9207 193.237L75.3672 189.864L36.6924 34.462Z" fill="#EE9849"/>
<path d="M70.9209 193.237H278.44L284.169 189.864H75.3673L70.9209 193.237Z" fill="#D86713"/>
<path d="M143.795 223.613H188.726V221.478H143.795V223.613Z" fill="#F1A34F"/>
<path d="M274.055 161.228L240.176 36.5166H36.3589V34.4621H242.746L276.513 160.952L274.055 161.228" fill="#F1A34F"/>
<path d="M177.304 193.236L177.072 194.868L134.817 203.408L135.397 196.512L135.673 193.236H177.304Z" fill="#D86713"/>
<path d="M133.79 221.478H181.573V208.115H133.79V221.478Z" fill="#EC8432"/>
<path d="M153.265 221.481C151.636 221.481 150.048 221.479 148.538 221.478H158.707C156.875 221.479 155.045 221.481 153.265 221.481Z" fill="#E78B37"/>
<path d="M75.3663 189.864L64.1274 144.702L167.09 158.404L75.3669 189.864" fill="#EC8432"/>
<path d="M36.6924 34.4614H242.744L276.178 159.356H66.7132L36.6924 34.4614Z" fill="#699DEE"/>
<path d="M185.303 175.143C184.709 172.082 181.745 169.598 178.682 169.598C175.62 169.598 173.621 172.082 174.216 175.143C174.81 178.207 177.776 180.69 180.837 180.69C183.899 180.69 185.9 178.207 185.303 175.143Z" fill="#D86713"/>
<path d="M266.46 153.944H73.5317L51.6823 66.8783L50.0083 60.202L48.5788 54.507L47.4351 49.9475L45.2275 41.1526H235.375L235.507 41.6361L237.797 49.9475L239.054 54.507L240.624 60.202L242.464 66.8783L266.46 153.944Z" fill="#E9F3FE"/>
<path d="M266.46 154.242H73.5317L51.6823 67.1756L50.0083 60.4993L48.5788 54.8043L47.4351 50.2448L45.2275 41.4499H235.375L235.507 41.9334L237.797 50.2448L239.054 54.8043L240.624 60.4993L242.464 67.1756L266.46 154.242Z" fill="#E9F3FE"/>
<path d="M237.797 49.9471H47.4356L45.228 41.1521H235.303L235.51 41.6349L237.797 49.9471Z" fill="#AFCDFB"/>
<path d="M50.5168 45.5491C50.2871 44.6278 50.8479 43.88 51.7695 43.88C52.6912 43.88 53.6246 44.6278 53.8545 45.5491C54.0842 46.4718 53.5234 47.2196 52.6017 47.2196C51.6801 47.2196 50.7467 46.4718 50.5168 45.5491Z" fill="#E9F3FE"/>
<path d="M56.0618 45.5491C55.8319 44.6278 56.3927 43.88 57.3144 43.88C58.236 43.88 59.1694 44.6278 59.3993 45.5491C59.629 46.4718 59.0682 47.2196 58.1466 47.2196C57.2249 47.2196 56.2915 46.4718 56.0618 45.5491Z" fill="#E9F3FE"/>
<path d="M62.0324 45.5491C61.8027 44.6278 62.3636 43.88 63.2853 43.88C64.207 43.88 65.1404 44.6278 65.3701 45.5491C65.6 46.4718 65.039 47.2196 64.1174 47.2196C63.1957 47.2196 62.2623 46.4718 62.0324 45.5491Z" fill="#E9F3FE"/>
<path d="M133.63 154.242H114.554C114.371 152.751 114.21 151.174 114.065 149.528C113.809 146.58 113.613 143.406 113.468 140.106C113.433 139.344 113.403 138.577 113.375 137.802C113.339 136.818 113.307 135.822 113.279 134.821C113.232 133.121 113.196 131.402 113.169 129.673L113.167 129.667C113.134 127.462 113.117 125.242 113.112 123.03V123.029C113.111 122.476 113.111 121.924 113.111 121.375V121.373C113.111 120.853 113.112 120.339 113.114 119.823C113.131 115.063 113.202 110.393 113.304 106.052C113.523 96.4441 113.879 88.4396 114.068 84.5916V84.5902C114.145 83.0107 114.195 82.1321 114.195 82.1321L114.2 82.135C114.243 82.1409 114.532 82.1938 114.988 82.304C115.322 82.3863 115.746 82.4965 116.228 82.6449H116.229C116.665 82.7756 117.145 82.9387 117.651 83.1312L117.656 83.1327C118.515 83.4633 119.441 83.8849 120.312 84.4153C120.325 84.4227 120.338 84.4286 120.352 84.4359C121.777 85.3204 123.063 86.4929 123.649 88.0415C124.153 89.3564 125.333 96.4251 126.757 105.814C126.797 106.081 126.837 106.35 126.878 106.623C127.631 111.608 128.445 117.202 129.263 122.914C130.13 128.966 130.995 135.149 131.792 140.877C132.471 145.791 133.101 150.369 133.63 154.242" fill="#2B478B"/>
<path d="M128.288 154.242H106.083C105.657 152.41 105.258 150.642 104.904 148.983C103.928 144.414 103.287 140.67 103.322 138.657C103.338 137.714 103.694 136.977 104.306 136.409C104.725 136.02 105.263 135.712 105.897 135.471C107.77 134.758 110.461 134.642 113.279 134.821C114.236 134.881 115.207 134.974 116.165 135.09C121.442 135.731 126.342 137.038 126.342 137.038C126.342 137.038 126.669 138.364 127.056 140.679C127.346 142.417 127.671 144.715 127.912 147.429C128.051 149.005 128.165 150.723 128.228 152.554C128.247 153.105 128.266 153.667 128.288 154.242" fill="#233862"/>
<path d="M118.033 138.684L117.812 140.288L116.736 148.081L116.553 149.411L115.887 154.242H92.7461C92.5666 151.049 92.4003 147.937 92.3688 145.225C92.3655 144.925 92.3638 144.63 92.3638 144.34C92.3638 140.257 92.7229 137.229 93.8931 136.464C95.2197 135.598 99.6197 135.835 104.306 136.409C104.773 136.465 105.243 136.527 105.714 136.59C108.445 136.957 111.178 137.411 113.375 137.802C114.516 138.005 115.511 138.192 116.286 138.34C117.38 138.55 118.033 138.684 118.033 138.684Z" fill="#C65447"/>
<path d="M92.3643 86.1505C92.3643 86.1505 105.077 77.9286 114.196 82.1336C115.649 82.8036 117.306 84.6739 118.493 85.9816C121.789 89.615 128.23 147.326 128.23 147.326C128.23 147.326 109.947 153.52 92.3643 145.225V86.1505" fill="white"/>
<path d="M114.919 81.9249C114.919 81.9249 127.789 87.201 129.532 91.2547C131.276 95.3084 136.941 120.204 136.941 123.123C136.941 126.042 127.076 123.775 125.489 119.068C124.17 115.158 119.722 103.147 117.376 95.5494L114.919 81.9249" fill="#2B478B"/>
<path d="M112.246 85.9449C109.436 86.4958 105.309 85.9081 102.287 83.9173C103.651 80.657 104.211 78.0829 104.41 76.4182C104.421 76.33 104.43 76.2433 104.439 76.1611C104.529 75.2971 104.516 74.7124 104.474 74.4435H111.737C111.737 74.4435 113.723 75.3515 113.723 75.9789C113.723 76.3153 113.726 76.6356 113.732 76.9427C113.746 77.7787 113.78 78.5075 113.823 79.1348C113.961 81.1727 114.195 82.1336 114.195 82.1336C114.195 82.1336 115.083 85.388 112.246 85.9449" fill="#FFB27D"/>
<path d="M113.824 79.1348C108.321 80.1971 105.126 77.1896 104.41 76.4182C104.308 76.308 104.256 76.2419 104.256 76.2419C104.314 76.2125 104.375 76.1875 104.439 76.1611C106.487 75.3309 111.136 75.9906 113.732 76.9427C113.747 77.7787 113.78 78.5075 113.824 79.1348" fill="#E2915A"/>
<path d="M102.612 73.249C103.596 78.5427 110.425 78.3693 113.376 78.0358C114.206 77.9447 114.729 77.8375 114.729 77.8375C115.665 77.5877 116.188 76.1126 116.43 74.179C116.912 70.3545 116.304 64.7405 115.658 63.3036C114.686 61.1438 112.855 58.8062 105.977 60.4929C99.0991 62.1796 101.35 66.4654 102.612 73.249Z" fill="#FFB27D"/>
<path d="M115.914 60.3504C114.974 59.0486 112.981 57.4589 111.171 56.4789C107.282 54.3749 102.305 56.545 102.285 56.5538C96.6674 59.0251 95.2005 63.3241 98.1786 70.021C101.328 77.1014 104.326 76.305 104.326 76.305C104.326 76.305 103.69 75.9098 103.747 73.7015C103.751 73.5766 103.756 73.4723 103.761 73.3812C103.79 72.9287 103.631 72.4761 103.293 72.1735C102.595 71.5505 102.255 69.6669 102.84 69.1424C103.544 68.5091 104.535 69.279 104.851 69.8697C105.128 70.2869 105.623 70.4339 106.084 70.1415C107.832 69.0366 106.697 66.8254 108.367 65.4722C110.038 64.119 113.428 65.2547 115.934 64.1763C119.214 62.9539 116.622 61.3318 115.914 60.3504" fill="#233862"/>
<path d="M116.816 154.242H89.1357C89.3334 148.5 89.5878 141.644 89.8554 134.704C89.9236 132.904 89.9951 131.097 90.0649 129.304C90.0965 128.544 90.1247 127.789 90.1546 127.034C90.7664 111.62 91.3731 97.7004 91.5011 96.951C91.792 95.2541 92.0663 93.8098 92.3638 92.555C93.2332 88.9039 94.3138 86.9013 96.6709 85.1793C96.9003 85.0045 98.7854 84.0554 100.446 83.2267C101.802 82.5538 103.009 81.9646 103.046 81.9484V81.947H103.048C103.322 82.0792 103.624 82.4627 103.943 83.0298C104.263 83.5955 104.598 84.3507 104.942 85.2322C106.207 88.4837 107.574 93.4586 108.523 97.1744L108.526 97.1861L108.528 97.1935V97.1949C109.14 99.5942 109.579 101.462 109.703 101.998C109.916 102.903 110.195 104.654 110.526 107.026V107.032C110.973 110.267 111.507 114.654 112.072 119.635V119.636C112.13 120.149 112.188 120.666 112.247 121.188C112.313 121.784 112.381 122.388 112.449 122.998V123.001C112.471 123.196 112.493 123.393 112.513 123.589V123.59C112.73 125.563 112.95 127.597 113.168 129.667L113.169 129.673C113.355 131.379 115.942 132.614 116.121 134.352C116.135 134.479 116.148 134.734 116.165 135.09C116.198 135.826 116.238 136.991 116.286 138.34C116.306 138.939 116.328 139.577 116.351 140.227C116.452 143.117 116.577 146.283 116.718 147.806C116.725 147.878 116.731 147.97 116.736 148.081C116.753 148.385 116.766 148.832 116.778 149.395C116.801 150.588 116.813 152.297 116.816 154.242" fill="#2B478B"/>
<path d="M97.934 103.165C97.9258 103.2 97.4932 118.75 109.188 120.64C120.882 122.529 113.112 123.029 113.112 123.029C113.112 123.029 91.1088 122.093 90.7456 121.513C90.3824 120.931 97.934 103.165 97.934 103.165" fill="#233862"/>
<path d="M107.815 127.316C107.815 127.316 107.595 127.472 107.174 127.744L107.152 127.757C105.368 128.896 100.073 132.002 92.3634 134.084C91.5544 134.303 90.7175 134.511 89.856 134.702C89.9243 132.904 89.9956 131.097 90.0652 129.304C89.0469 129.225 88.0722 129.095 87.167 128.903C87.1977 128.666 87.2296 128.43 87.26 128.192C88.2407 127.789 89.2154 127.401 90.1554 127.034C90.9209 126.734 91.6618 126.449 92.3634 126.186C95.5304 124.983 97.878 124.168 97.878 124.168L107.253 127.137L107.815 127.316" fill="#233862"/>
<path d="M110.296 127.056C110.296 127.056 109.092 127.357 107.174 127.744L107.154 127.748C103.618 128.458 97.6732 129.455 92.3634 129.401C91.5804 129.392 90.8105 129.363 90.0652 129.304C89.0469 129.225 88.0722 129.096 87.167 128.903C85.2263 128.493 83.6007 127.8 82.5373 126.715C74.6389 118.668 86.8476 89.784 89.4144 86.9733C92.4115 83.6925 97.8809 82.542 100.901 82.1468C101.028 82.1306 101.148 82.1145 101.266 82.0998C102.328 81.9734 103.009 81.947 103.047 81.9455H103.048C103.048 81.9455 102.811 82.7081 102.415 83.9995C102.261 84.4991 102.082 85.0794 101.886 85.7259C100.031 91.8028 96.4514 103.746 94.8739 110.483C94.2956 112.947 93.9862 114.714 94.1272 115.242C94.743 117.541 101.125 118.725 105.168 119.249C106.854 119.466 108.134 119.569 108.42 119.591C108.441 119.591 108.46 119.592 108.48 119.595L108.714 120.555L109.273 122.856L109.824 125.115L110.296 127.056" fill="#2B478B"/>
<path d="M132.326 140.901L105.199 139.758L110.702 105.941L137.829 107.085L132.326 140.901Z" fill="#F99746"/>
<path d="M108.48 119.595C108.48 119.595 113.761 119.228 114.026 120.459C114.643 123.329 109.486 125.685 107.815 125.524C106.145 125.364 107.265 119.404 108.48 119.595Z" fill="#FFB27D"/>
<path d="M136.346 113.952C136.346 113.952 131.293 112.371 130.751 113.508C129.486 116.157 133.959 119.644 135.622 119.873C137.284 120.102 137.572 114.046 136.346 113.952Z" fill="#FFB27D"/>
<path d="M103.596 80.2485C103.596 80.2485 101.374 81.3064 100.261 82.905C100.261 82.905 108.565 97.3272 108.528 97.192C108.49 97.0568 105.721 82.0954 103.596 80.2485" fill="#233862"/>
<path d="M113.938 80.4513C114.67 80.7275 116.072 82.1644 116.389 82.9593L117.376 95.5494C117.376 95.5494 115.268 86.3107 114.195 82.1336C113.922 81.0713 113.973 80.7496 113.938 80.4513" fill="#233862"/>
<path d="M119.695 106.321C119.695 106.321 119.909 105.382 121.144 105.49C122.379 105.599 129.315 105.941 129.315 105.941C129.315 105.941 130.653 105.919 130.53 106.776L119.695 106.321Z" fill="#C65447"/>
<path d="M111.737 74.4435C111.737 74.4435 112.638 75.2648 114.09 75.0092C114.952 74.8593 115.434 73.7383 115.434 73.7383C115.434 73.7383 113.779 73.44 111.737 74.4435" fill="white"/>
<path d="M240.275 84.9667L220.239 85.0417L213.74 60.1571L233.778 60.0838L240.275 84.9667" fill="white"/>
<path d="M228.81 63.3521L220.408 63.3833L220.312 63.0152L228.713 62.984L228.81 63.3521Z" fill="#ADCBF9"/>
<path d="M230.15 64.3743L219.601 64.4135L219.507 64.045L230.055 64.0074L230.15 64.3743Z" fill="#ADCBF9"/>
<path d="M233.05 69.441L219.348 69.4902L219.253 69.1223L232.953 69.0715L233.05 69.441" fill="#ADCBF9"/>
<path d="M233.368 70.6519L219.666 70.7028L219.57 70.336L233.272 70.2852L233.368 70.6519" fill="#ADCBF9"/>
<path d="M233.684 71.8666L219.984 71.9159L219.887 71.5486L233.589 71.4978L233.684 71.8666Z" fill="#ADCBF9"/>
<path d="M234 73.0799L220.299 73.1308L220.202 72.7631L233.903 72.7122L234 73.0799Z" fill="#ADCBF9"/>
<path d="M234.319 74.2919L220.617 74.3429L220.521 73.9747L234.222 73.9238L234.319 74.2919Z" fill="#ADCBF9"/>
<path d="M235.09 77.2449L221.387 77.2961L221.292 76.9285L234.992 76.8773L235.09 77.2449Z" fill="#ADCBF9"/>
<path d="M235.405 78.4578L221.705 78.509L221.607 78.141L235.309 78.0898L235.405 78.4578Z" fill="#ADCBF9"/>
<path d="M235.722 79.6725L222.021 79.7238L221.925 79.3553L235.626 79.304L235.722 79.6725Z" fill="#ADCBF9"/>
<path d="M236.04 80.8843L222.338 80.9356L222.242 80.5667L235.944 80.5169L236.04 80.8843Z" fill="#ADCBF9"/>
<path d="M236.356 82.0979L222.655 82.1493L222.559 81.7799L236.261 81.7301L236.356 82.0979Z" fill="#ADCBF9"/>
<path d="M248.35 115.888L228.313 115.961L221.816 91.0774L241.852 91.0033L248.35 115.888" fill="white"/>
<path d="M236.883 94.2731L228.482 94.3053L228.385 93.9367L236.788 93.9061L236.883 94.2731" fill="#ADCBF9"/>
<path d="M238.224 95.2968L227.675 95.3358L227.58 94.9676L238.128 94.9286L238.224 95.2968Z" fill="#ADCBF9"/>
<path d="M241.125 100.361L227.425 100.411L227.327 100.043L241.031 99.9923L241.125 100.361Z" fill="#ADCBF9"/>
<path d="M241.441 101.575L227.74 101.625L227.643 101.257L241.345 101.206L241.441 101.575Z" fill="#ADCBF9"/>
<path d="M241.757 102.788L228.056 102.838L227.961 102.47L241.662 102.42L241.757 102.788Z" fill="#ADCBF9"/>
<path d="M242.076 104L228.374 104.051L228.277 103.683L241.98 103.632L242.076 104Z" fill="#ADCBF9"/>
<path d="M242.392 105.214L228.689 105.265L228.594 104.897L242.295 104.846L242.392 105.214Z" fill="#ADCBF9"/>
<path d="M243.162 108.167L229.46 108.218L229.364 107.849L243.065 107.799L243.162 108.167" fill="#ADCBF9"/>
<path d="M243.478 109.38L229.778 109.431L229.682 109.062L243.383 109.012L243.478 109.38Z" fill="#ADCBF9"/>
<path d="M243.797 110.593L230.096 110.644L229.999 110.275L243.701 110.225L243.797 110.593" fill="#ADCBF9"/>
<path d="M244.113 111.807L230.411 111.857L230.315 111.49L244.015 111.438L244.113 111.807" fill="#ADCBF9"/>
<path d="M244.429 113.02L230.728 113.07L230.633 112.703L244.333 112.652L244.429 113.02Z" fill="#ADCBF9"/>
<path d="M256.479 147.018L236.441 147.091L229.943 122.208L249.981 122.133L256.479 147.018Z" fill="white"/>
<path d="M245.011 125.403L236.61 125.434L236.512 125.065L244.915 125.035L245.011 125.403Z" fill="#ADCBF9"/>
<path d="M246.351 126.426L235.805 126.466L235.707 126.097L246.256 126.057L246.351 126.426Z" fill="#ADCBF9"/>
<path d="M249.253 131.49L235.553 131.54L235.455 131.173L249.157 131.121L249.253 131.49Z" fill="#ADCBF9"/>
<path d="M249.569 132.704L235.866 132.754L235.772 132.386L249.473 132.336L249.569 132.704" fill="#ADCBF9"/>
<path d="M249.888 133.916L236.187 133.967L236.09 133.599L249.792 133.549L249.888 133.916Z" fill="#ADCBF9"/>
<path d="M250.204 135.13L236.503 135.181L236.405 134.812L250.109 134.762L250.204 135.13" fill="#ADCBF9"/>
<path d="M250.52 136.344L236.819 136.394L236.723 136.026L250.423 135.975L250.52 136.344Z" fill="#ADCBF9"/>
<path d="M251.291 139.297L237.591 139.347L237.492 138.978L251.194 138.928L251.291 139.297Z" fill="#ADCBF9"/>
<path d="M251.609 140.509L237.907 140.56L237.812 140.191L251.512 140.141L251.609 140.509Z" fill="#ADCBF9"/>
<path d="M251.925 141.722L238.224 141.774L238.127 141.405L251.83 141.355L251.925 141.722" fill="#ADCBF9"/>
<path d="M252.241 142.936L238.54 142.986L238.443 142.619L252.144 142.567L252.241 142.936" fill="#ADCBF9"/>
<path d="M252.56 144.149L238.858 144.199L238.763 143.832L252.462 143.78L252.56 144.149Z" fill="#ADCBF9"/>
<path d="M230.131 147.228L160.05 147.486L139.881 70.2433L149.009 60.4093L207.405 60.1945L230.131 147.228" fill="white"/>
<path d="M188.101 73.2475L163.402 73.3386L163.119 72.2558L187.818 72.1647L188.101 73.2475Z" fill="#ADCBF9"/>
<path d="M192.045 76.2551L161.034 76.3682L160.752 75.2868L191.761 75.1722L192.045 76.2551" fill="#ADCBF9"/>
<path d="M200.571 91.1416L160.293 91.29L160.009 90.2086L200.288 90.0588L200.571 91.1416Z" fill="#ADCBF9"/>
<path d="M201.503 94.709L161.224 94.8574L160.941 93.7745L201.219 93.6262L201.503 94.709" fill="#ADCBF9"/>
<path d="M202.434 98.2748L162.155 98.4247L161.873 97.3419L202.15 97.1935L202.434 98.2748Z" fill="#ADCBF9"/>
<path d="M203.365 101.842L163.087 101.991L162.805 100.909L203.082 100.759L203.365 101.842Z" fill="#ADCBF9"/>
<path d="M204.296 105.41L164.017 105.558L163.735 104.475L204.014 104.327L204.296 105.41" fill="#ADCBF9"/>
<path d="M206.563 114.088L166.284 114.237L166.002 113.156L206.28 113.006L206.563 114.088" fill="#ADCBF9"/>
<path d="M207.494 117.656L167.215 117.804L166.933 116.721L207.212 116.573L207.494 117.656Z" fill="#ADCBF9"/>
<path d="M208.425 121.222L168.146 121.372L167.864 120.289L208.143 120.14L208.425 121.222Z" fill="#ADCBF9"/>
<path d="M209.356 124.789L169.079 124.937L168.795 123.855L209.074 123.706L209.356 124.789" fill="#ADCBF9"/>
<path d="M210.288 128.356L170.011 128.505L169.727 127.422L210.006 127.274L210.288 128.356Z" fill="#ADCBF9"/>
<path d="M139.881 70.2429L151.567 70.2003L149.009 60.4091L139.881 70.2429Z" fill="#ADCBF9"/>
<path d="M308.678 207.806H251.625V187.65H308.861C313.311 187.65 316.918 191.258 316.918 195.709V199.564C316.918 204.116 313.229 207.806 308.678 207.806Z" fill="#FCECDB"/>
<path d="M365.615 195.942V198.975C365.615 200.595 365.181 202.113 364.418 203.418C362.888 206.042 360.043 207.806 356.786 207.806H249.878C249.17 207.806 248.597 207.232 248.597 206.527V206.071C248.597 205.366 249.17 204.792 249.878 204.792H315.047C315.398 204.367 315.705 203.907 315.961 203.418C316.573 202.267 316.918 200.955 316.918 199.564V195.709C316.918 195 316.827 194.311 316.655 193.658C316.362 192.548 315.841 191.532 315.143 190.665H249.878C249.17 190.665 248.597 190.092 248.597 189.383V188.931C248.597 188.223 249.17 187.65 249.878 187.65H357.325C361.113 187.65 364.305 190.189 365.296 193.658C365.504 194.383 365.615 195.15 365.615 195.942" fill="#699DEE"/>
<path d="M365.297 193.658H316.654C316.362 192.548 315.842 191.532 315.144 190.665H249.879C249.169 190.665 248.597 190.092 248.597 189.383V188.931C248.597 188.223 249.169 187.65 249.879 187.65H357.325C361.112 187.65 364.305 190.189 365.297 193.658" fill="#548EE2"/>
<path d="M251.625 197.728L259.541 198.067L251.625 198.271V197.728" fill="#F4D2B8"/>
<path d="M251.625 200.891L270.458 201.23L251.625 201.434V200.891" fill="#F4D2B8"/>
<path d="M265.232 223.442H325.966V207.764H264.738C260.546 207.764 257.149 211.164 257.149 215.357C257.149 219.822 260.766 223.442 265.232 223.442" fill="#2B478B"/>
<path d="M322.479 223.442H391.603V207.764H322.305C318.044 207.764 314.588 211.219 314.588 215.483V215.548C314.588 219.907 318.123 223.442 322.479 223.442Z" fill="#FCECDB"/>
<path d="M309.974 223.442H394.003C394.651 223.442 395.175 222.918 395.175 222.27C395.175 221.622 394.651 221.097 394.003 221.097H309.974C309.324 221.097 308.8 221.622 308.8 222.27C308.8 222.918 309.324 223.442 309.974 223.442Z" fill="#2B478B"/>
<path d="M309.974 210.109H394.003C394.651 210.109 395.175 209.584 395.175 208.936C395.175 208.288 394.651 207.764 394.003 207.764H309.974C309.324 207.764 308.8 208.288 308.8 208.936C308.8 209.584 309.324 210.109 309.974 210.109Z" fill="#2B478B"/>
<path d="M391.603 215.604L382.266 215.867L391.603 216.026V215.604Z" fill="#F4D2B8"/>
<path d="M391.603 211.995L369.389 212.258L391.603 212.417V211.995Z" fill="#F4D2B8"/>
<path d="M369.618 212.206C369.618 212.206 370.57 212.88 370.886 213.988C370.94 214.18 370.977 214.389 370.984 214.606C371.036 216.079 370.984 219.408 370.984 219.408L373.793 217.743L376.597 219.408V214.894C376.597 214.041 376.355 213.212 375.909 212.668C375.694 212.404 375.431 212.206 375.132 212.206H369.618" fill="#699DEE"/>
<path d="M369.617 212.206C369.617 212.206 370.568 212.88 370.884 213.988L376.515 214.054C376.515 214.054 376.296 212.467 375.132 212.206H369.617" fill="#568CDB"/>
<path d="M315.411 187.692H377.466V164.657H315.208C310.239 164.657 306.21 168.686 306.21 173.658V178.487C306.21 183.571 310.33 187.692 315.411 187.692" fill="#FCECDB"/>
<path d="M307.671 173.595V178.552C307.686 180.669 308.856 182.506 310.579 183.489C311.427 183.971 312.405 184.245 313.447 184.245H380.835C381.626 184.245 382.266 184.886 382.266 185.676V186.261C382.266 187.052 381.626 187.692 380.835 187.692H264.42C261.079 187.692 258.128 186.031 256.345 183.489C255.222 181.886 254.56 179.936 254.56 177.829V173.918C254.56 172.474 254.89 171.107 255.48 169.891C256.978 166.792 260.146 164.657 263.817 164.657H380.835C381.626 164.657 382.266 165.296 382.266 166.087V166.671C382.266 167.46 381.626 168.101 380.835 168.101H313.242C311.627 168.101 310.164 168.79 309.141 169.891C308.238 170.865 307.678 172.164 307.671 173.595Z" fill="#B5453C"/>
<path d="M377.466 176.175L368.826 176.561L377.466 176.795V176.175Z" fill="#F4D2B8"/>
<path d="M377.466 170.874L356.912 171.26L377.466 171.494V170.874Z" fill="#F4D2B8"/>
<path d="M357.123 171.184C357.123 171.184 358.48 171.914 358.928 173.115C359.008 173.325 359.058 173.549 359.07 173.786C359.145 175.382 359.07 178.992 359.07 178.992L363.074 177.187L367.068 178.992V174.099C367.068 173.173 366.726 172.274 366.088 171.684C365.78 171.398 365.407 171.184 364.983 171.184H357.123" fill="#F99746"/>
<path d="M357.124 171.184C357.124 171.184 358.479 171.914 358.929 173.115L366.953 173.187C366.953 173.187 366.638 171.468 364.982 171.184H357.124Z" fill="#ED7D2B"/>
<path d="M316.492 156.117C320.044 162.299 324.51 164.687 324.51 164.687H343.096C343.096 164.687 313.782 151.399 316.492 156.117" fill="#233862"/>
<path d="M330.765 203.961C331.25 204.517 331.312 205.137 331.073 205.799L331.066 205.808C330.622 207.034 329.161 208.403 327.458 209.77C327.239 209.944 327.047 210.104 326.878 210.251C326.835 210.291 326.791 210.329 326.747 210.369C326.714 210.398 326.681 210.431 326.649 210.459C325.062 211.922 325.66 212.257 322.808 215.225C319.559 218.607 317.323 218.667 316.686 218.36C316.148 218.097 317.242 216.303 318.454 214.287C318.513 214.19 318.57 214.092 318.629 213.994C318.791 213.725 318.951 213.453 319.113 213.184C320.533 210.757 320.167 209.618 319.833 206.008C319.559 203.072 315.268 189.614 315.268 189.614L321.496 188.54C321.496 188.54 323.371 199.258 325.436 200.908C326.541 201.788 327.778 201.8 328.841 202.452C328.916 202.497 328.99 202.544 329.062 202.592C329.666 202.992 330.279 203.405 330.765 203.961" fill="#FFB27D"/>
<path d="M330.765 203.961C331.251 204.517 331.312 205.137 331.073 205.799L331.067 205.808C330.524 207.032 329.097 208.394 327.452 209.756C327.238 209.934 327.047 210.098 326.879 210.251C326.835 210.291 326.791 210.329 326.747 210.369C326.715 210.398 326.682 210.431 326.649 210.459C325.063 211.922 325.66 212.257 322.809 215.225C319.559 218.607 317.323 218.667 316.686 218.36C316.148 218.097 317.242 216.303 318.454 214.287C319.087 214.055 322.025 212.861 324.246 210.018C326.203 207.52 327.507 204.311 328.841 202.452C328.916 202.497 328.99 202.544 329.062 202.592C329.666 202.992 330.279 203.405 330.765 203.961" fill="#233862"/>
<path d="M280.552 200.071C280.167 201.994 277.428 201.672 274.367 200.925C271.303 200.177 272.032 201.066 267.676 200.584C263.318 200.1 262 198.476 261.866 197.827C261.746 197.253 263.899 197.05 266.209 196.784C266.499 196.752 266.791 196.715 267.083 196.68C269.69 196.352 271.599 194.67 273.966 193.288C276.209 191.978 279.556 186.645 279.556 186.645L285.532 187.118C285.532 187.118 282.396 191.883 281.185 193.953C280.47 195.171 280.508 196.783 280.598 198.026C280.643 198.703 280.687 199.394 280.552 200.071" fill="#FFB27D"/>
<path d="M274.366 200.925C271.304 200.177 272.033 201.066 267.677 200.584C263.319 200.1 261.999 198.475 261.865 197.827C261.747 197.253 263.901 197.05 266.208 196.784L266.231 196.828C266.231 196.828 268.844 198.681 272.47 198.768C275.425 198.84 278.557 197.993 280.598 198.026C280.645 198.703 280.688 199.394 280.551 200.071C280.166 201.994 277.427 201.672 274.366 200.925Z" fill="#233862"/>
<path d="M303.45 161.854L309.035 176.887L316.327 196.518C316.327 196.518 318.305 196.711 320.202 196.164C321.946 195.66 323.948 194.341 323.948 194.341C323.948 194.341 321.925 173.263 318.147 161.163C317.178 158.057 316.092 155.545 314.896 154.131C309.041 147.208 303.45 161.854 303.45 161.854" fill="#233862"/>
<path d="M309.128 137.977C312.787 136.796 323.222 138.312 333.705 140.365L335.902 136.743L358.547 134.974C358.547 134.974 366.019 151.55 361.928 162.113C361.328 163.664 360.132 164.661 358.096 164.693H357.764C357.764 164.693 344.287 164.685 339.91 164.685C328.649 164.685 316.077 156.942 314.451 156.616C311.788 156.084 310.725 161.409 308.062 167.001C305.399 172.593 283.04 191.765 283.04 191.765C283.04 191.765 279.604 191.799 278.183 191.267C276.658 190.694 276.099 189.951 276.099 189.951C276.099 189.951 300.875 140.64 309.128 137.977" fill="#2B478B"/>
<path d="M336.037 105.548C344.098 109.989 360.457 119.197 360.543 119.137C360.543 119.137 366.555 121.404 369.966 119.137C375.652 115.361 378.701 105.195 368.305 96.4479C363.116 92.0849 359.433 91.0229 358.875 84.0567C358.57 80.2774 353.407 67.8044 344.825 68.9579C344.108 69.0544 339.693 69.2604 336.793 70.7842C329.401 74.6674 323.948 103.829 336.037 105.548" fill="#233862"/>
<path d="M342.795 101.767C342.76 101.79 346.762 103.157 349.439 101.971C351.957 100.858 353.865 96.714 353.827 96.7119C352.683 96.6591 351.424 95.6572 350.456 89.0839L349.968 89.2589L341.767 92.2108C341.767 92.2108 342.36 94.8434 342.744 97.3496C343.069 99.4539 343.242 101.47 342.795 101.767" fill="#FFB27D"/>
<path d="M341.765 92.2112C341.765 92.2112 342.359 94.8437 342.744 97.35C347.455 96.5016 349.304 91.807 349.967 89.2592L341.765 92.2112Z" fill="#ED975D"/>
<path d="M340.544 94.8238C340.544 94.8238 351.765 93.3174 350.719 86.3419C349.676 79.3664 350.418 74.474 343.209 75.141C336.002 75.8078 335.012 78.6778 334.794 81.091C334.577 83.5042 337.598 95.0361 340.544 94.8238" fill="#FFB27D"/>
<path d="M335.203 77.2672C335.203 77.2672 342.387 83.4594 347.272 83.9586C352.158 84.4577 354.008 82.8888 354.008 82.8888C354.008 82.8888 351.127 80.4971 349.395 76.637C348.885 75.4992 347.805 74.7184 346.563 74.6113C343.074 74.3098 336.459 74.1724 335.203 77.2672" fill="#233862"/>
<path d="M339.694 76.7126C339.694 76.7126 337.291 79.0367 336.534 80.7606C335.803 82.424 335.586 86.4028 336.166 87.9831C336.166 87.9831 332.424 80.7008 334.543 77.1627C336.789 73.4109 339.694 76.7126 339.694 76.7126Z" fill="#233862"/>
<path d="M333.346 118.302C333.686 141.023 333.439 136.275 335.925 138.431C336.523 138.95 338.208 139.259 340.421 139.405C347.385 139.868 359.628 138.72 360.095 137.433C361.7 132.977 360.568 131.593 361.908 124.773C362.047 124.048 362.219 123.262 362.423 122.407C363.54 117.723 364.628 116.129 360.664 108.603C357.068 101.786 353.333 96.2527 352.998 96.4523C343.512 102.085 342.746 97.3505 342.746 97.3505C342.746 97.3505 333.181 107.219 333.346 118.302" fill="white"/>
<path d="M309.035 176.887L316.327 196.518C316.327 196.518 318.305 196.711 320.202 196.164C321.946 195.66 323.948 194.341 323.948 194.341C323.948 194.341 321.925 173.263 318.147 161.163L309.035 176.887" fill="#2B478B"/>
<path d="M342.744 97.3498C342.744 97.3498 332.983 99.005 331.839 103.209C330.691 107.413 323.946 132.127 323.946 132.127C323.946 132.127 328.907 133.019 331.202 130.725C333.494 128.433 339.178 109.452 339.178 109.452L342.744 97.3498" fill="white"/>
<path d="M340.419 139.406C347.385 139.868 359.628 138.721 360.094 137.434C361.7 132.978 360.567 131.594 361.907 124.773L358.547 115.311C358.547 115.311 359.103 125.849 355.995 128.62C352.893 131.391 343.278 133.969 341.767 136.285C341.037 137.397 340.56 138.511 340.419 139.406" fill="#EBF3FF"/>
<path d="M348.401 134.974C348.401 134.974 341.529 133.444 340.421 134.054C339.311 134.664 336.601 136.885 336.262 137.658C335.922 138.431 338.731 137.071 339.644 136.826C340.235 136.668 341.792 137.209 342.563 137.466C345.805 138.547 347.793 137.99 347.793 137.99L348.401 134.974" fill="#FFB27D"/>
<path d="M353.004 96.4473C353.004 96.4473 362.228 97.0158 365.422 101.472C369.918 107.745 378.837 134.477 373.727 138.043C367.969 142.059 347.529 139.093 347.529 139.093C347.529 139.093 346.847 135.913 347.794 134.374C348.741 132.836 364.123 130.35 364.832 129.64C365.541 128.929 355.957 115.792 355.957 113.662C355.957 111.532 353.004 96.4473 353.004 96.4473" fill="white"/>
<path d="M340.086 135.968C340.086 135.968 338.647 137.824 338.176 138.046C337.703 138.268 337.398 138.212 337.398 138.212L338.369 136.465L340.086 135.968" fill="#FFB27D"/>
<path d="M340.421 134.054L336.236 136.087C336.236 136.087 336.414 136.378 336.93 136.355C337.444 136.331 338.745 135.855 338.745 135.855L340.421 134.054Z" fill="#FFB27D"/>
<path d="M338.176 140.892H305.065L295.103 116.115H328.164L338.176 140.892Z" fill="#F99746"/>
<path d="M304.676 139.927H348.401V140.892H305.066L304.676 139.927Z" fill="#ED7D2B"/>
<path d="M313.422 128.504C313.173 127.632 313.676 126.927 314.548 126.927C315.419 126.927 316.326 127.632 316.576 128.504C316.825 129.375 316.322 130.08 315.45 130.08C314.581 130.08 313.672 129.375 313.422 128.504Z" fill="white"/>
<path d="M37.2822 150.623L36.577 151.111C35.8243 151.634 34.7873 151.446 34.2656 150.692L30.1645 144.774C29.6427 144.02 29.8306 142.983 30.5835 142.461L31.5934 141.76C31.741 141.659 31.9436 141.696 32.0457 141.843C32.148 141.991 32.1113 142.192 31.9637 142.295L30.9538 142.996C30.4957 143.314 30.3812 143.945 30.6988 144.404L34.7998 150.322C35.1173 150.78 35.7485 150.895 36.2066 150.577L36.9119 150.088C37.37 149.771 37.4844 149.139 37.1669 148.681L34.4445 144.752C34.3423 144.604 34.379 144.401 34.5265 144.299C34.6741 144.197 34.8766 144.233 34.9788 144.382L37.7012 148.31C38.223 149.063 38.0351 150.1 37.2822 150.623Z" fill="#AFCDFB"/>
<path d="M41.7781 156.459L40.5139 157.336C39.3402 158.15 37.6762 157.789 36.8046 156.531L30.6389 147.632C30.5367 147.485 30.5734 147.282 30.7211 147.179C30.8685 147.078 31.0711 147.114 31.1733 147.261L37.339 156.159C38.0064 157.123 39.2645 157.411 40.1436 156.801L41.4078 155.926C42.2869 155.316 42.459 154.036 41.7916 153.072L34.7686 142.937C34.1012 141.974 32.8432 141.686 31.9639 142.295C31.8165 142.398 31.6139 142.361 31.5117 142.213C31.4093 142.066 31.446 141.863 31.5937 141.76C32.7674 140.946 34.4314 141.308 35.3029 142.567L42.3259 152.702C43.1975 153.96 42.9518 155.646 41.7781 156.459" fill="#AFCDFB"/>
<path d="M50.2597 202.936L50.4119 204.189C50.5742 205.528 49.618 206.749 48.2802 206.91L37.7661 208.187C36.4283 208.349 35.2079 207.392 35.0456 206.055L34.8278 204.26C34.7959 203.997 34.9827 203.759 35.2449 203.726C35.5071 203.696 35.7455 203.882 35.7773 204.144L35.995 205.939C36.0939 206.755 36.8366 207.336 37.6508 207.238L48.1649 205.961C48.9792 205.863 49.5612 205.119 49.4623 204.305L49.3103 203.051C49.2114 202.237 48.4687 201.655 47.6545 201.753L40.6749 202.601C40.4127 202.632 40.1743 202.445 40.1426 202.184C40.1107 201.921 40.2975 201.683 40.5597 201.65L47.5394 200.804C48.877 200.641 50.0974 201.597 50.2597 202.936" fill="#AFCDFB"/>
<path d="M60.9385 201.089L61.2111 203.337C61.4642 205.423 59.8522 207.341 57.6176 207.613L41.8104 209.531C41.5482 209.564 41.3098 209.376 41.2779 209.114C41.2461 208.851 41.4329 208.613 41.6951 208.581L57.5023 206.662C59.2134 206.455 60.4512 205.015 60.2617 203.452L59.989 201.205C59.7995 199.642 58.2532 198.54 56.5422 198.747L38.5368 200.933C36.8256 201.142 35.5879 202.582 35.7775 204.144C35.8092 204.407 35.6224 204.645 35.3603 204.677C35.0982 204.708 34.8598 204.521 34.8279 204.26C34.5748 202.173 36.1868 200.255 38.4215 199.984L56.4269 197.798C58.6615 197.526 60.6855 199.003 60.9385 201.089Z" fill="#AFCDFB"/>
<path d="M229.423 54.1037C229.423 53.2987 230.074 52.6456 230.879 52.6456C231.685 52.6456 232.337 53.2987 232.337 54.1037C232.337 54.9086 231.685 55.5618 230.879 55.5618C230.074 55.5618 229.423 54.9086 229.423 54.1037Z" fill="#F99746"/>
<path d="M427.742 224.462H2.72908C2.46369 224.462 2.24658 224.245 2.24658 223.98V223.816C2.24658 223.55 2.46369 223.332 2.72936 223.332H427.742C428.009 223.332 428.226 223.55 428.226 223.816V223.98C428.226 224.245 428.009 224.462 427.742 224.462Z" fill="#2E3552"/>
</svg>
