<svg width="56" height="54" viewBox="0 0 56 54" fill="none" xmlns="http://www.w3.org/2000/svg">
<path fill-rule="evenodd" clip-rule="evenodd" d="M43.1429 36.8571V24H38L38 36.8571H26V42H38L38 54H43.1429V42H56V36.8571H43.1429Z" fill="#3A728E"/>
<path fill-rule="evenodd" clip-rule="evenodd" d="M28.7704 11.1885C28.7704 15.8593 25.9083 19.8617 21.8422 21.5374C25.118 22.2766 28.1478 23.9294 30.56 26.3416C32.6342 28.4158 34.1468 30.9465 35 33.6975V33.8571H23V39L17.9016 39H0C0 34.2522 1.88606 29.6988 5.24327 26.3416C7.55688 24.028 10.4386 22.4131 13.5605 21.6326C9.36806 20.0173 6.39336 15.9503 6.39336 11.1885C6.39336 5.00928 11.4026 0 17.5819 0C23.7611 0 28.7704 5.00928 28.7704 11.1885Z" fill="#3A728E"/>
</svg>
