<svg width="81" height="82" viewBox="0 0 81 82" fill="none" xmlns="http://www.w3.org/2000/svg">
<ellipse cx="40.4736" cy="40.5553" rx="40" ry="40.5187" fill="white"/>
<ellipse cx="23.8157" cy="28.6662" rx="8.16045" ry="8.26627" fill="#1F5372"/>
<path d="M65.7647 28.6662C65.7647 33.2315 62.1112 36.9324 57.6043 36.9324C53.0974 36.9324 49.4438 33.2315 49.4438 28.6662C49.4438 24.1008 53.0974 20.3999 57.6043 20.3999C62.1112 20.3999 65.7647 24.1008 65.7647 28.6662Z" fill="#1F5372"/>
<path d="M58.2625 46.7856C58.2625 49.152 57.8024 51.4952 56.9084 53.6814C56.0144 55.8676 54.7041 57.8541 53.0523 59.5273C51.4004 61.2006 49.4394 62.5279 47.2812 63.4335C45.1229 64.3391 42.8097 64.8051 40.4737 64.8051C38.1376 64.8051 35.8244 64.3391 33.6662 63.4335C31.5079 62.5279 29.5469 61.2006 27.895 59.5273C26.2432 57.8541 24.9329 55.8676 24.0389 53.6814C23.1449 51.4952 22.6848 49.152 22.6848 46.7856H24.8279C24.8279 48.8669 25.2326 50.9278 26.0188 52.8506C26.8051 54.7735 27.9576 56.5206 29.4104 57.9923C30.8633 59.464 32.588 60.6314 34.4863 61.4279C36.3845 62.2243 38.419 62.6343 40.4737 62.6343C42.5283 62.6343 44.5628 62.2244 46.461 61.4279C48.3593 60.6314 50.0841 59.464 51.5369 57.9923C52.9897 56.5206 54.1422 54.7735 54.9285 52.8506C55.7148 50.9278 56.1194 48.8669 56.1194 46.7856H58.2625Z" fill="#1F5372"/>
</svg>
