<svg width="35" height="36" viewBox="0 0 35 36" fill="none" xmlns="http://www.w3.org/2000/svg">
<rect x="21" y="27" width="6" height="13" transform="rotate(-180 21 27)" fill="#3A728E"/>
<rect x="21" y="10.9231" width="5.69768" height="3.64105" transform="rotate(-180 21 10.9231)" fill="#3A728E"/>
<path d="M-1.37157e-05 17.6512C-1.28634e-05 7.9027 7.83501 -2.37484e-06 17.5 -1.5299e-06C27.165 -6.84959e-07 35 7.9027 35 17.6512C35 27.3997 27.165 35.3024 17.5 35.3024C7.835 35.3024 -1.45679e-05 27.3997 -1.37157e-05 17.6512ZM31.2351 17.6512C31.2351 9.99997 25.0857 3.79743 17.5 3.79743C9.91431 3.79743 3.7649 9.99997 3.7649 17.6512C3.7649 25.3024 9.91431 31.5049 17.5 31.5049C25.0857 31.5049 31.2351 25.3024 31.2351 17.6512Z" fill="#3A728E"/>
</svg>
