<svg width="103" height="94" viewBox="0 0 103 94" fill="none" xmlns="http://www.w3.org/2000/svg">
<rect x="1.56177" y="1.57422" width="45.4396" height="77" stroke="white" stroke-width="3"/>
<path d="M19.9926 45.3699V43.3191H23.4262V32.3855L20.602 32.5496V30.8621C21.352 30.7292 21.9965 30.5613 22.5356 30.3582C23.0825 30.155 23.5864 29.9128 24.0473 29.6316H26.0043V43.3191H29.0278V45.3699H19.9926Z" fill="white"/>
<path d="M97.6939 20.0742C97.6939 30.1285 88.4513 38.5742 76.6638 38.5742C64.8763 38.5742 55.6338 30.1285 55.6338 20.0742C55.6338 10.0199 64.8763 1.57422 76.6638 1.57422C88.4513 1.57422 97.6939 10.0199 97.6939 20.0742Z" stroke="white" stroke-width="3"/>
<path d="M72.2068 26.2854V24.7971C74.3708 22.6721 76.074 20.8245 77.3162 19.2542C78.5583 17.6838 79.1794 16.3127 79.1794 15.1409C79.1794 14.2581 78.9529 13.5706 78.4998 13.0784C78.0544 12.5784 77.4021 12.3284 76.5427 12.3284C75.9412 12.3284 75.3865 12.4885 74.8787 12.8088C74.3708 13.1292 73.906 13.5276 73.4841 14.0042L72.0544 12.5862C72.7341 11.844 73.449 11.2776 74.199 10.887C74.949 10.4885 75.8396 10.2893 76.8708 10.2893C78.3318 10.2893 79.4919 10.7112 80.3513 11.5549C81.2185 12.3909 81.6521 13.5315 81.6521 14.9768C81.6521 15.9143 81.3943 16.887 80.8787 17.8948C80.3708 18.8948 79.6833 19.926 78.8162 20.9885C77.9568 22.051 76.9958 23.1409 75.9333 24.2581C76.3396 24.219 76.7693 24.1838 77.2224 24.1526C77.6833 24.1135 78.1052 24.094 78.488 24.094H82.4138V26.2854H72.2068Z" fill="white"/>
<path d="M54.7766 78.3242L75.6937 43.0171L96.6107 78.3242H54.7766Z" stroke="white" stroke-width="3"/>
<path d="M75.6611 71.7336C74.4346 71.7336 73.3955 71.5227 72.5439 71.1008C71.6924 70.6711 71.001 70.1594 70.4697 69.5657L71.7119 67.9133C72.1728 68.3821 72.708 68.7844 73.3174 69.1204C73.9346 69.4563 74.6455 69.6243 75.4502 69.6243C76.3096 69.6243 77.001 69.4094 77.5244 68.9797C78.0478 68.55 78.3096 67.9446 78.3096 67.1633C78.3096 66.6165 78.1728 66.136 77.8994 65.7219C77.6338 65.3079 77.1689 64.9875 76.5049 64.761C75.8408 64.5266 74.915 64.4094 73.7275 64.4094V62.5227C74.7588 62.5227 75.5674 62.3977 76.1533 62.1477C76.7392 61.8899 77.1533 61.554 77.3955 61.1399C77.6455 60.718 77.7705 60.2649 77.7705 59.7805C77.7705 59.0852 77.5635 58.5305 77.1494 58.1165C76.7432 57.6946 76.1689 57.4836 75.4267 57.4836C74.833 57.4836 74.2822 57.6047 73.7744 57.8469C73.2666 58.0813 72.7822 58.4211 72.3213 58.8665L70.9853 57.2727C71.6182 56.6946 72.3135 56.2454 73.0713 55.925C73.8369 55.6047 74.6767 55.4446 75.5908 55.4446C77.0517 55.4446 78.2119 55.8157 79.0713 56.5579C79.9385 57.3 80.3721 58.3118 80.3721 59.593C80.3721 60.4602 80.1299 61.2219 79.6455 61.8782C79.1611 62.5266 78.5088 63.011 77.6885 63.3313V63.425C78.5947 63.6516 79.3525 64.0891 79.9619 64.7375C80.5791 65.386 80.8877 66.2219 80.8877 67.2454C80.8877 68.1594 80.6572 68.9524 80.1963 69.6243C79.7432 70.2961 79.1221 70.8157 78.333 71.1829C77.5439 71.55 76.6533 71.7336 75.6611 71.7336Z" fill="white"/>
</svg>
