<svg width="71" height="71" viewBox="0 0 71 71" fill="none" xmlns="http://www.w3.org/2000/svg">
<path d="M17.52 27.712C18.432 27.448 19.608 27.208 21.048 26.992C22.488 26.752 24 26.632 25.584 26.632C27.192 26.632 28.524 26.848 29.58 27.28C30.66 27.688 31.512 28.276 32.136 29.044C32.76 29.812 33.204 30.724 33.468 31.78C33.732 32.836 33.864 34.012 33.864 35.308V46H28.5V35.956C28.5 34.228 28.272 33.004 27.816 32.284C27.36 31.564 26.508 31.204 25.26 31.204C24.876 31.204 24.468 31.228 24.036 31.276C23.604 31.3 23.22 31.336 22.884 31.384V46H17.52V27.712ZM55.7472 41.176V46H39.0792V21.052H44.6952V41.176H55.7472Z" fill="white"/>
<circle cx="35.5" cy="35.5" r="32" stroke="white" stroke-width="7"/>
</svg>
