<svg width="161" height="120" viewBox="0 0 161 120" fill="none" xmlns="http://www.w3.org/2000/svg">
<path fill-rule="evenodd" clip-rule="evenodd" d="M119.746 120C134.403 104.578 160.968 67.328 160.968 43.3735C160.968 19.419 142.512 0 119.746 0C96.9803 0 78.5249 19.419 78.5249 43.3735C78.5249 67.328 104.632 104.096 119.746 120ZM119.288 59.542C131.683 59.542 141.731 49.494 141.731 37.0992C141.731 24.7044 131.683 14.6565 119.288 14.6565C106.893 14.6565 96.8455 24.7044 96.8455 37.0992C96.8455 49.494 106.893 59.542 119.288 59.542Z" fill="white"/>
<rect x="75.5249" y="115" width="27" height="5" fill="white"/>
<rect x="39.5249" y="115" width="27" height="5" fill="white"/>
<rect x="0.524902" y="115" width="27" height="5" fill="white"/>
</svg>
