<svg width="50" height="38" viewBox="0 0 50 38" fill="none" xmlns="http://www.w3.org/2000/svg">
<path fill-rule="evenodd" clip-rule="evenodd" d="M37.1538 37.3966C41.7213 32.5906 49.9999 20.982 49.9999 13.5168C49.9999 6.0517 44.2485 0 37.1538 0C30.059 0 24.3076 6.0517 24.3076 13.5168C24.3076 20.982 32.4435 32.4404 37.1538 37.3966ZM37.0112 18.5555C40.8739 18.5555 44.0052 15.4242 44.0052 11.5615C44.0052 7.69878 40.8739 4.56745 37.0112 4.56745C33.1485 4.56745 30.0172 7.69878 30.0172 11.5615C30.0172 15.4242 33.1485 18.5555 37.0112 18.5555Z" fill="#3A728E"/>
<rect x="23.3728" y="35.8385" width="8.41424" height="1.55819" fill="#3A728E"/>
<rect x="12.1541" y="35.8385" width="8.41424" height="1.55819" fill="#3A728E"/>
<rect y="35.8385" width="8.41424" height="1.55819" fill="#3A728E"/>
</svg>
