<svg width="120" height="120" viewBox="0 0 120 120" fill="none" xmlns="http://www.w3.org/2000/svg">
<path fill-rule="evenodd" clip-rule="evenodd" d="M0 0H120V120H0V0ZM20.8696 11.4729H98.7826V14.5737H20.8696V11.4729ZM98.7826 21.7054H20.8696V24.8061H98.7826V21.7054ZM20.8696 31.9378H98.7826V35.0386H20.8696V31.9378ZM98.7826 42.1706H20.8696V45.2714H98.7826V42.1706ZM20.8696 52.4032H98.7826V55.504H20.8696V52.4032ZM98.7826 62.6355H20.8696V65.7363H98.7826V62.6355ZM20.8696 72.8684H98.7826V75.9691H20.8696V72.8684ZM98.7826 83.1007H20.8696V86.2015H98.7826V83.1007ZM20.8696 93.3333H98.7826V96.4341H20.8696V93.3333ZM98.7826 104.496H20.8696V107.597H98.7826V104.496Z" fill="#2D7EDD"/>
</svg>
