<svg width="160" height="118" viewBox="0 0 160 118" fill="none" xmlns="http://www.w3.org/2000/svg">
<path fill-rule="evenodd" clip-rule="evenodd" d="M67.7172 60.1804C77.8552 55.1223 84.8696 44.2242 84.8696 31.5956C84.8696 14.1459 71.477 0 54.9565 0C38.436 0 25.0435 14.1459 25.0435 31.5956C25.0435 44.4159 32.2724 55.4528 42.6598 60.4067C32.761 62.9173 23.6168 68.2714 16.3001 75.9996C5.86334 87.0235 2.22868e-06 101.975 0 117.565L55.6522 117.565H66.7826C66.7826 105.093 71.4733 93.1319 79.8227 84.3128C83.7962 80.1159 88.4433 76.7941 93.4957 74.4651C86.2124 67.3298 77.2996 62.4283 67.7172 60.1804ZM138.852 52.0136C138.852 61.6427 133.241 69.9525 125.13 73.8093C133.334 75.6436 140.924 79.7952 146.96 85.8715C155.309 94.2772 160 105.678 160 117.565H115.478L70.9565 117.565C70.9565 105.678 75.6472 94.2772 83.9966 85.8715C89.8499 79.9787 97.1652 75.8963 105.084 73.9819C96.7744 70.2045 90.9913 61.789 90.9913 52.0136C90.9913 38.7081 101.705 27.9219 114.922 27.9219C128.138 27.9219 138.852 38.7081 138.852 52.0136Z" fill="#181818"/>
</svg>
