<?xml version="1.0" encoding="utf-8"?>
<!-- Generator: Adobe Illustrator 19.2.1, SVG Export Plug-In . SVG Version: 6.00 Build 0)  -->
<svg version="1.1" id="Layer_1" xmlns="http://www.w3.org/2000/svg" xmlns:xlink="http://www.w3.org/1999/xlink" x="0px" y="0px"
	 viewBox="0 0 50 50" style="enable-background:new 0 0 50 50;" xml:space="preserve">
<metadata><?xpacket begin="﻿" id="W5M0MpCehiHzreSzNTczkc9d"?>
<x:xmpmeta xmlns:x="adobe:ns:meta/" x:xmptk="Adobe XMP Core 5.6-c111 79.158366, 2015/09/25-01:12:00        ">
   <rdf:RDF xmlns:rdf="http://www.w3.org/1999/02/22-rdf-syntax-ns#">
      <rdf:Description rdf:about=""/>
   </rdf:RDF>
</x:xmpmeta>
                                                                                                    
                                                                                                    
                                                                                                    
                                                                                                    
                                                                                                    
                                                                                                    
                                                                                                    
                                                                                                    
                                                                                                    
                                                                                                    
                                                                                                    
                                                                                                    
                                                                                                    
                                                                                                    
                                                                                                    
                                                                                                    
                                                                                                    
                                                                                                    
                                                                                                    
                                                                                                    
                           
<?xpacket end="w"?></metadata>
<style type="text/css">
	.st0{fill:#FCC34F;}
	.st1{fill:#FDCF72;}
	.st2{fill:#444444;}
</style>
<g>
	<g>
		<polygon class="st0" points="40.9,27.6 17.4,36.2 6.2,21.2 43.2,7.7 48.5,15.4 		"/>
	</g>
	<g>
		<polygon class="st1" points="44.3,8.9 7.3,22.3 1.5,13.6 11.3,3.4 25.9,2.9 38.7,3.4 		"/>
	</g>
	<g>
		<path class="st2" d="M49.4,13.6l-9.7-11c-0.2-0.3-0.6-0.4-0.9-0.4H11.3c-0.4,0-0.7,0.2-0.9,0.4l-9.7,11c-0.4,0.4-0.4,1.1-0.1,1.6
			L24,47.4c0.2,0.3,0.6,0.5,1,0.5c0,0,0,0,0,0c0.4,0,0.7-0.2,1-0.5l4-5c0.4-0.5,0.4-1.3-0.2-1.8c-0.5-0.4-1.3-0.4-1.8,0.2l-3,3.7
			L3.1,14.5l8.7-9.9h26.3l8.7,9.9L39,27c-0.4,0.6-0.2,1.4,0.4,1.7c0.6,0.4,1.4,0.2,1.7-0.4l8.5-13.3C49.8,14.6,49.8,14,49.4,13.6z"
			/>
		<path class="st2" d="M16.8,7.3c-0.3-0.3-0.8-0.2-1.1,0.1l-6.2,7c-0.2,0.3-0.3,0.7,0,0.9l14.9,20.5c0.1,0.2,0.4,0.3,0.6,0.3
			c0.2,0,0.3,0,0.4-0.1c0.3-0.2,0.4-0.7,0.2-1L11.1,15l5.8-6.6C17.2,8.1,17.2,7.6,16.8,7.3z"/>
		<path class="st2" d="M19.2,15L25,8.4c0.3-0.3,0.2-0.8-0.1-1.1c-0.3-0.3-0.8-0.2-1.1,0.1l-6.2,7c-0.2,0.3-0.3,0.7,0,0.9L32,35.1
			c0.1,0.2,0.4,0.3,0.6,0.3c0.2,0,0.3,0,0.4-0.1c0.3-0.2,0.4-0.7,0.2-1L19.2,15z"/>
	</g>
</g>
</svg>
