<svg width="178" height="87" viewBox="0 0 178 87" fill="none" xmlns="http://www.w3.org/2000/svg">
<path d="M107.454 37.2552C107.454 35.978 107.089 34.9729 106.359 34.2401C105.639 33.5072 104.288 32.8058 102.306 32.1357C100.323 31.4657 98.8678 30.7171 97.9393 29.89C96.7186 28.8117 96.1083 27.3879 96.1083 25.6185C96.1083 23.8702 96.7082 22.4463 97.908 21.347C99.1078 20.2478 100.657 19.6981 102.556 19.6981C104.496 19.6981 106.082 20.3368 107.313 21.614C108.545 22.8913 109.16 24.535 109.16 26.5451H107.36C107.36 25.0061 106.927 23.7655 106.061 22.8232C105.206 21.8705 104.037 21.3942 102.556 21.3942C101.116 21.3942 99.9789 21.7868 99.1443 22.572C98.3201 23.3467 97.908 24.3518 97.908 25.5871C97.908 26.7388 98.2992 27.681 99.0817 28.4139C99.8642 29.1467 101.111 29.8011 102.822 30.3769C104.533 30.9422 105.827 31.5337 106.703 32.1514C107.579 32.7587 108.226 33.4758 108.644 34.3029C109.061 35.13 109.27 36.1036 109.27 37.2238C109.27 39.0141 108.664 40.4589 107.454 41.5582C106.254 42.647 104.663 43.1914 102.681 43.1914C101.346 43.1914 100.125 42.9192 99.0191 42.3748C97.9236 41.8199 97.0629 41.0295 96.4369 40.0035C95.8213 38.967 95.5136 37.7473 95.5136 36.3444H97.2976C97.2976 37.9567 97.7828 39.2235 98.753 40.1448C99.7233 41.0661 101.033 41.5267 102.681 41.5267C104.121 41.5267 105.274 41.1394 106.14 40.3646C107.016 39.5899 107.454 38.5534 107.454 37.2552Z" fill="#1E1E1E"/>
<path d="M123.699 36.4858H115.154L113.213 42.8773H111.351L118.612 20.0122H120.271L127.533 42.8773H125.67L123.699 36.4858ZM115.67 34.8054H123.182L119.426 22.5406L115.67 34.8054Z" fill="#1E1E1E"/>
<path d="M135.358 31.6018L132.713 34.6798V42.8773H130.929V20.0122H132.713V32.1985L135.217 29.0577L142.275 20.0122H144.513L136.563 30.1884L145.123 42.8773H142.948L135.358 31.6018Z" fill="#1E1E1E"/>
<path d="M158.879 36.4858H150.334L148.394 42.8773H146.531L153.793 20.0122H155.452L162.713 42.8773H160.851L158.879 36.4858ZM150.851 34.8054H158.363L154.607 22.5406L150.851 34.8054Z" fill="#1E1E1E"/>
<path d="M103.307 65.6307L107.141 49.0472H112.274L105.701 71.9123H100.913L94.3868 49.0472H99.4886L103.307 65.6307Z" fill="#1E1E1E"/>
<path d="M124.105 67.2325H117.83L116.609 71.9123H111.742L118.863 49.0472H123.073L130.24 71.9123H125.326L124.105 67.2325ZM118.832 63.385H123.088L120.96 55.2346L118.832 63.385Z" fill="#1E1E1E"/>
<path d="M146.923 49.0472V64.8769C146.902 67.2535 146.25 69.0751 144.966 70.3419C143.683 71.5983 141.842 72.2264 139.442 72.2264C137.001 72.2264 135.133 71.5878 133.84 70.3105C132.556 69.0333 131.915 67.1854 131.915 64.767V49.0472H136.547V64.7827C136.547 66.0809 136.756 67.0074 137.173 67.5623C137.59 68.1172 138.347 68.3946 139.442 68.3946C140.538 68.3946 141.289 68.1224 141.696 67.578C142.103 67.0231 142.311 66.1175 142.322 64.8612V49.0472H146.923Z" fill="#1E1E1E"/>
<path d="M155.014 68.0806H163.089V71.9123H150.413V49.0472H155.014V68.0806Z" fill="#1E1E1E"/>
<path d="M177.283 52.8947H171.649V71.9123H167.032V52.8947H161.493V49.0472H177.283V52.8947Z" fill="#1E1E1E"/>
<path d="M52.4627 82.5419C49.0264 88.486 40.4358 88.486 36.9996 82.5419L1.2011 20.6166C-1.71586 15.5707 0.917507 9.13225 6.53758 7.56914L23.1754 2.94168C37.2776 -0.980564 52.1847 -0.980558 66.2869 2.94169L82.9247 7.56915C88.5448 9.13226 91.1781 15.5707 88.2612 20.6166L52.4627 82.5419Z" fill="#1E1E1E"/>
<path d="M32.8302 22.1604H38.961V28.329H32.8302V22.1604Z" fill="#F2F2F2"/>
<path d="M32.8302 31.5947H38.961V37.7634H32.8302V31.5947Z" fill="#F2F2F2"/>
<path d="M41.6657 22.1604H47.7965V28.329H41.6657V22.1604Z" fill="#F2F2F2"/>
<path d="M41.6657 31.5947H47.7965V37.7634H41.6657V31.5947Z" fill="#F2F2F2"/>
<path d="M41.6657 41.0291H47.7965V47.1977H41.6657V41.0291Z" fill="#F2F2F2"/>
<path d="M41.6657 50.4634H47.7965V56.6321H41.6657V50.4634Z" fill="#F2F2F2"/>
<path d="M50.5013 22.1604H56.6321V28.329H50.5013V22.1604Z" fill="#F2F2F2"/>
<path d="M50.5013 31.5947H56.6321V37.7634H50.5013V31.5947Z" fill="#F2F2F2"/>
</svg>
