<svg id="Capa_1" enable-background="new 0 0 512 512" height="512" viewBox="0 0 512 512" width="512" xmlns="http://www.w3.org/2000/svg"><g><g><path d="m423.524 148.598c7.389-14.892 1.304-32.942-13.588-40.331l-46.599-23.082c-14.892-7.389-32.942-1.304-40.331 13.588l-92.214 186.052-44.906-75.102c-8.533-14.275-26.994-18.919-41.269-10.386l-44.631 26.674c-14.252 8.533-18.919 26.994-10.386 41.269l88.485 148.009c5.65 9.448 16.013 15.075 26.994 14.641l62.726-2.471c11.003-.435 20.886-6.84 25.759-16.7z" fill="#95d6a4"/><g fill="#78c2a4"><path d="m249.551 316.197 107.762-217.423c2.403-4.843 5.945-8.736 10.128-11.555l-4.105-2.033c-14.892-7.389-32.942-1.304-40.331 13.588l-92.214 186.052z"/><path d="m212.393 415.288-88.485-148.008c-8.533-14.275-3.866-32.736 10.386-41.269l42.84-25.603c-9.398-6.477-22.07-7.314-32.515-1.071l-44.631 26.674c-14.252 8.533-18.919 26.994-10.386 41.269l88.485 148.009c5.65 9.448 16.013 15.075 26.994 14.641l25.42-1.001c-7.467-1.99-14.022-6.809-18.108-13.641z"/></g></g><path d="m422.517 0h-333.034c-49.417 0-89.481 40.064-89.481 89.481v333.034c0 49.417 40.063 89.481 89.481 89.481h333.034c49.417 0 89.481-40.064 89.481-89.481v-333.034c0-49.417-40.064-89.481-89.481-89.481zm48.274 422.515c0 26.619-21.654 48.274-48.274 48.274h-333.034c-26.62 0-48.274-21.654-48.274-48.274v-333.034c0-26.619 21.654-48.274 48.274-48.274h333.034c26.62 0 48.274 21.654 48.274 48.274z" fill="#d6f6b2"/><g fill="#b3e59f"><path d="m22.652 422.519v-333.034c0-49.417 40.063-89.481 89.481-89.481h-22.65c-49.417 0-89.481 40.064-89.481 89.481v333.034c0 49.417 40.064 89.481 89.481 89.481h22.649c-49.417 0-89.48-40.064-89.48-89.481z"/><path d="m422.517 470.793h22.649c26.62 0 48.274-21.654 48.274-48.274v-333.034c0-26.619-21.654-48.274-48.274-48.274h-22.649c26.62 0 48.274 21.654 48.274 48.274v333.034c0 26.62-21.654 48.274-48.274 48.274z"/></g></g></svg>