<svg height="512" viewBox="0 0 64 64" width="512" xmlns="http://www.w3.org/2000/svg"><path d="m58 36.1v-25.1a5.006 5.006 0 0 0 -5-5h-42a5.006 5.006 0 0 0 -5 5v17.1a5.009 5.009 0 0 0 -4 4.9v24a5.006 5.006 0 0 0 5 5h16a5.006 5.006 0 0 0 5-5v-5h13a1 1 0 0 0 .929-1.372l-3.452-8.628h7.523v15a5.006 5.006 0 0 0 5 5h6a5.006 5.006 0 0 0 5-5v-16a5.009 5.009 0 0 0 -4-4.9zm2 4.9v13h-12v-13a3 3 0 0 1 3-3h6a3 3 0 0 1 3 3zm-28-1h-4v-6h28v2h-5a5.009 5.009 0 0 0 -4.9 4zm-21-32h42a3 3 0 0 1 3 3v21h-28.1a5.009 5.009 0 0 0 -4.9-4h-15v-17a3 3 0 0 1 3-3zm15 49a3 3 0 0 1 -3 3h-16a3 3 0 0 1 -3-3v-24a3 3 0 0 1 3-3h16a3 3 0 0 1 3 3zm13.523-7h-11.523v-8h8.323zm17.477 10h-6a3 3 0 0 1 -3-3v-1h12v1a3 3 0 0 1 -3 3z"/><path d="m35 37a3 3 0 1 0 -3 3 3 3 0 0 0 3-3zm-3 1a1 1 0 1 1 1-1 1 1 0 0 1 -1 1z"/><path d="m49 12h3v3a1 1 0 0 0 2 0v-3a2 2 0 0 0 -2-2h-3a1 1 0 0 0 0 2z"/><path d="m55 57h-2a1 1 0 0 0 0 2h2a1 1 0 0 0 0-2z"/><path d="m55 39h-2a1 1 0 0 0 0 2h2a1 1 0 0 0 0-2z"/><path d="m15 53a3 3 0 1 0 3 3 3 3 0 0 0 -3-3zm0 4a1 1 0 1 1 1-1 1 1 0 0 1 -1 1z"/><path d="m14 33h2a1 1 0 0 0 0-2h-2a1 1 0 0 0 0 2z"/><path d="m23.172 19.171a1 1 0 0 0 .674-.26l.236-.217a12.355 12.355 0 0 1 15.8-.028l.268.244a1 1 0 1 0 1.35-1.48l-.3-.272a14.372 14.372 0 0 0 -18.431.029l-.27.245a1 1 0 0 0 .674 1.739z"/><path d="m27.922 23.3a1 1 0 1 0 1.278 1.539 4.37 4.37 0 0 1 5.594 0 1 1 0 1 0 1.284-1.539 6.367 6.367 0 0 0 -8.156 0z"/><path d="m38.706 20.292a10.377 10.377 0 0 0 -13.412 0 1 1 0 0 0 1.349 1.474 8.343 8.343 0 0 1 10.716 0 1 1 0 0 0 1.349-1.474z"/></svg>