<svg width="134" height="184" viewBox="0 0 134 184" fill="none" xmlns="http://www.w3.org/2000/svg">
<path d="M66.6525 78.206C88.2485 78.206 105.755 60.699 105.755 39.103C105.755 17.507 88.2485 0 66.6525 0C45.0565 0 27.5495 17.507 27.5495 39.103C27.5495 60.699 45.0565 78.206 66.6525 78.206Z" fill="#1A72B3"/>
<path d="M83.2366 80.8678H50.0592C22.4597 80.8678 0 103.325 0 130.929V171.513L0.102203 172.147L2.9003 173.021C29.2415 181.25 52.1305 184 70.97 184C107.761 184 129.09 173.505 130.411 172.839L133.023 171.513H133.298V130.929C133.3 103.325 110.845 80.8678 83.2366 80.8678ZM74.3767 159.626L67.218 170.103C67.1203 170.246 66.9659 170.33 66.7955 170.33C66.791 170.33 66.7865 170.33 66.7819 170.33C66.6138 170.33 66.4526 170.241 66.3595 170.094L59.7094 159.61C59.6527 159.521 59.6254 159.414 59.63 159.301L62.9572 108.42C62.9754 108.149 63.1957 107.945 63.4683 107.945H70.3704C70.6407 107.945 70.8632 108.149 70.8859 108.42L74.4608 159.296C74.4744 159.417 74.4403 159.528 74.3767 159.626ZM71.138 106.405H62.9322L55.7985 91.6605C55.7985 90.2455 56.9431 89.1054 58.3581 89.1054H75.4896C76.9 89.1054 78.0447 90.2455 78.0447 91.6605L71.138 106.405Z" fill="#1A72B3"/>
<rect x="44.33" y="86.231" width="55.2607" height="84.4092" fill="#1A72B2"/>
<path d="M97.1468 69.0048V68.9973C96.6572 68.325 95.7156 68.1769 95.0433 68.6664C94.3792 69.1499 94.2253 70.0762 94.697 70.7487C103.655 83.2873 103.655 100.133 94.697 112.671C94.211 113.346 94.3642 114.287 95.0391 114.773C95.042 114.775 95.045 114.777 95.048 114.779C95.7242 115.262 96.6635 115.106 97.147 114.43C106.854 100.844 106.854 82.5909 97.1468 69.0048Z" fill="#92D0FD"/>
<path d="M35.5081 68.6481C35.5081 68.6481 35.5079 68.6481 35.5079 68.648C34.8317 68.1654 33.8924 68.3218 33.4089 68.9973C23.702 82.5834 23.702 100.836 33.4089 114.422C33.8985 115.095 34.8401 115.243 35.5124 114.753C36.1765 114.27 36.3304 113.344 35.8588 112.671C26.9006 100.133 26.9006 83.2871 35.8588 70.7485C36.3419 70.0716 36.1849 69.1313 35.5081 68.6481Z" fill="#92D0FD"/>
<path d="M45.0844 76.0291C45.5937 75.3718 45.4738 74.4258 44.8164 73.9165C44.1614 73.4089 43.2192 73.526 42.7084 74.1785C34.6638 84.4817 34.6638 98.9379 42.7084 109.241C43.2194 109.897 44.1655 110.015 44.8217 109.504C45.4778 108.993 45.5954 108.047 45.0844 107.391C37.887 98.1756 37.887 85.2442 45.0844 76.0291Z" fill="#92D0FD"/>
<path d="M85.7397 73.9163L85.7395 73.9165C85.0869 74.4274 84.9699 75.3696 85.4775 76.0246C92.6751 85.2395 92.6751 98.1711 85.4775 107.386C84.9665 108.042 85.0841 108.988 85.7402 109.499C86.3964 110.01 87.3425 109.893 87.8535 109.237C95.8981 98.9334 95.8981 84.4772 87.8535 74.174C87.3408 73.5192 86.3945 73.4038 85.7397 73.9163Z" fill="#92D0FD"/>
<path d="M76.2397 81.4091C81.7004 87.1907 81.7004 96.2289 76.2397 102.011C75.6695 102.616 75.6983 103.569 76.3037 104.139C76.3038 104.139 76.304 104.14 76.3044 104.14C76.9103 104.709 77.8632 104.68 78.4328 104.074C78.4329 104.074 78.4331 104.074 78.4335 104.073C84.9842 97.1326 84.9842 86.2871 78.4335 79.3462C77.8687 78.7358 76.9159 78.6991 76.3057 79.264C75.6953 79.8288 75.6586 80.7816 76.2235 81.3918C76.2287 81.3976 76.2342 81.4034 76.2397 81.4091Z" fill="#92D0FD"/>
<path d="M53.2184 104.548C54.0499 104.548 54.7245 103.874 54.7249 103.043C54.7251 102.659 54.5788 102.29 54.3161 102.011C48.8553 96.2289 48.8553 87.1907 54.3161 81.4091C54.8905 80.8077 54.8687 79.8546 54.2673 79.2802C53.666 78.7057 52.7128 78.7275 52.1384 79.3289C52.1329 79.3345 52.1275 79.3404 52.1222 79.3462C45.5715 86.2871 45.5715 97.1326 52.1222 104.073C52.4066 104.376 52.8032 104.548 53.2184 104.548Z" fill="#92D0FD"/>
<path d="M84.8073 154.576L70.1459 97.4045C73.3177 94.716 73.7094 89.9653 71.0209 86.7934C68.3324 83.6216 63.5816 83.2299 60.4098 85.9184C57.238 88.6069 56.8463 93.3577 59.5348 96.5295C59.8019 96.8448 60.0945 97.1375 60.4098 97.4045L45.7499 154.576C45.5427 155.381 46.0278 156.202 46.8331 156.409C46.8339 156.41 46.8348 156.41 46.8356 156.41C46.9577 156.441 47.0831 156.456 47.209 156.457C47.896 156.456 48.4955 155.991 48.6666 155.326L49.1695 153.368C49.2538 153.344 49.3359 153.313 49.4149 153.275L77.5617 138.46L81.8861 155.324C82.0569 155.991 82.6582 156.458 83.3467 156.457C83.4732 156.457 83.5991 156.441 83.7216 156.41C84.5274 156.204 85.0137 155.384 84.8078 154.578C84.8077 154.578 84.8075 154.577 84.8073 154.576ZM70.2905 110.095L62.1023 102.929L63.1382 98.8907C63.8305 99.1111 64.5513 99.2282 65.2779 99.2385C66.0042 99.2282 66.7252 99.1111 67.4175 98.8907L70.2905 110.095ZM65.2779 87.1926C67.7727 87.1926 69.7951 89.215 69.7951 91.7098C69.7951 94.2047 67.7727 96.2271 65.2779 96.2271C62.783 96.2271 60.7606 94.2047 60.7606 91.7098C60.7606 89.215 62.783 87.1926 65.2779 87.1926ZM61.2651 106.197L70.3341 114.135L56.9331 123.064L61.2651 106.197ZM50.1678 149.473L55.5734 128.393L73.9434 136.963L50.1678 149.473ZM57.8004 126.11L71.9739 116.66L76.6522 134.906L57.8004 126.11Z" fill="#92D0FD"/>
</svg>
